<svg viewBox="0 0 24 24" fill="currentColor" xmlns="http://www.w3.org/2000/svg"><path d="M12 0c-1.38 0-2.6.43-3.66 1.16-.76.51-1.42 1.14-1.95 1.84C5.17 4.6 4.3 6.64 4 8.79c-.04.28-.06.56-.06.84 0 .28.02.56.06.84.3 2.15 1.17 4.19 2.39 5.79.53.7 1.19 1.33 1.95 1.84C9.4 18.57 10.62 19 12 19s2.6-.43 3.66-1.16c.76-.51 1.42-1.14 1.95-1.84 1.22-1.6 2.09-3.64 2.39-5.79.04-.28.06-.56.06-.84 0-.28-.02-.56-.06-.84-.3-2.15-1.17-4.19-2.39-5.79-.53-.7-1.19-1.33-1.95-1.84C14.6.43 13.38 0 12 0zM12 1.9c1.07 0 2.06.33 2.91.9.59.4 1.09.89 1.5 1.46.96 1.31 1.63 2.94 1.86 4.69.04.27.05.54.05.81 0 .27-.01.54-.05.81-.23 1.75-.9 3.38-1.86 4.69-.41.57-.91 1.06-1.5 1.46-.85.57-1.84.9-2.91.9-1.07 0-2.06-.33-2.91-.9-.59-.4-1.09-.89-1.5-1.46-.96-1.31-1.63-2.94-1.86-4.69-.04-.27-.05-.54-.05-.81 0-.27.01-.54.05-.81.23-1.75.9-3.38 1.86-4.69.41-.57.91-1.06 1.5-1.46.85-.57 1.84-.9 2.91-.9z" /></svg>
