<?xml version="1.0" encoding="UTF-8"?>
<!DOCTYPE svg PUBLIC "-//W3C//DTD SVG 1.1//EN" "http://www.w3.org/Graphics/SVG/1.1/DTD/svg11.dtd">
<svg xmlns="http://www.w3.org/2000/svg" version="1.1" width="500px" height="500px" style="shape-rendering:geometricPrecision; text-rendering:geometricPrecision; image-rendering:optimizeQuality; fill-rule:evenodd; clip-rule:evenodd" xmlns:xlink="http://www.w3.org/1999/xlink">
<g><path style="opacity:1" fill="#37b8b2" d="M 170.5,-0.5 C 179.5,-0.5 188.5,-0.5 197.5,-0.5C 202.009,0.998291 206.676,2.33162 211.5,3.5C 211.842,4.33825 212.508,4.67158 213.5,4.5C 213.842,5.33825 214.508,5.67158 215.5,5.5C 215.842,6.33825 216.508,6.67158 217.5,6.5C 217.842,7.33825 218.508,7.67158 219.5,7.5C 219.842,8.33825 220.508,8.67158 221.5,8.5C 221.5,9.16667 221.833,9.5 222.5,9.5C 222.842,10.3382 223.508,10.6716 224.5,10.5C 224.5,11.1667 224.833,11.5 225.5,11.5C 227.86,13.8532 230.527,15.8532 233.5,17.5C 237.167,21.8333 241.167,25.8333 245.5,29.5C 246.5,31.1667 247.833,32.5 249.5,33.5C 253.167,30.5 256.5,27.1667 259.5,23.5C 260.11,22.609 260.443,21.609 260.5,20.5C 264.127,18.2065 267.461,15.5398 270.5,12.5C 274.767,10.0061 279.434,7.33945 284.5,4.5C 285.492,4.67158 286.158,4.33825 286.5,3.5C 291.324,2.33162 295.991,0.998291 300.5,-0.5C 309.167,-0.5 317.833,-0.5 326.5,-0.5C 337.556,2.38422 347.556,6.71755 356.5,12.5C 359.808,15.4715 363.141,18.4715 366.5,21.5C 366.5,22.1667 366.833,22.5 367.5,22.5C 368.833,24.5 370.5,26.1667 372.5,27.5C 373.446,30.4087 375.113,32.742 377.5,34.5C 376.167,34.8333 376.167,35.1667 377.5,35.5C 378.659,39.1513 380.326,42.4846 382.5,45.5C 383.463,50.0492 384.796,54.3825 386.5,58.5C 387.833,67.8333 387.833,77.1667 386.5,86.5C 385.13,89.6189 384.13,92.9523 383.5,96.5C 382.596,97.209 382.263,98.209 382.5,99.5C 381.662,99.8417 381.328,100.508 381.5,101.5C 380.662,101.842 380.328,102.508 380.5,103.5C 379.662,103.842 379.328,104.508 379.5,105.5C 378.662,105.842 378.328,106.508 378.5,107.5C 377.662,107.842 377.328,108.508 377.5,109.5C 375.255,112.32 373.255,115.32 371.5,118.5C 370.833,118.5 370.5,118.833 370.5,119.5C 369.833,119.5 369.5,119.833 369.5,120.5C 368.833,120.5 368.5,120.833 368.5,121.5C 366.833,122.5 365.5,123.833 364.5,125.5C 363.5,125.833 362.833,126.5 362.5,127.5C 361.833,127.5 361.5,127.833 361.5,128.5C 356.833,132.5 352.5,136.833 348.5,141.5C 316.751,171.748 285.417,202.581 254.5,234C 249.899,236.292 245.566,235.958 241.5,233C 211.299,202.632 180.965,172.465 150.5,142.5C 146.167,138.5 141.833,134.5 137.5,130.5C 135.5,127.833 133.167,125.5 130.5,123.5C 128.518,120.19 126.185,117.19 123.5,114.5C 123.068,113.29 122.401,112.29 121.5,111.5C 121.068,110.29 120.401,109.29 119.5,108.5C 119.672,107.508 119.338,106.842 118.5,106.5C 118.672,105.508 118.338,104.842 117.5,104.5C 117.672,103.508 117.338,102.842 116.5,102.5C 116.34,100.847 115.674,99.5137 114.5,98.5C 109.6,81.932 109.267,65.2654 113.5,48.5C 114.931,47.2196 115.598,45.5529 115.5,43.5C 119.177,36.4257 124.177,29.0924 130.5,21.5C 131.167,21.5 131.5,21.1667 131.5,20.5C 132.167,20.5 132.5,20.1667 132.5,19.5C 133.167,19.5 133.5,19.1667 133.5,18.5C 144.359,9.23729 156.693,2.90396 170.5,-0.5 Z M 211.5,2.5 C 213.153,2.6596 214.486,3.32627 215.5,4.5C 214.833,4.5 214.167,4.5 213.5,4.5C 212.508,4.67158 211.842,4.33825 211.5,3.5C 211.5,3.16667 211.5,2.83333 211.5,2.5 Z M 286.5,2.5 C 286.5,2.83333 286.5,3.16667 286.5,3.5C 286.158,4.33825 285.492,4.67158 284.5,4.5C 283.761,4.63101 283.094,4.46434 282.5,4C 283.745,3.20858 285.078,2.70858 286.5,2.5 Z M 215.5,4.5 C 217.153,4.6596 218.486,5.32627 219.5,6.5C 218.833,6.5 218.167,6.5 217.5,6.5C 216.508,6.67158 215.842,6.33825 215.5,5.5C 215.5,5.16667 215.5,4.83333 215.5,4.5 Z M 219.5,6.5 C 221.027,6.42702 222.027,7.09368 222.5,8.5C 222.167,8.5 221.833,8.5 221.5,8.5C 220.508,8.67158 219.842,8.33825 219.5,7.5C 219.5,7.16667 219.5,6.83333 219.5,6.5 Z M 222.5,8.5 C 224.027,8.42702 225.027,9.09368 225.5,10.5C 225.167,10.5 224.833,10.5 224.5,10.5C 223.508,10.6716 222.842,10.3382 222.5,9.5C 222.5,9.16667 222.5,8.83333 222.5,8.5 Z M 198.5,22.5 C 191.035,22.7076 183.368,22.7076 175.5,22.5C 177.957,20.5569 180.957,19.5569 184.5,19.5C 189.417,19.9552 194.084,20.9552 198.5,22.5 Z M 260.5,19.5 C 260.5,19.8333 260.5,20.1667 260.5,20.5C 260.443,21.609 260.11,22.609 259.5,23.5C 258.833,23.5 258.167,23.5 257.5,23.5C 257.372,21.8708 258.372,20.5375 260.5,19.5 Z M 322.5,21.5 C 316.5,22.8333 310.5,22.8333 304.5,21.5C 310.5,18.8333 316.5,18.8333 322.5,21.5 Z M 304.5,21.5 C 310.5,22.8333 316.5,22.8333 322.5,21.5C 331.254,22.5224 338.921,25.8557 345.5,31.5C 345.5,32.1667 345.833,32.5 346.5,32.5C 346.5,33.1667 346.833,33.5 347.5,33.5C 348.833,35.5 350.5,37.1667 352.5,38.5C 352.5,39.1667 352.833,39.5 353.5,39.5C 353.5,40.1667 353.833,40.5 354.5,40.5C 354.5,41.1667 354.833,41.5 355.5,41.5C 355.328,42.4916 355.662,43.1583 356.5,43.5C 367.16,59.1279 368.66,76.1279 361,94.5C 359.974,97.2387 358.474,99.572 356.5,101.5C 355.094,101.973 354.427,102.973 354.5,104.5C 353.833,104.5 353.5,104.833 353.5,105.5C 352.833,105.5 352.5,105.833 352.5,106.5C 351.833,106.5 351.5,106.833 351.5,107.5C 350.833,107.5 350.5,107.833 350.5,108.5C 348.833,110.833 346.833,112.833 344.5,114.5C 343.833,114.5 343.5,114.833 343.5,115.5C 342.833,115.5 342.5,115.833 342.5,116.5C 341.833,116.5 341.5,116.833 341.5,117.5C 340.833,117.5 340.5,117.833 340.5,118.5C 339.833,118.5 339.5,118.833 339.5,119.5C 338.833,119.5 338.5,119.833 338.5,120.5C 337.833,120.5 337.5,120.833 337.5,121.5C 336.833,121.5 336.5,121.833 336.5,122.5C 335.501,125.174 333.834,125.841 331.5,124.5C 331.672,123.508 331.338,122.842 330.5,122.5C 330.5,121.833 330.167,121.5 329.5,121.5C 329.5,120.833 329.167,120.5 328.5,120.5C 328.5,119.833 328.167,119.5 327.5,119.5C 327.5,118.833 327.167,118.5 326.5,118.5C 326.5,117.833 326.167,117.5 325.5,117.5C 325.5,116.833 325.167,116.5 324.5,116.5C 324.5,115.833 324.167,115.5 323.5,115.5C 323.5,114.833 323.167,114.5 322.5,114.5C 320.167,112.833 318.167,110.833 316.5,108.5C 316.5,107.833 316.167,107.5 315.5,107.5C 315.5,106.833 315.167,106.5 314.5,106.5C 314.5,105.833 314.167,105.5 313.5,105.5C 313.5,104.833 313.167,104.5 312.5,104.5C 312.5,103.833 312.167,103.5 311.5,103.5C 311.5,102.833 311.167,102.5 310.5,102.5C 310.5,101.833 310.167,101.5 309.5,101.5C 309.5,100.833 309.167,100.5 308.5,100.5C 306.167,98.8333 304.167,96.8333 302.5,94.5C 302.5,93.8333 302.167,93.5 301.5,93.5C 301.5,92.8333 301.167,92.5 300.5,92.5C 300.5,91.8333 300.167,91.5 299.5,91.5C 299.5,90.8333 299.167,90.5 298.5,90.5C 298.5,89.8333 298.167,89.5 297.5,89.5C 297.5,88.8333 297.167,88.5 296.5,88.5C 296.5,87.8333 296.167,87.5 295.5,87.5C 295.5,86.8333 295.167,86.5 294.5,86.5C 292.167,84.8333 290.167,82.8333 288.5,80.5C 288.5,79.8333 288.167,79.5 287.5,79.5C 287.5,78.8333 287.167,78.5 286.5,78.5C 286.5,77.8333 286.167,77.5 285.5,77.5C 285.5,76.8333 285.167,76.5 284.5,76.5C 284.5,75.8333 284.167,75.5 283.5,75.5C 283.5,74.8333 283.167,74.5 282.5,74.5C 282.5,73.8333 282.167,73.5 281.5,73.5C 281.5,72.8333 281.167,72.5 280.5,72.5C 275.732,69.0547 270.732,66.0547 265.5,63.5C 265.158,62.6618 264.492,62.3284 263.5,62.5C 263.5,62.1667 263.5,61.8333 263.5,61.5C 262.432,60.5655 261.099,60.2322 259.5,60.5C 256.997,59.6295 254.33,58.9628 251.5,58.5C 255.769,55.5705 259.769,52.2371 263.5,48.5C 264.167,48.5 264.5,48.1667 264.5,47.5C 265.167,47.5 265.5,47.1667 265.5,46.5C 266.167,46.5 266.5,46.1667 266.5,45.5C 267.167,45.5 267.5,45.1667 267.5,44.5C 268.167,44.5 268.5,44.1667 268.5,43.5C 269.167,43.5 269.5,43.1667 269.5,42.5C 272.898,38.0986 276.898,34.4319 281.5,31.5C 288.079,25.8557 295.746,22.5224 304.5,21.5 Z M 171.5,22.5 C 172.833,22.5 174.167,22.5 175.5,22.5C 183.368,22.7076 191.035,22.7076 198.5,22.5C 205.365,23.9326 211.365,26.9326 216.5,31.5C 216.5,32.1667 216.833,32.5 217.5,32.5C 217.5,33.1667 217.833,33.5 218.5,33.5C 218.5,34.1667 218.833,34.5 219.5,34.5C 219.5,35.1667 219.833,35.5 220.5,35.5C 220.5,36.1667 220.833,36.5 221.5,36.5C 221.5,37.1667 221.833,37.5 222.5,37.5C 222.5,38.1667 222.833,38.5 223.5,38.5C 223.5,39.1667 223.833,39.5 224.5,39.5C 224.5,40.1667 224.833,40.5 225.5,40.5C 225.5,41.1667 225.833,41.5 226.5,41.5C 226.5,42.1667 226.833,42.5 227.5,42.5C 227.5,43.1667 227.833,43.5 228.5,43.5C 228.5,44.1667 228.833,44.5 229.5,44.5C 229.5,45.1667 229.833,45.5 230.5,45.5C 230.5,46.1667 230.833,46.5 231.5,46.5C 231.5,47.1667 231.833,47.5 232.5,47.5C 232.5,48.1667 232.833,48.5 233.5,48.5C 233.5,49.1667 233.833,49.5 234.5,49.5C 234.5,50.1667 234.833,50.5 235.5,50.5C 235.5,51.1667 235.833,51.5 236.5,51.5C 236.5,52.1667 236.833,52.5 237.5,52.5C 237.5,53.1667 237.833,53.5 238.5,53.5C 240.565,56.1264 243.232,57.793 246.5,58.5C 248.167,58.5 249.833,58.5 251.5,58.5C 251.611,59.1174 251.944,59.6174 252.5,60C 254.81,60.4966 257.143,60.6633 259.5,60.5C 261.099,60.2322 262.432,60.5655 263.5,61.5C 254.651,61.1736 245.984,61.507 237.5,62.5C 236.209,62.2627 235.209,62.596 234.5,63.5C 228.596,66.2615 223.263,69.9281 218.5,74.5C 217.833,74.5 217.5,74.8333 217.5,75.5C 216.833,75.5 216.5,75.8333 216.5,76.5C 215.833,76.5 215.5,76.8333 215.5,77.5C 214.833,77.5 214.5,77.8333 214.5,78.5C 213.833,78.5 213.5,78.8333 213.5,79.5C 210.833,82.8333 207.833,85.8333 204.5,88.5C 203.833,88.5 203.5,88.8333 203.5,89.5C 202.833,89.5 202.5,89.8333 202.5,90.5C 201.833,90.5 201.5,90.8333 201.5,91.5C 200.833,91.5 200.5,91.8333 200.5,92.5C 199.833,92.5 199.5,92.8333 199.5,93.5C 196.833,96.8333 193.833,99.8333 190.5,102.5C 189.833,102.5 189.5,102.833 189.5,103.5C 188.833,103.5 188.5,103.833 188.5,104.5C 187.833,104.5 187.5,104.833 187.5,105.5C 186.833,105.5 186.5,105.833 186.5,106.5C 185.833,106.5 185.5,106.833 185.5,107.5C 182.833,110.833 179.833,113.833 176.5,116.5C 175.833,116.5 175.5,116.833 175.5,117.5C 174.833,117.5 174.5,117.833 174.5,118.5C 173.833,118.5 173.5,118.833 173.5,119.5C 172.833,119.5 172.5,119.833 172.5,120.5C 171.833,120.5 171.5,120.833 171.5,121.5C 169.882,123.785 167.882,125.785 165.5,127.5C 163.451,126.118 161.785,124.452 160.5,122.5C 160.5,121.833 160.167,121.5 159.5,121.5C 159.5,120.833 159.167,120.5 158.5,120.5C 158.5,119.833 158.167,119.5 157.5,119.5C 157.5,118.833 157.167,118.5 156.5,118.5C 156.5,117.833 156.167,117.5 155.5,117.5C 152.167,114.833 149.167,111.833 146.5,108.5C 146.5,107.833 146.167,107.5 145.5,107.5C 145.912,105.027 144.912,103.694 142.5,103.5C 136.618,96.5117 133.285,88.5117 132.5,79.5C 132.391,72.8039 132.724,66.1373 133.5,59.5C 134.404,58.791 134.737,57.791 134.5,56.5C 135.404,55.791 135.737,54.791 135.5,53.5C 136.338,53.1583 136.672,52.4916 136.5,51.5C 136.833,50.1667 137.167,48.8333 137.5,47.5C 139.037,44.3984 141.037,41.7317 143.5,39.5C 144.167,39.5 144.5,39.1667 144.5,38.5C 145.167,38.5 145.5,38.1667 145.5,37.5C 146.167,37.5 146.5,37.1667 146.5,36.5C 147.167,36.5 147.5,36.1667 147.5,35.5C 148.167,35.5 148.5,35.1667 148.5,34.5C 149.167,34.5 149.5,34.1667 149.5,33.5C 150.167,33.5 150.5,33.1667 150.5,32.5C 152.027,32.573 153.027,31.9063 153.5,30.5C 158.804,26.1794 164.804,23.5127 171.5,22.5 Z M 248.5,30.5 C 248.5,31.1667 248.833,31.5 249.5,31.5C 249.5,32.1667 249.5,32.8333 249.5,33.5C 247.833,32.5 246.5,31.1667 245.5,29.5C 246.779,28.2848 247.779,28.6182 248.5,30.5 Z M 153.5,30.5 C 153.027,31.9063 152.027,32.573 150.5,32.5C 150.973,31.0937 151.973,30.427 153.5,30.5 Z M 250.5,30.5 C 250.5,31.1667 250.167,31.5 249.5,31.5C 248.833,31.5 248.5,31.1667 248.5,30.5C 249.396,29.4937 250.062,29.4937 250.5,30.5 Z M 347.5,33.5 C 350.167,34.1667 351.833,35.8333 352.5,38.5C 350.5,37.1667 348.833,35.5 347.5,33.5 Z M 356.5,101.5 C 356.573,103.027 355.906,104.027 354.5,104.5C 354.427,102.973 355.094,101.973 356.5,101.5 Z"/></g>
<g><path style="opacity:1" fill="#52d3cc" d="M 159.5,1.5 C 159.897,0.474981 160.563,0.308314 161.5,1C 160.906,1.46434 160.239,1.63101 159.5,1.5 Z"/></g>
<g><path style="opacity:1" fill="#64f3ec" d="M 206.5,0.5 C 207.833,1.16667 207.833,1.16667 206.5,0.5 Z"/></g>
<g><path style="opacity:1" fill="#52d3cc" d="M 289.5,1.5 C 289.897,0.474981 290.563,0.308314 291.5,1C 290.906,1.46434 290.239,1.63101 289.5,1.5 Z"/></g>
<g><path style="opacity:1" fill="#42b4ad" d="M 335.5,1.5 C 335.897,0.474981 336.563,0.308314 337.5,1C 336.906,1.46434 336.239,1.63101 335.5,1.5 Z"/></g>
<g><path style="opacity:1" fill="#52d3cc" d="M 156.5,2.5 C 156.897,1.47498 157.563,1.30831 158.5,2C 157.906,2.46434 157.239,2.63101 156.5,2.5 Z"/></g>
<g><path style="opacity:1" fill="#42b4ad" d="M 211.5,2.5 C 210.761,2.63101 210.094,2.46434 209.5,2C 210.437,1.30831 211.103,1.47498 211.5,2.5 Z"/></g>
<g><path style="opacity:1" fill="#52d3cc" d="M 286.5,2.5 C 286.897,1.47498 287.563,1.30831 288.5,2C 287.906,2.46434 287.239,2.63101 286.5,2.5 Z"/></g>
<g><path style="opacity:1" fill="#42b4ad" d="M 338.5,2.5 C 338.897,1.47498 339.563,1.30831 340.5,2C 339.906,2.46434 339.239,2.63101 338.5,2.5 Z"/></g>
<g><path style="opacity:1" fill="#64f3ec" d="M 225.5,10.5 C 226.833,11.1667 226.833,11.1667 225.5,10.5 Z"/></g>
<g><path style="opacity:1" fill="#32968e" d="M 270.5,12.5 C 269.833,11.1667 269.833,11.1667 270.5,12.5 Z"/></g>
<g><path style="opacity:1" fill="#32968e" d="M 356.5,11.5 C 357.833,12.1667 357.833,12.1667 356.5,11.5 Z"/></g>
<g><path style="opacity:1" fill="#32968e" d="M 263.5,15.5 C 264.833,16.1667 264.833,16.1667 263.5,15.5 Z"/></g>
<g><path style="opacity:1" fill="#64f3ec" d="M 233.5,16.5 C 234.833,17.1667 234.833,17.1667 233.5,16.5 Z"/></g>
<g><path style="opacity:1" fill="#32968e" d="M 263.5,16.5 C 262.833,17.1667 262.833,17.1667 263.5,16.5 Z"/></g>
<g><path style="opacity:1" fill="#32968e" d="M 262.5,17.5 C 261.833,18.1667 261.833,18.1667 262.5,17.5 Z"/></g>
<g><path style="opacity:1" fill="#123231" d="M 365.5,18.5 C 364.833,17.1667 364.833,17.1667 365.5,18.5 Z"/></g>
<g><path style="opacity:1" fill="#48b2ae" d="M 133.5,18.5 C 132.833,18.5 132.5,18.8333 132.5,19.5C 131.833,19.5 131.5,19.8333 131.5,20.5C 130.833,20.5 130.5,20.8333 130.5,21.5C 129.493,19.732 130.159,18.3987 132.5,17.5C 133.107,17.6236 133.44,17.9569 133.5,18.5 Z"/></g>
<g><path style="opacity:1" fill="#123231" d="M 261.5,18.5 C 260.833,19.1667 260.833,19.1667 261.5,18.5 Z"/></g>
<g><path style="opacity:1" fill="#123231" d="M 365.5,18.5 C 366.167,18.5 366.5,18.8333 366.5,19.5C 366.167,19.1667 365.833,18.8333 365.5,18.5 Z"/></g>
<g><path style="opacity:1" fill="#569594" d="M 366.5,19.5 C 368.382,20.221 368.715,21.221 367.5,22.5C 366.833,22.5 366.5,22.1667 366.5,21.5C 366.5,20.8333 366.5,20.1667 366.5,19.5 Z"/></g>
<g><path style="opacity:1" fill="#64f3ec" d="M 372.5,26.5 C 373.833,27.1667 373.833,27.1667 372.5,26.5 Z"/></g>
<g><path style="opacity:1" fill="#236362" d="M 257.5,23.5 C 258.167,23.5 258.833,23.5 259.5,23.5C 256.5,27.1667 253.167,30.5 249.5,33.5C 249.5,32.8333 249.5,32.1667 249.5,31.5C 250.167,31.5 250.5,31.1667 250.5,30.5C 253.167,28.5 255.5,26.1667 257.5,23.5 Z"/></g>
<g><path style="opacity:1" fill="#32968e" d="M 377.5,34.5 C 378.833,35.1667 378.833,35.1667 377.5,34.5 Z"/></g>
<g><path style="opacity:1" fill="#4ad7d0" d="M 115.5,43.5 C 115.167,43.5 114.833,43.5 114.5,43.5C 114.833,40.8333 115.167,40.8333 115.5,43.5 Z"/></g>
<g><path style="opacity:1" fill="#36aea8" d="M 114.5,43.5 C 114.631,44.2389 114.464,44.9056 114,45.5C 113.308,44.5632 113.475,43.8966 114.5,43.5 Z"/></g>
<g><path style="opacity:1" fill="#4ad7d0" d="M 382.5,45.5 C 382.369,44.7611 382.536,44.0944 383,43.5C 383.692,44.4368 383.525,45.1034 382.5,45.5 Z"/></g>
<g><path style="opacity:1" fill="#38bbb4" d="M 383.5,46.5 C 384.833,47.1667 384.833,47.1667 383.5,46.5 Z"/></g>
<g><path style="opacity:1" fill="#52d3cc" d="M 113.5,48.5 C 112.475,48.1034 112.308,47.4368 113,46.5C 113.464,47.0944 113.631,47.7611 113.5,48.5 Z"/></g>
<g><path style="opacity:1" fill="#22615f" d="M 137.5,47.5 C 137.167,48.8333 136.833,50.1667 136.5,51.5C 135.662,51.8417 135.328,52.5084 135.5,53.5C 135.167,53.5 134.833,53.5 134.5,53.5C 134.461,50.911 135.461,48.911 137.5,47.5 Z"/></g>
<g><path style="opacity:1" fill="#36aea8" d="M 384.5,48.5 C 385.525,48.8966 385.692,49.5632 385,50.5C 384.536,49.9056 384.369,49.2389 384.5,48.5 Z"/></g>
<g><path style="opacity:1" fill="#36aea8" d="M 385.5,51.5 C 386.525,51.8966 386.692,52.5632 386,53.5C 385.536,52.9056 385.369,52.2389 385.5,51.5 Z"/></g>
<g><path style="opacity:1" fill="#59dfd9" d="M 386.5,58.5 C 386.343,57.1266 386.51,55.7932 387,54.5C 387.765,56.0657 387.598,57.3991 386.5,58.5 Z"/></g>
<g><path style="opacity:1" fill="#4ad0cc" d="M 246.5,58.5 C 247.263,59.2679 248.263,59.7679 249.5,60C 247.167,60.6667 244.833,60.6667 242.5,60C 243.745,59.2086 245.078,58.7086 246.5,58.5 Z"/></g>
<g><path style="opacity:1" fill="#46cbc5" d="M 251.5,58.5 C 254.33,58.9628 256.997,59.6295 259.5,60.5C 257.143,60.6633 254.81,60.4966 252.5,60C 251.944,59.6174 251.611,59.1174 251.5,58.5 Z"/></g>
<g><path style="opacity:1" fill="#64f3ec" d="M 387.5,61.5 C 388.525,61.8966 388.692,62.5632 388,63.5C 387.536,62.9056 387.369,62.2389 387.5,61.5 Z"/></g>
<g><path style="opacity:1" fill="#64f3ec" d="M 387.5,81.5 C 388.525,81.8966 388.692,82.5632 388,83.5C 387.536,82.9056 387.369,82.2389 387.5,81.5 Z"/></g>
<g><path style="opacity:1" fill="#59dfd9" d="M 386.5,86.5 C 387.598,87.6009 387.765,88.9343 387,90.5C 386.51,89.2068 386.343,87.8734 386.5,86.5 Z"/></g>
<g><path style="opacity:1" fill="#55e0da" d="M 385.5,91.5 C 386.525,91.8966 386.692,92.5632 386,93.5C 385.536,92.9056 385.369,92.2389 385.5,91.5 Z"/></g>
<g><path style="opacity:1" fill="#42b4ad" d="M 111.5,93.5 C 112.525,93.8966 112.692,94.5632 112,95.5C 111.536,94.9056 111.369,94.2389 111.5,93.5 Z"/></g>
<g><path style="opacity:1" fill="#34a29b" d="M 384.5,96.5 C 384.369,95.7611 384.536,95.0944 385,94.5C 385.692,95.4368 385.525,96.1034 384.5,96.5 Z"/></g>
<g><path style="opacity:1" fill="#42b4ad" d="M 113.5,98.5 C 112.475,98.1034 112.308,97.4368 113,96.5C 113.464,97.0944 113.631,97.7611 113.5,98.5 Z"/></g>
<g><path style="opacity:1" fill="#47cdc7" d="M 383.5,96.5 C 383.833,96.5 384.167,96.5 384.5,96.5C 384.167,99.1667 383.833,99.1667 383.5,96.5 Z"/></g>
<g><path style="opacity:1" fill="#42b4ad" d="M 113.5,98.5 C 113.833,98.5 114.167,98.5 114.5,98.5C 114.167,101.167 113.833,101.167 113.5,98.5 Z"/></g>
<g><path style="opacity:1" fill="#37a6a1" d="M 382.5,99.5 C 383.833,100.167 383.833,100.833 382.5,101.5C 382.5,100.833 382.5,100.167 382.5,99.5 Z"/></g>
<g><path style="opacity:1" fill="#32968e" d="M 115.5,102.5 C 114.833,101.167 114.833,101.167 115.5,102.5 Z"/></g>
<g><path style="opacity:1" fill="#276e6c" d="M 381.5,101.5 C 381.833,101.5 382.167,101.5 382.5,101.5C 382.672,102.492 382.338,103.158 381.5,103.5C 381.5,102.833 381.5,102.167 381.5,101.5 Z"/></g>
<g><path style="opacity:1" fill="#47cdc7" d="M 115.5,102.5 C 115.833,102.5 116.167,102.5 116.5,102.5C 116.5,103.167 116.5,103.833 116.5,104.5C 115.662,104.158 115.328,103.492 115.5,102.5 Z"/></g>
<g><path style="opacity:1" fill="#3db6af" d="M 380.5,103.5 C 380.833,103.5 381.167,103.5 381.5,103.5C 381.672,104.492 381.338,105.158 380.5,105.5C 380.5,104.833 380.5,104.167 380.5,103.5 Z"/></g>
<g><path style="opacity:1" fill="#47cdc7" d="M 116.5,104.5 C 116.833,104.5 117.167,104.5 117.5,104.5C 117.5,105.167 117.5,105.833 117.5,106.5C 116.662,106.158 116.328,105.492 116.5,104.5 Z"/></g>
<g><path style="opacity:1" fill="#3db6af" d="M 379.5,105.5 C 379.833,105.5 380.167,105.5 380.5,105.5C 380.672,106.492 380.338,107.158 379.5,107.5C 379.5,106.833 379.5,106.167 379.5,105.5 Z"/></g>
<g><path style="opacity:1" fill="#276e6c" d="M 117.5,106.5 C 117.833,106.5 118.167,106.5 118.5,106.5C 118.5,107.167 118.5,107.833 118.5,108.5C 117.662,108.158 117.328,107.492 117.5,106.5 Z"/></g>
<g><path style="opacity:1" fill="#38bbb4" d="M 378.5,107.5 C 378.833,107.5 379.167,107.5 379.5,107.5C 379.315,108.17 378.981,108.17 378.5,107.5 Z"/></g>
<g><path style="opacity:1" fill="#37a6a1" d="M 118.5,108.5 C 118.833,108.5 119.167,108.5 119.5,108.5C 119.167,111.167 118.833,111.167 118.5,108.5 Z"/></g>
<g><path style="opacity:1" fill="#32968e" d="M 377.5,109.5 C 378.833,110.167 378.833,110.167 377.5,109.5 Z"/></g>
<g><path style="opacity:1" fill="#37b8b2" d="M 451.5,114.5 C 456.877,117.856 462.21,120.522 467.5,122.5C 466.167,122.833 466.167,123.167 467.5,123.5C 471.183,127.18 475.183,130.514 479.5,133.5C 480.08,135.749 481.413,137.415 483.5,138.5C 485.172,141.022 486.672,143.688 488,146.5C 488.667,147.833 489.333,147.833 490,146.5C 490.617,147.449 490.451,148.282 489.5,149C 490.066,149.995 490.733,150.828 491.5,151.5C 491.328,152.492 491.662,153.158 492.5,153.5C 492.402,155.553 493.069,157.22 494.5,158.5C 499.4,174.399 499.733,190.399 495.5,206.5C 494.596,207.209 494.263,208.209 494.5,209.5C 493.662,209.842 493.328,210.508 493.5,211.5C 492.596,212.209 492.263,213.209 492.5,214.5C 491.662,214.842 491.328,215.508 491.5,216.5C 490.167,216.833 490.167,217.167 491.5,217.5C 491.672,218.492 491.338,219.158 490.5,219.5C 490.167,218.167 489.833,218.167 489.5,219.5C 488.662,219.842 488.328,220.508 488.5,221.5C 486.336,223.822 484.669,226.489 483.5,229.5C 482.833,229.5 482.5,229.833 482.5,230.5C 480.167,232.167 478.167,234.167 476.5,236.5C 475.833,236.5 475.5,236.833 475.5,237.5C 474.833,237.5 474.5,237.833 474.5,238.5C 473.833,238.5 473.5,238.833 473.5,239.5C 472.833,239.5 472.5,239.833 472.5,240.5C 469.521,242.812 466.854,245.479 464.5,248.5C 469.521,254.188 474.854,259.521 480.5,264.5C 481.08,266.749 482.413,268.415 484.5,269.5C 485.669,272.511 487.336,275.178 489.5,277.5C 489.328,278.492 489.662,279.158 490.5,279.5C 490.66,281.153 491.326,282.486 492.5,283.5C 492.796,285.403 493.463,287.07 494.5,288.5C 494.595,290.786 495.262,292.786 496.5,294.5C 498.682,305.774 499.015,317.107 497.5,328.5C 496.566,329.568 496.232,330.901 496.5,332.5C 495.596,333.209 495.263,334.209 495.5,335.5C 494.596,336.209 494.263,337.209 494.5,338.5C 493.662,338.842 493.328,339.508 493.5,340.5C 492.596,341.209 492.263,342.209 492.5,343.5C 491.662,343.842 491.328,344.508 491.5,345.5C 490.662,345.842 490.328,346.508 490.5,347.5C 489.662,347.842 489.328,348.508 489.5,349.5C 488.833,349.5 488.5,349.833 488.5,350.5C 486.917,352.663 485.584,354.996 484.5,357.5C 483.833,357.5 483.5,357.833 483.5,358.5C 481.457,359.579 480.124,361.246 479.5,363.5C 478.833,363.5 478.5,363.833 478.5,364.5C 477.833,364.5 477.5,364.833 477.5,365.5C 476.833,365.5 476.5,365.833 476.5,366.5C 475.833,366.5 475.5,366.833 475.5,367.5C 474.833,367.5 474.5,367.833 474.5,368.5C 472.251,369.08 470.585,370.413 469.5,372.5C 468.833,372.5 468.5,372.833 468.5,373.5C 465.996,374.584 463.663,375.917 461.5,377.5C 460.508,377.328 459.842,377.662 459.5,378.5C 458.167,378.833 458.167,379.167 459.5,379.5C 459.158,380.338 458.492,380.672 457.5,380.5C 457.167,379.167 456.833,379.167 456.5,380.5C 455.209,380.263 454.209,380.596 453.5,381.5C 452.508,381.328 451.842,381.662 451.5,382.5C 450.508,382.328 449.842,382.662 449.5,383.5C 448.209,383.263 447.209,383.596 446.5,384.5C 439.419,386.012 432.252,387.012 425,387.5C 417.748,387.012 410.581,386.012 403.5,384.5C 402.359,383.661 401.026,382.994 399.5,382.5C 397.425,383.762 395.425,383.595 393.5,382C 394.167,381.667 394.833,381.333 395.5,381C 390.938,378.22 386.272,375.72 381.5,373.5C 373.526,365.861 365.526,358.194 357.5,350.5C 329.252,320.751 300.419,291.417 271,262.5C 268.705,259.203 266.038,256.203 263,253.5C 261,250.167 261,246.833 263,243.5C 294.752,212.249 325.919,180.583 356.5,148.5C 363.965,141.536 371.298,134.369 378.5,127C 384.395,122.893 390.395,119.059 396.5,115.5C 398.553,115.598 400.22,114.931 401.5,113.5C 402.791,113.737 403.791,113.404 404.5,112.5C 420.342,109.409 436.008,110.076 451.5,114.5 Z M 412.5,133.5 C 421.167,133.5 429.833,133.5 438.5,133.5C 446.435,135.301 453.435,138.968 459.5,144.5C 459.5,144.833 459.5,145.167 459.5,145.5C 459.5,146.833 460.167,147.5 461.5,147.5C 461.833,147.5 462.167,147.5 462.5,147.5C 462.427,149.027 463.094,150.027 464.5,150.5C 464.5,151.167 464.833,151.5 465.5,151.5C 465.5,152.167 465.833,152.5 466.5,152.5C 466.328,153.492 466.662,154.158 467.5,154.5C 467.5,155.167 467.833,155.5 468.5,155.5C 468.328,156.492 468.662,157.158 469.5,157.5C 480.468,176.09 480.134,194.423 468.5,212.5C 467.662,212.842 467.328,213.508 467.5,214.5C 466.833,214.5 466.5,214.833 466.5,215.5C 465.833,215.5 465.5,215.833 465.5,216.5C 462.568,221.102 458.901,225.102 454.5,228.5C 453.833,228.5 453.5,228.833 453.5,229.5C 452.833,229.5 452.5,229.833 452.5,230.5C 451.833,230.5 451.5,230.833 451.5,231.5C 450.833,231.5 450.5,231.833 450.5,232.5C 448.126,235.874 445.126,238.541 441.5,240.5C 439.797,239.34 439.131,240.007 439.5,242.5C 438.833,240.167 438.167,237.833 437.5,235.5C 437.672,234.508 437.338,233.842 436.5,233.5C 436.5,232.167 436.5,230.833 436.5,229.5C 435.325,229.719 434.325,229.386 433.5,228.5C 431.725,225.262 429.725,222.262 427.5,219.5C 427.5,218.833 427.167,218.5 426.5,218.5C 426.5,217.833 426.167,217.5 425.5,217.5C 425.5,216.833 425.167,216.5 424.5,216.5C 424.5,215.833 424.167,215.5 423.5,215.5C 423.5,214.833 423.167,214.5 422.5,214.5C 422.5,213.833 422.167,213.5 421.5,213.5C 421.5,212.833 421.167,212.5 420.5,212.5C 420.5,211.833 420.167,211.5 419.5,211.5C 417.167,209.833 415.167,207.833 413.5,205.5C 413.5,204.833 413.167,204.5 412.5,204.5C 412.5,203.833 412.167,203.5 411.5,203.5C 411.5,202.833 411.167,202.5 410.5,202.5C 410.5,201.833 410.167,201.5 409.5,201.5C 409.5,200.833 409.167,200.5 408.5,200.5C 408.5,199.833 408.167,199.5 407.5,199.5C 407.5,198.833 407.167,198.5 406.5,198.5C 406.5,197.833 406.167,197.5 405.5,197.5C 403.5,196.167 401.833,194.5 400.5,192.5C 400.5,191.833 400.167,191.5 399.5,191.5C 399.5,190.833 399.167,190.5 398.5,190.5C 398.5,189.833 398.167,189.5 397.5,189.5C 397.5,188.833 397.167,188.5 396.5,188.5C 396.5,187.833 396.167,187.5 395.5,187.5C 395.5,186.833 395.167,186.5 394.5,186.5C 394.5,185.833 394.167,185.5 393.5,185.5C 393.5,184.833 393.167,184.5 392.5,184.5C 392.5,183.833 392.167,183.5 391.5,183.5C 389.5,182.167 387.833,180.5 386.5,178.5C 386.5,177.833 386.167,177.5 385.5,177.5C 385.5,176.833 385.167,176.5 384.5,176.5C 384.5,175.833 384.167,175.5 383.5,175.5C 383.5,174.833 383.167,174.5 382.5,174.5C 382.5,173.833 382.167,173.5 381.5,173.5C 381.5,172.833 381.167,172.5 380.5,172.5C 380.5,171.833 380.167,171.5 379.5,171.5C 379.5,170.833 379.167,170.5 378.5,170.5C 378.5,169.833 378.167,169.5 377.5,169.5C 375.5,168.167 373.833,166.5 372.5,164.5C 373.345,160.985 375.345,158.319 378.5,156.5C 379.167,156.5 379.5,156.167 379.5,155.5C 383.207,150.792 387.54,146.792 392.5,143.5C 393.167,143.5 393.5,143.167 393.5,142.5C 399.041,137.767 405.374,134.767 412.5,133.5 Z M 462.5,147.5 C 463.906,147.973 464.573,148.973 464.5,150.5C 463.094,150.027 462.427,149.027 462.5,147.5 Z M 442.5,257.5 C 442.5,258.167 442.833,258.5 443.5,258.5C 443.5,259.167 443.833,259.5 444.5,259.5C 444.5,260.167 444.833,260.5 445.5,260.5C 445.5,261.167 445.833,261.5 446.5,261.5C 448.167,262.5 449.5,263.833 450.5,265.5C 450.5,266.167 450.833,266.5 451.5,266.5C 451.5,267.167 451.833,267.5 452.5,267.5C 452.5,268.167 452.833,268.5 453.5,268.5C 453.5,269.167 453.833,269.5 454.5,269.5C 454.5,270.167 454.833,270.5 455.5,270.5C 455.5,271.167 455.833,271.5 456.5,271.5C 456.5,272.167 456.833,272.5 457.5,272.5C 457.5,273.167 457.833,273.5 458.5,273.5C 458.5,274.167 458.833,274.5 459.5,274.5C 459.5,275.167 459.833,275.5 460.5,275.5C 460.5,276.167 460.833,276.5 461.5,276.5C 461.5,277.167 461.833,277.5 462.5,277.5C 462.5,278.167 462.833,278.5 463.5,278.5C 463.5,279.167 463.833,279.5 464.5,279.5C 465.659,280.74 466.659,282.074 467.5,283.5C 467.5,284.167 467.833,284.5 468.5,284.5C 479.519,302.373 480.186,320.706 470.5,339.5C 469.675,340.386 468.675,340.719 467.5,340.5C 467.5,341.5 467.5,342.5 467.5,343.5C 466.833,343.5 466.5,343.833 466.5,344.5C 465.094,344.973 464.427,345.973 464.5,347.5C 463.833,347.5 463.5,347.833 463.5,348.5C 462.5,350.167 461.167,351.5 459.5,352.5C 458.26,353.659 456.926,354.659 455.5,355.5C 454.833,355.5 454.5,355.833 454.5,356.5C 453.5,356.5 452.5,356.5 451.5,356.5C 451.439,359.05 450.106,360.55 447.5,361C 430.045,369.123 413.379,367.956 397.5,357.5C 397.158,356.662 396.492,356.328 395.5,356.5C 395.5,355.833 395.167,355.5 394.5,355.5C 394.5,354.833 394.167,354.5 393.5,354.5C 393.158,353.662 392.492,353.328 391.5,353.5C 391.5,352.833 391.167,352.5 390.5,352.5C 388.833,351.5 387.5,350.167 386.5,348.5C 386.5,347.833 386.167,347.5 385.5,347.5C 385.5,346.833 385.167,346.5 384.5,346.5C 384.5,345.833 384.167,345.5 383.5,345.5C 383.5,344.833 383.167,344.5 382.5,344.5C 382.5,343.833 382.167,343.5 381.5,343.5C 381.5,342.833 381.167,342.5 380.5,342.5C 380.5,341.833 380.167,341.5 379.5,341.5C 379.5,340.833 379.167,340.5 378.5,340.5C 378.5,339.833 378.167,339.5 377.5,339.5C 377.5,338.833 377.167,338.5 376.5,338.5C 375.34,337.735 374.34,336.735 373.5,335.5C 374.882,333.451 376.548,331.785 378.5,330.5C 379.167,330.5 379.5,330.167 379.5,329.5C 380.167,329.5 380.5,329.167 380.5,328.5C 381.167,328.5 381.5,328.167 381.5,327.5C 382.167,327.5 382.5,327.167 382.5,326.5C 383.167,326.5 383.5,326.167 383.5,325.5C 384.167,325.5 384.5,325.167 384.5,324.5C 385.167,324.5 385.5,324.167 385.5,323.5C 387.5,320.833 389.833,318.5 392.5,316.5C 393.167,316.5 393.5,316.167 393.5,315.5C 394.167,315.5 394.5,315.167 394.5,314.5C 395.167,314.5 395.5,314.167 395.5,313.5C 396.167,313.5 396.5,313.167 396.5,312.5C 397.167,312.5 397.5,312.167 397.5,311.5C 398.167,311.5 398.5,311.167 398.5,310.5C 399.167,310.5 399.5,310.167 399.5,309.5C 401.5,306.833 403.833,304.5 406.5,302.5C 407.167,302.5 407.5,302.167 407.5,301.5C 408.167,301.5 408.5,301.167 408.5,300.5C 409.167,300.5 409.5,300.167 409.5,299.5C 410.167,299.5 410.5,299.167 410.5,298.5C 411.167,298.5 411.5,298.167 411.5,297.5C 412.167,297.5 412.5,297.167 412.5,296.5C 413.167,296.5 413.5,296.167 413.5,295.5C 415.5,292.833 417.833,290.5 420.5,288.5C 421.167,288.5 421.5,288.167 421.5,287.5C 422.167,287.5 422.5,287.167 422.5,286.5C 423.167,286.5 423.5,286.167 423.5,285.5C 424.167,285.5 424.5,285.167 424.5,284.5C 425.167,284.5 425.5,284.167 425.5,283.5C 426.167,283.5 426.5,283.167 426.5,282.5C 427.167,282.5 427.5,282.167 427.5,281.5C 430.147,277.556 432.813,273.556 435.5,269.5C 436.338,269.158 436.672,268.492 436.5,267.5C 437.338,267.158 437.672,266.492 437.5,265.5C 438.552,261.348 439.386,257.015 440,252.5C 441.294,253.854 441.46,255.188 440.5,256.5C 440.957,257.298 441.624,257.631 442.5,257.5 Z M 466.5,344.5 C 466.573,346.027 465.906,347.027 464.5,347.5C 464.427,345.973 465.094,344.973 466.5,344.5 Z"/></g>
<g><path style="opacity:1" fill="#52d3cc" d="M 49.5,112.5 C 49.8966,111.475 50.5632,111.308 51.5,112C 50.9056,112.464 50.2389,112.631 49.5,112.5 Z"/></g>
<g><path style="opacity:1" fill="#37b8b2" d="M 98.5,114.5 C 101.789,116.158 105.123,117.825 108.5,119.5C 109.29,120.401 110.29,121.068 111.5,121.5C 112.29,122.401 113.29,123.068 114.5,123.5C 122.44,130.103 130.107,137.103 137.5,144.5C 139.167,146.5 140.833,148.5 142.5,150.5C 172.132,180.632 201.965,210.632 232,240.5C 235.703,244.72 236.37,249.386 234,254.5C 202.581,285.417 171.748,316.751 141.5,348.5C 139.833,349.5 138.5,350.833 137.5,352.5C 136.167,353.167 135.167,354.167 134.5,355.5C 133.833,355.5 133.5,355.833 133.5,356.5C 132.167,357.167 131.167,358.167 130.5,359.5C 129.833,359.5 129.5,359.833 129.5,360.5C 128.5,360.833 127.833,361.5 127.5,362.5C 125.833,363.5 124.5,364.833 123.5,366.5C 122.833,366.5 122.5,366.833 122.5,367.5C 121.833,367.5 121.5,367.833 121.5,368.5C 120.833,368.5 120.5,368.833 120.5,369.5C 119.833,369.5 119.5,369.833 119.5,370.5C 117.596,370.738 116.262,371.738 115.5,373.5C 112.996,374.584 110.663,375.917 108.5,377.5C 107.833,377.5 107.5,377.833 107.5,378.5C 106.508,378.328 105.842,378.662 105.5,379.5C 104.508,379.328 103.842,379.662 103.5,380.5C 99.8733,381.321 96.54,382.654 93.5,384.5C 92.209,384.263 91.209,384.596 90.5,385.5C 79.8838,387.573 69.2172,387.907 58.5,386.5C 54.3825,384.796 50.0492,383.463 45.5,382.5C 42.1441,380.401 38.6441,378.401 35,376.5C 34.6667,376.833 34.3333,377.167 34,377.5C 32.4818,374.991 30.3152,373.324 27.5,372.5C 26.0892,370.086 24.0892,368.419 21.5,367.5C 18.8482,363.518 15.8482,359.851 12.5,356.5C 12.0679,355.29 11.4013,354.29 10.5,353.5C 10.0679,352.29 9.40128,351.29 8.5,350.5C 8.67158,349.508 8.33825,348.842 7.5,348.5C 7.06795,347.29 6.40128,346.29 5.5,345.5C 5.29268,342.759 4.29268,340.426 2.5,338.5C 1.78665,334.313 0.786653,330.313 -0.5,326.5C -0.5,317.833 -0.5,309.167 -0.5,300.5C 0.786653,296.687 1.78665,292.687 2.5,288.5C 3.93127,287.22 4.59794,285.553 4.5,283.5C 5.33825,283.158 5.67158,282.492 5.5,281.5C 9.43439,274.633 14.1011,268.3 19.5,262.5C 24.8333,259.167 29.1667,254.833 32.5,249.5C 32.6716,248.508 32.3382,247.842 31.5,247.5C 24.7685,240.773 18.4351,233.773 12.5,226.5C 12.0679,225.29 11.4013,224.29 10.5,223.5C 10.0679,222.29 9.40128,221.29 8.5,220.5C 8.67158,219.508 8.33825,218.842 7.5,218.5C 7.06795,217.29 6.40128,216.29 5.5,215.5C 5.67158,214.508 5.33825,213.842 4.5,213.5C 4.59794,211.447 3.93127,209.78 2.5,208.5C 2.73731,207.209 2.40397,206.209 1.5,205.5C 1.32385,202.273 0.657188,199.273 -0.5,196.5C -0.5,188.167 -0.5,179.833 -0.5,171.5C 0.786653,167.687 1.78665,163.687 2.5,159.5C 3.93127,158.22 4.59794,156.553 4.5,154.5C 5.33825,154.158 5.67158,153.492 5.5,152.5C 6.33825,152.158 6.67158,151.492 6.5,150.5C 9.12236,148.276 10.289,145.609 10,142.5C 10.3333,142.833 10.6667,143.167 11,143.5C 16.6949,135.306 23.5283,128.306 31.5,122.5C 36.5247,119.792 41.5247,117.125 46.5,114.5C 63.8333,109.167 81.1667,109.167 98.5,114.5 Z M 80.5,132.5 C 82.9052,133.768 85.5718,134.435 88.5,134.5C 93.7528,135.793 98.4194,138.126 102.5,141.5C 102.5,142.167 102.833,142.5 103.5,142.5C 103.842,143.338 104.508,143.672 105.5,143.5C 105.5,144.167 105.833,144.5 106.5,144.5C 106.5,145.167 106.833,145.5 107.5,145.5C 107.5,146.167 107.833,146.5 108.5,146.5C 108.5,147.167 108.833,147.5 109.5,147.5C 109.5,148.167 109.833,148.5 110.5,148.5C 110.5,149.167 110.833,149.5 111.5,149.5C 111.5,150.167 111.833,150.5 112.5,150.5C 114.167,151.5 115.5,152.833 116.5,154.5C 116.5,155.167 116.833,155.5 117.5,155.5C 117.5,156.167 117.833,156.5 118.5,156.5C 118.5,157.167 118.833,157.5 119.5,157.5C 119.5,158.167 119.833,158.5 120.5,158.5C 120.5,159.167 120.833,159.5 121.5,159.5C 121.5,160.167 121.833,160.5 122.5,160.5C 122.5,161.167 122.833,161.5 123.5,161.5C 123.5,162.167 123.833,162.5 124.5,162.5C 125.66,163.265 126.66,164.265 127.5,165.5C 125.785,167.882 123.785,169.882 121.5,171.5C 120.833,171.5 120.5,171.833 120.5,172.5C 119.833,172.5 119.5,172.833 119.5,173.5C 118.833,173.5 118.5,173.833 118.5,174.5C 117.833,174.5 117.5,174.833 117.5,175.5C 116.833,175.5 116.5,175.833 116.5,176.5C 113.833,179.833 110.833,182.833 107.5,185.5C 106.833,185.5 106.5,185.833 106.5,186.5C 105.833,186.5 105.5,186.833 105.5,187.5C 104.833,187.5 104.5,187.833 104.5,188.5C 103.833,188.5 103.5,188.833 103.5,189.5C 102.833,189.5 102.5,189.833 102.5,190.5C 99.8333,193.833 96.8333,196.833 93.5,199.5C 92.8333,199.5 92.5,199.833 92.5,200.5C 91.8333,200.5 91.5,200.833 91.5,201.5C 90.8333,201.5 90.5,201.833 90.5,202.5C 89.8333,202.5 89.5,202.833 89.5,203.5C 88.8333,203.5 88.5,203.833 88.5,204.5C 85.8333,207.833 82.8333,210.833 79.5,213.5C 78.8333,213.5 78.5,213.833 78.5,214.5C 77.8333,214.5 77.5,214.833 77.5,215.5C 76.8333,215.5 76.5,215.833 76.5,216.5C 75.8333,216.5 75.5,216.833 75.5,217.5C 74.8333,217.5 74.5,217.833 74.5,218.5C 69.9281,223.263 66.2615,228.596 63.5,234.5C 62.596,235.209 62.2627,236.209 62.5,237.5C 61.507,245.984 61.1736,254.651 61.5,263.5C 60.3492,259.094 59.0159,254.761 57.5,250.5C 58.2587,245.687 56.9253,241.687 53.5,238.5C 53.5,237.833 53.1667,237.5 52.5,237.5C 52.5,236.833 52.1667,236.5 51.5,236.5C 51.5,235.833 51.1667,235.5 50.5,235.5C 50.5,234.833 50.1667,234.5 49.5,234.5C 49.5,233.833 49.1667,233.5 48.5,233.5C 48.5,232.833 48.1667,232.5 47.5,232.5C 47.5,231.833 47.1667,231.5 46.5,231.5C 46.5,230.833 46.1667,230.5 45.5,230.5C 45.5,229.833 45.1667,229.5 44.5,229.5C 44.5,228.833 44.1667,228.5 43.5,228.5C 41.8333,227.5 40.5,226.167 39.5,224.5C 39.5,223.833 39.1667,223.5 38.5,223.5C 38.5,222.833 38.1667,222.5 37.5,222.5C 37.5,221.833 37.1667,221.5 36.5,221.5C 36.5,220.833 36.1667,220.5 35.5,220.5C 35.5,219.833 35.1667,219.5 34.5,219.5C 34.5,218.833 34.1667,218.5 33.5,218.5C 33.5,217.833 33.1667,217.5 32.5,217.5C 32.5,216.833 32.1667,216.5 31.5,216.5C 31.6716,215.508 31.3382,214.842 30.5,214.5C 26.4615,209.425 23.7948,203.759 22.5,197.5C 22.7678,195.901 22.4345,194.568 21.5,193.5C 21.5,187.167 21.5,180.833 21.5,174.5C 22.4345,173.432 22.7678,172.099 22.5,170.5C 23.404,169.791 23.7373,168.791 23.5,167.5C 24.404,166.791 24.7373,165.791 24.5,164.5C 26.2125,158.744 29.2125,153.744 33.5,149.5C 34.1667,149.5 34.5,149.167 34.5,148.5C 35.1667,148.5 35.5,148.167 35.5,147.5C 36.1667,147.5 36.5,147.167 36.5,146.5C 37.1667,146.5 37.5,146.167 37.5,145.5C 38.1667,145.5 38.5,145.167 38.5,144.5C 39.1667,144.5 39.5,144.167 39.5,143.5C 51.3296,133.565 64.9963,129.898 80.5,132.5 Z M 80.5,132.5 C 83.4951,132.294 86.1617,132.96 88.5,134.5C 85.5718,134.435 82.9052,133.768 80.5,132.5 Z M 57.5,250.5 C 59.0159,254.761 60.3492,259.094 61.5,263.5C 61.8333,263.5 62.1667,263.5 62.5,263.5C 62.3284,264.492 62.6618,265.158 63.5,265.5C 66.0547,270.732 69.0547,275.732 72.5,280.5C 72.5,281.167 72.8333,281.5 73.5,281.5C 73.5,282.167 73.8333,282.5 74.5,282.5C 74.5,283.167 74.8333,283.5 75.5,283.5C 75.5,284.167 75.8333,284.5 76.5,284.5C 76.5,285.167 76.8333,285.5 77.5,285.5C 77.5,286.167 77.8333,286.5 78.5,286.5C 78.5,287.167 78.8333,287.5 79.5,287.5C 79.5,288.167 79.8333,288.5 80.5,288.5C 82.8333,290.167 84.8333,292.167 86.5,294.5C 86.5,295.167 86.8333,295.5 87.5,295.5C 87.5,296.167 87.8333,296.5 88.5,296.5C 88.5,297.167 88.8333,297.5 89.5,297.5C 89.5,298.167 89.8333,298.5 90.5,298.5C 90.5,299.167 90.8333,299.5 91.5,299.5C 91.5,300.167 91.8333,300.5 92.5,300.5C 92.5,301.167 92.8333,301.5 93.5,301.5C 93.5,302.167 93.8333,302.5 94.5,302.5C 96.8333,304.167 98.8333,306.167 100.5,308.5C 100.5,309.167 100.833,309.5 101.5,309.5C 101.5,310.167 101.833,310.5 102.5,310.5C 102.5,311.167 102.833,311.5 103.5,311.5C 103.5,312.167 103.833,312.5 104.5,312.5C 104.5,313.167 104.833,313.5 105.5,313.5C 105.5,314.167 105.833,314.5 106.5,314.5C 106.5,315.167 106.833,315.5 107.5,315.5C 107.5,316.167 107.833,316.5 108.5,316.5C 110.833,318.167 112.833,320.167 114.5,322.5C 114.5,323.167 114.833,323.5 115.5,323.5C 115.5,324.167 115.833,324.5 116.5,324.5C 116.5,325.167 116.833,325.5 117.5,325.5C 117.5,326.167 117.833,326.5 118.5,326.5C 118.5,327.167 118.833,327.5 119.5,327.5C 119.5,328.167 119.833,328.5 120.5,328.5C 120.5,329.167 120.833,329.5 121.5,329.5C 121.5,330.167 121.833,330.5 122.5,330.5C 126.5,332.5 126.5,334.5 122.5,336.5C 121.833,336.5 121.5,336.833 121.5,337.5C 120.833,337.5 120.5,337.833 120.5,338.5C 119.833,338.5 119.5,338.833 119.5,339.5C 118.833,339.5 118.5,339.833 118.5,340.5C 117.833,340.5 117.5,340.833 117.5,341.5C 116.833,341.5 116.5,341.833 116.5,342.5C 115.833,342.5 115.5,342.833 115.5,343.5C 114.833,343.5 114.5,343.833 114.5,344.5C 112.833,346.833 110.833,348.833 108.5,350.5C 107.833,350.5 107.5,350.833 107.5,351.5C 106.833,351.5 106.5,351.833 106.5,352.5C 105.833,352.5 105.5,352.833 105.5,353.5C 104.26,354.659 102.926,355.659 101.5,356.5C 82.6948,369.363 63.6948,369.696 44.5,357.5C 44.1583,356.662 43.4916,356.328 42.5,356.5C 42.5,355.833 42.1667,355.5 41.5,355.5C 37.2718,353.027 33.9384,349.693 31.5,345.5C 27.1824,339.862 24.1824,333.529 22.5,326.5C 23.1386,325.903 23.472,325.07 23.5,324C 21.7002,317.299 21.0335,310.466 21.5,303.5C 22.3816,295.501 25.3816,288.501 30.5,282.5C 31.3382,282.158 31.6716,281.492 31.5,280.5C 32.1667,280.5 32.5,280.167 32.5,279.5C 33.1667,279.5 33.5,279.167 33.5,278.5C 34.1667,278.5 34.5,278.167 34.5,277.5C 35.1667,277.5 35.5,277.167 35.5,276.5C 36.8333,274.5 38.5,272.833 40.5,271.5C 41.1667,271.5 41.5,271.167 41.5,270.5C 42.1667,270.5 42.5,270.167 42.5,269.5C 43.1667,269.5 43.5,269.167 43.5,268.5C 44.1667,268.5 44.5,268.167 44.5,267.5C 45.1667,267.5 45.5,267.167 45.5,266.5C 46.1667,266.5 46.5,266.167 46.5,265.5C 47.1667,265.5 47.5,265.167 47.5,264.5C 48.1667,264.5 48.5,264.167 48.5,263.5C 49.1667,263.5 49.5,263.167 49.5,262.5C 49.8333,262.5 50.1667,262.5 50.5,262.5C 52.5,262.5 53.5,261.5 53.5,259.5C 53.5,259.167 53.5,258.833 53.5,258.5C 55.873,256.421 57.2064,253.754 57.5,250.5 Z M 21.5,303.5 C 21.0335,310.466 21.7002,317.299 23.5,324C 23.472,325.07 23.1386,325.903 22.5,326.5C 18.9934,318.952 18.6601,311.285 21.5,303.5 Z"/></g>
<g><path style="opacity:1" fill="#42b4ad" d="M 93.5,112.5 C 93.8966,111.475 94.5632,111.308 95.5,112C 94.9056,112.464 94.2389,112.631 93.5,112.5 Z"/></g>
<g><path style="opacity:1" fill="#38bbb4" d="M 121.5,111.5 C 120.833,112.167 120.833,112.167 121.5,111.5 Z"/></g>
<g><path style="opacity:1" fill="#24605c" d="M 351.5,107.5 C 351.833,107.5 352.167,107.5 352.5,107.5C 350.167,111.833 346.833,115.167 342.5,117.5C 342.5,117.167 342.5,116.833 342.5,116.5C 343.167,116.5 343.5,116.167 343.5,115.5C 344.167,115.5 344.5,115.167 344.5,114.5C 346.833,112.833 348.833,110.833 350.5,108.5C 351.167,108.5 351.5,108.167 351.5,107.5 Z"/></g>
<g><path style="opacity:1" fill="#64f3ec" d="M 404.5,112.5 C 403.833,111.167 403.833,111.167 404.5,112.5 Z"/></g>
<g><path style="opacity:1" fill="#64f3ec" d="M 446.5,111.5 C 447.833,112.167 447.833,112.167 446.5,111.5 Z"/></g>
<g><path style="opacity:1" fill="#64f3ec" d="M 47.5,112.5 C 48.8333,113.167 48.8333,113.167 47.5,112.5 Z"/></g>
<g><path style="opacity:1" fill="#42b4ad" d="M 98.5,113.5 C 97.7611,113.631 97.0944,113.464 96.5,113C 97.4368,112.308 98.1034,112.475 98.5,113.5 Z"/></g>
<g><path style="opacity:1" fill="#64f3ec" d="M 401.5,113.5 C 400.761,113.631 400.094,113.464 399.5,113C 400.437,112.308 401.103,112.475 401.5,113.5 Z"/></g>
<g><path style="opacity:1" fill="#32968e" d="M 449.5,112.5 C 450.833,113.167 450.833,113.167 449.5,112.5 Z"/></g>
<g><path style="opacity:1" fill="#64f3ec" d="M 46.5,114.5 C 45.7611,114.631 45.0944,114.464 44.5,114C 45.4368,113.308 46.1034,113.475 46.5,114.5 Z"/></g>
<g><path style="opacity:1" fill="#42b4ad" d="M 98.5,114.5 C 98.5,114.167 98.5,113.833 98.5,113.5C 101.167,113.833 101.167,114.167 98.5,114.5 Z"/></g>
<g><path style="opacity:1" fill="#36aea8" d="M 396.5,114.5 C 396.897,113.475 397.563,113.308 398.5,114C 397.906,114.464 397.239,114.631 396.5,114.5 Z"/></g>
<g><path style="opacity:1" fill="#64f3ec" d="M 451.5,113.5 C 452.833,114.167 452.833,114.167 451.5,113.5 Z"/></g>
<g><path style="opacity:1" fill="#52d3cc" d="M 41.5,115.5 C 41.8966,114.475 42.5632,114.308 43.5,115C 42.9056,115.464 42.2389,115.631 41.5,115.5 Z"/></g>
<g><path style="opacity:1" fill="#38bbb4" d="M 101.5,114.5 C 102.833,115.167 102.833,115.167 101.5,114.5 Z"/></g>
<g><path style="opacity:1" fill="#32968e" d="M 123.5,114.5 C 122.833,115.167 122.833,115.167 123.5,114.5 Z"/></g>
<g><path style="opacity:1" fill="#57faf2" d="M 396.5,114.5 C 396.5,114.833 396.5,115.167 396.5,115.5C 395.83,115.019 395.83,114.685 396.5,114.5 Z"/></g>
<g><path style="opacity:1" fill="#64f3ec" d="M 372.5,117.5 C 373.833,118.167 373.833,118.167 372.5,117.5 Z"/></g>
<g><path style="opacity:1" fill="#44c8c7" d="M 108.5,118.5 C 109.833,119.167 109.833,119.167 108.5,118.5 Z"/></g>
<g><path style="opacity:1" fill="#57faf2" d="M 371.5,118.5 C 371.833,118.5 372.167,118.5 372.5,118.5C 372.315,119.17 371.981,119.17 371.5,118.5 Z"/></g>
<g><path style="opacity:1" fill="#64f3ec" d="M 126.5,120.5 C 125.833,119.167 125.833,119.167 126.5,120.5 Z"/></g>
<g><path style="opacity:1" fill="#57faf2" d="M 370.5,119.5 C 370.833,119.5 371.167,119.5 371.5,119.5C 371.315,120.17 370.981,120.17 370.5,119.5 Z"/></g>
<g><path style="opacity:1" fill="#64f3ec" d="M 111.5,120.5 C 112.833,121.167 112.833,121.167 111.5,120.5 Z"/></g>
<g><path style="opacity:1" fill="#64f3ec" d="M 126.5,120.5 C 127.833,121.167 127.833,121.167 126.5,120.5 Z"/></g>
<g><path style="opacity:1" fill="#64f3ec" d="M 31.5,122.5 C 30.8333,121.167 30.8333,121.167 31.5,122.5 Z"/></g>
<g><path style="opacity:1" fill="#25625f" d="M 341.5,117.5 C 341.833,117.5 342.167,117.5 342.5,117.5C 340.275,121.235 337.442,124.568 334,127.5C 332.583,126.922 331.75,125.922 331.5,124.5C 333.834,125.841 335.501,125.174 336.5,122.5C 337.167,122.5 337.5,122.167 337.5,121.5C 338.167,121.5 338.5,121.167 338.5,120.5C 339.167,120.5 339.5,120.167 339.5,119.5C 340.167,119.5 340.5,119.167 340.5,118.5C 341.167,118.5 341.5,118.167 341.5,117.5 Z"/></g>
<g><path style="opacity:1" fill="#45bab3" d="M 369.5,120.5 C 369.833,120.5 370.167,120.5 370.5,120.5C 370.573,122.027 369.906,123.027 368.5,123.5C 368.5,122.833 368.5,122.167 368.5,121.5C 369.167,121.5 369.5,121.167 369.5,120.5 Z"/></g>
<g><path style="opacity:1" fill="#32968e" d="M 114.5,122.5 C 115.833,123.167 115.833,123.167 114.5,122.5 Z"/></g>
<g><path style="opacity:1" fill="#64f3ec" d="M 467.5,122.5 C 468.833,123.167 468.833,123.167 467.5,122.5 Z"/></g>
<g><path style="opacity:1" fill="#64f3ec" d="M 130.5,123.5 C 129.833,124.167 129.833,124.167 130.5,123.5 Z"/></g>
<g><path style="opacity:1" fill="#32968e" d="M 368.5,123.5 C 367.833,124.167 367.833,124.167 368.5,123.5 Z"/></g>
<g><path style="opacity:1" fill="#64f3ec" d="M 120.5,126.5 C 119.833,125.167 119.833,125.167 120.5,126.5 Z"/></g>
<g><path style="opacity:1" fill="#32968e" d="M 364.5,125.5 C 365.833,126.167 365.833,126.167 364.5,125.5 Z"/></g>
<g><path style="opacity:1" fill="#64f3ec" d="M 120.5,126.5 C 121.833,127.167 121.833,127.167 120.5,126.5 Z"/></g>
<g><path style="opacity:1" fill="#32968e" d="M 362.5,127.5 C 363.833,128.167 363.833,128.167 362.5,127.5 Z"/></g>
<g><path style="opacity:1" fill="#32968e" d="M 474.5,127.5 C 475.833,128.167 475.833,128.167 474.5,127.5 Z"/></g>
<g><path style="opacity:1" fill="#32968e" d="M 361.5,128.5 C 361.833,128.5 362.167,128.5 362.5,128.5C 362.315,129.17 361.981,129.17 361.5,128.5 Z"/></g>
<g><path style="opacity:1" fill="#32968e" d="M 137.5,130.5 C 136.833,131.167 136.833,131.167 137.5,130.5 Z"/></g>
<g><path style="opacity:1" fill="#32968e" d="M 360.5,130.5 C 361.833,131.167 361.833,131.167 360.5,130.5 Z"/></g>
<g><path style="opacity:1" fill="#32968e" d="M 360.5,131.5 C 359.833,132.167 359.833,132.167 360.5,131.5 Z"/></g>
<g><path style="opacity:1" fill="#32968e" d="M 359.5,132.5 C 358.833,133.167 358.833,133.167 359.5,132.5 Z"/></g>
<g><path style="opacity:1" fill="#32968e" d="M 479.5,132.5 C 480.833,133.167 480.833,133.167 479.5,132.5 Z"/></g>
<g><path style="opacity:1" fill="#32968e" d="M 358.5,133.5 C 357.833,134.167 357.833,134.167 358.5,133.5 Z"/></g>
<g><path style="opacity:1" fill="#32968e" d="M 357.5,134.5 C 356.833,135.167 356.833,135.167 357.5,134.5 Z"/></g>
<g><path style="opacity:1" fill="#32968e" d="M 356.5,135.5 C 355.833,136.167 355.833,136.167 356.5,135.5 Z"/></g>
<g><path style="opacity:1" fill="#32968e" d="M 355.5,136.5 C 354.833,137.167 354.833,137.167 355.5,136.5 Z"/></g>
<g><path style="opacity:1" fill="#32968e" d="M 354.5,137.5 C 353.833,138.167 353.833,138.167 354.5,137.5 Z"/></g>
<g><path style="opacity:1" fill="#32968e" d="M 483.5,137.5 C 484.833,138.167 484.833,138.167 483.5,137.5 Z"/></g>
<g><path style="opacity:1" fill="#32968e" d="M 362.5,139.5 C 363.833,140.167 363.833,140.167 362.5,139.5 Z"/></g>
<g><path style="opacity:1" fill="#32968e" d="M 362.5,140.5 C 361.833,141.167 361.833,141.167 362.5,140.5 Z"/></g>
<g><path style="opacity:1" fill="#f6f8f8" d="M 348.5,141.5 C 351.167,143.833 353.833,146.167 356.5,148.5C 325.919,180.583 294.752,212.249 263,243.5C 261,246.833 261,250.167 263,253.5C 266.038,256.203 268.705,259.203 271,262.5C 300.419,291.417 329.252,320.751 357.5,350.5C 357.167,351.167 356.833,351.833 356.5,352.5C 355.833,352.5 355.5,352.833 355.5,353.5C 354.833,353.5 354.5,353.833 354.5,354.5C 353.833,354.5 353.5,354.833 353.5,355.5C 352.833,355.5 352.5,355.833 352.5,356.5C 351.833,356.833 351.167,357.167 350.5,357.5C 318.417,326.919 286.751,295.752 255.5,264C 251.167,260.667 246.833,260.667 242.5,264C 211.604,295.397 180.27,326.231 148.5,356.5C 146.167,353.833 143.833,351.167 141.5,348.5C 171.748,316.751 202.581,285.417 234,254.5C 236.37,249.386 235.703,244.72 232,240.5C 201.965,210.632 172.132,180.632 142.5,150.5C 145.5,148.167 148.167,145.5 150.5,142.5C 180.965,172.465 211.299,202.632 241.5,233C 245.566,235.958 249.899,236.292 254.5,234C 285.417,202.581 316.751,171.748 348.5,141.5 Z"/></g>
<g><path style="opacity:1" fill="#32968e" d="M 137.5,143.5 C 138.833,144.167 138.833,144.167 137.5,143.5 Z"/></g>
<g><path style="opacity:1" fill="#4ac3bc" d="M 459.5,145.5 C 459.833,145.5 460.167,145.5 460.5,145.5C 460.5,146.167 460.833,146.5 461.5,146.5C 461.5,146.833 461.5,147.167 461.5,147.5C 460.167,147.5 459.5,146.833 459.5,145.5 Z"/></g>
<g><path style="opacity:1" fill="#36aea8" d="M 6.5,150.5 C 5.47498,150.103 5.30831,149.437 6,148.5C 6.46434,149.094 6.63101,149.761 6.5,150.5 Z"/></g>
<g><path style="opacity:1" fill="#3db7b4" d="M 491.5,151.5 C 491.369,150.761 491.536,150.094 492,149.5C 492.692,150.437 492.525,151.103 491.5,151.5 Z"/></g>
<g><path style="opacity:1" fill="#44c8c7" d="M 5.5,152.5 C 4.83333,151.167 4.83333,151.167 5.5,152.5 Z"/></g>
<g><path style="opacity:1" fill="#44c8c7" d="M 493.5,153.5 C 492.833,152.167 492.833,152.167 493.5,153.5 Z"/></g>
<g><path style="opacity:1" fill="#38bbb4" d="M 4.5,154.5 C 3.83333,153.167 3.83333,153.167 4.5,154.5 Z"/></g>
<g><path style="opacity:1" fill="#36aea8" d="M 493.5,153.5 C 494.525,153.897 494.692,154.563 494,155.5C 493.536,154.906 493.369,154.239 493.5,153.5 Z"/></g>
<g><path style="opacity:1" fill="#36aea8" d="M 3.5,154.5 C 3.63101,155.239 3.46434,155.906 3,156.5C 2.30831,155.563 2.47498,154.897 3.5,154.5 Z"/></g>
<g><path style="opacity:1" fill="#64f3ec" d="M 2.5,159.5 C 1.47498,159.103 1.30831,158.437 2,157.5C 2.46434,158.094 2.63101,158.761 2.5,159.5 Z"/></g>
<g><path style="opacity:1" fill="#4ce4dd" d="M 495.5,158.5 C 495.167,158.5 494.833,158.5 494.5,158.5C 494.833,155.833 495.167,155.833 495.5,158.5 Z"/></g>
<g><path style="opacity:1" fill="#36aea8" d="M 495.5,158.5 C 496.525,158.897 496.692,159.563 496,160.5C 495.536,159.906 495.369,159.239 495.5,158.5 Z"/></g>
<g><path style="opacity:1" fill="#64f3ec" d="M 0.5,160.5 C 1.83333,161.167 1.83333,161.167 0.5,160.5 Z"/></g>
<g><path style="opacity:1" fill="#47cdc7" d="M 496.5,161.5 C 497.525,161.897 497.692,162.563 497,163.5C 496.536,162.906 496.369,162.239 496.5,161.5 Z"/></g>
<g><path style="opacity:1" fill="#3eaca5" d="M 497.5,164.5 C 498.573,165.251 498.74,166.251 498,167.5C 497.517,166.552 497.351,165.552 497.5,164.5 Z"/></g>
<g><path style="opacity:1" fill="#64f3ec" d="M 499.5,170.5 C 499.5,171.167 499.5,171.833 499.5,172.5C 498.167,171.833 498.167,171.167 499.5,170.5 Z"/></g>
<g><path style="opacity:1" fill="#64f3ec" d="M 499.5,195.5 C 499.5,196.167 499.5,196.833 499.5,197.5C 498.167,196.833 498.167,196.167 499.5,195.5 Z"/></g>
<g><path style="opacity:1" fill="#42b4ad" d="M 497.5,200.5 C 498.525,200.897 498.692,201.563 498,202.5C 497.536,201.906 497.369,201.239 497.5,200.5 Z"/></g>
<g><path style="opacity:1" fill="#38bbb4" d="M 496.5,204.5 C 497.833,205.167 497.833,205.167 496.5,204.5 Z"/></g>
<g><path style="opacity:1" fill="#64f3ec" d="M 1.5,205.5 C 1.63101,206.239 1.46434,206.906 1,207.5C 0.308314,206.563 0.474981,205.897 1.5,205.5 Z"/></g>
<g><path style="opacity:1" fill="#47cdc7" d="M 495.5,206.5 C 496.525,206.897 496.692,207.563 496,208.5C 495.536,207.906 495.369,207.239 495.5,206.5 Z"/></g>
<g><path style="opacity:1" fill="#64f3ec" d="M 2.5,208.5 C 1.83333,209.167 1.83333,209.167 2.5,208.5 Z"/></g>
<g><path style="opacity:1" fill="#42cfc9" d="M 494.5,209.5 C 495.833,210.167 495.833,210.833 494.5,211.5C 494.5,210.833 494.5,210.167 494.5,209.5 Z"/></g>
<g><path style="opacity:1" fill="#38bbb4" d="M 2.5,211.5 C 3.83333,212.167 3.83333,212.167 2.5,211.5 Z"/></g>
<g><path style="opacity:1" fill="#41bfb8" d="M 493.5,211.5 C 493.833,211.5 494.167,211.5 494.5,211.5C 494.737,212.791 494.404,213.791 493.5,214.5C 493.5,213.5 493.5,212.5 493.5,211.5 Z"/></g>
<g><path style="opacity:1" fill="#34a29b" d="M 4.5,213.5 C 4.5,214.167 4.5,214.833 4.5,215.5C 3.16667,214.833 3.16667,214.167 4.5,213.5 Z"/></g>
<g><path style="opacity:1" fill="#38bbb4" d="M 492.5,214.5 C 492.833,214.5 493.167,214.5 493.5,214.5C 493.315,215.17 492.981,215.17 492.5,214.5 Z"/></g>
<g><path style="opacity:1" fill="#3db6af" d="M 4.5,215.5 C 4.83333,215.5 5.16667,215.5 5.5,215.5C 5.16667,218.167 4.83333,218.167 4.5,215.5 Z"/></g>
<g><path style="opacity:1" fill="#38bbb4" d="M 491.5,216.5 C 492.833,217.167 492.833,217.167 491.5,216.5 Z"/></g>
<g><path style="opacity:1" fill="#47cdc7" d="M 7.5,218.5 C 7.5,219.167 7.5,219.833 7.5,220.5C 6.16667,219.833 6.16667,219.167 7.5,218.5 Z"/></g>
<g><path style="opacity:1" fill="#3db6af" d="M 489.5,219.5 C 489.833,219.5 490.167,219.5 490.5,219.5C 490.672,220.492 490.338,221.158 489.5,221.5C 489.5,220.833 489.5,220.167 489.5,219.5 Z"/></g>
<g><path style="opacity:1" fill="#3db6af" d="M 7.5,220.5 C 7.83333,220.5 8.16667,220.5 8.5,220.5C 8.16667,223.167 7.83333,223.167 7.5,220.5 Z"/></g>
<g><path style="opacity:1" fill="#32968e" d="M 488.5,221.5 C 488.833,221.5 489.167,221.5 489.5,221.5C 489.315,222.17 488.981,222.17 488.5,221.5 Z"/></g>
<g><path style="opacity:1" fill="#42b4ad" d="M 10.5,223.5 C 10.631,224.239 10.4643,224.906 10,225.5C 9.30831,224.563 9.47498,223.897 10.5,223.5 Z"/></g>
<g><path style="opacity:1" fill="#64f3ec" d="M 12.5,226.5 C 11.8333,227.167 11.8333,227.167 12.5,226.5 Z"/></g>
<g><path style="opacity:1" fill="#64f3ec" d="M 484.5,228.5 C 485.833,229.167 485.833,229.167 484.5,228.5 Z"/></g>
<g><path style="opacity:1" fill="#64f3ec" d="M 483.5,229.5 C 483.833,229.5 484.167,229.5 484.5,229.5C 484.315,230.17 483.981,230.17 483.5,229.5 Z"/></g>
<g><path style="opacity:1" fill="#64f3ec" d="M 482.5,230.5 C 482.833,230.5 483.167,230.5 483.5,230.5C 483.315,231.17 482.981,231.17 482.5,230.5 Z"/></g>
<g><path style="opacity:1" fill="#64f3ec" d="M 14.5,231.5 C 15.8333,232.167 15.8333,232.167 14.5,231.5 Z"/></g>
<g><path style="opacity:1" fill="#32968e" d="M 480.5,233.5 C 481.833,234.167 481.833,234.167 480.5,233.5 Z"/></g>
<g><path style="opacity:1" fill="#64f3ec" d="M 480.5,234.5 C 479.833,235.167 479.833,235.167 480.5,234.5 Z"/></g>
<g><path style="opacity:1" fill="#64f3ec" d="M 476.5,236.5 C 477.833,237.167 477.833,237.167 476.5,236.5 Z"/></g>
<g><path style="opacity:1" fill="#64f3ec" d="M 475.5,237.5 C 475.833,237.5 476.167,237.5 476.5,237.5C 476.315,238.17 475.981,238.17 475.5,237.5 Z"/></g>
<g><path style="opacity:1" fill="#64f3ec" d="M 474.5,238.5 C 474.833,238.5 475.167,238.5 475.5,238.5C 475.315,239.17 474.981,239.17 474.5,238.5 Z"/></g>
<g><path style="opacity:1" fill="#64f3ec" d="M 473.5,239.5 C 473.833,239.5 474.167,239.5 474.5,239.5C 474.315,240.17 473.981,240.17 473.5,239.5 Z"/></g>
<g><path style="opacity:1" fill="#49d5d0" d="M 441.5,240.5 C 441.5,240.833 441.5,241.167 441.5,241.5C 440.833,241.5 440.5,241.833 440.5,242.5C 440.167,242.5 439.833,242.5 439.5,242.5C 439.131,240.007 439.797,239.34 441.5,240.5 Z"/></g>
<g><path style="opacity:1" fill="#64f3ec" d="M 472.5,240.5 C 472.833,240.5 473.167,240.5 473.5,240.5C 473.315,241.17 472.981,241.17 472.5,240.5 Z"/></g>
<g><path style="opacity:1" fill="#64f3ec" d="M 471.5,242.5 C 472.833,243.167 472.833,243.167 471.5,242.5 Z"/></g>
<g><path style="opacity:1" fill="#32968e" d="M 471.5,243.5 C 470.833,244.167 470.833,244.167 471.5,243.5 Z"/></g>
<g><path style="opacity:1" fill="#54e3dd" d="M 59.5,242.5 C 60.6291,244.628 60.7958,246.961 60,249.5C 58.4824,247.187 58.3157,244.854 59.5,242.5 Z"/></g>
<g><path style="opacity:1" fill="#64f3ec" d="M 470.5,244.5 C 469.833,245.167 469.833,245.167 470.5,244.5 Z"/></g>
<g><path style="opacity:1" fill="#64f3ec" d="M 469.5,245.5 C 468.833,246.167 468.833,246.167 469.5,245.5 Z"/></g>
<g><path style="opacity:1" fill="#64f3ec" d="M 468.5,246.5 C 467.833,247.167 467.833,247.167 468.5,246.5 Z"/></g>
<g><path style="opacity:1" fill="#64f3ec" d="M 467.5,247.5 C 466.833,248.167 466.833,248.167 467.5,247.5 Z"/></g>
<g><path style="opacity:1" fill="#42b4ad" d="M 31.5,247.5 C 31.5,248.167 31.5,248.833 31.5,249.5C 30.1667,248.833 30.1667,248.167 31.5,247.5 Z"/></g>
<g><path style="opacity:1" fill="#286966" d="M 31.5,249.5 C 31.8333,249.5 32.1667,249.5 32.5,249.5C 29.1667,254.833 24.8333,259.167 19.5,262.5C 23.5,258.167 27.5,253.833 31.5,249.5 Z"/></g>
<g><path style="opacity:1" fill="#45b9b3" d="M 52.5,259.5 C 52.8333,259.5 53.1667,259.5 53.5,259.5C 53.5,261.5 52.5,262.5 50.5,262.5C 50.5,262.167 50.5,261.833 50.5,261.5C 51.1667,261.5 51.5,261.167 51.5,260.5C 52.1667,260.5 52.5,260.167 52.5,259.5 Z"/></g>
<g><path style="opacity:1" fill="#64f3ec" d="M 481.5,264.5 C 480.833,263.167 480.833,263.167 481.5,264.5 Z"/></g>
<g><path style="opacity:1" fill="#37b8b2" d="M 350.5,357.5 C 355.833,363.5 361.5,369.167 367.5,374.5C 368.419,377.089 370.086,379.089 372.5,380.5C 373.669,383.511 375.336,386.178 377.5,388.5C 377.8,391.639 379.133,393.305 381.5,393.5C 381.167,394.167 380.833,394.833 380.5,395.5C 381.879,398.259 383.213,400.925 384.5,403.5C 386.012,410.581 387.012,417.748 387.5,425C 387.012,432.252 386.012,439.419 384.5,446.5C 383.596,447.209 383.263,448.209 383.5,449.5C 382.662,449.842 382.328,450.508 382.5,451.5C 381.596,452.209 381.263,453.209 381.5,454.5C 380.662,454.842 380.328,455.508 380.5,456.5C 379.662,456.842 379.328,457.508 379.5,458.5C 378.662,458.842 378.328,459.508 378.5,460.5C 377.833,460.5 377.5,460.833 377.5,461.5C 374.92,464.989 372.587,468.656 370.5,472.5C 369.833,472.5 369.5,472.833 369.5,473.5C 368.833,473.5 368.5,473.833 368.5,474.5C 367.833,474.5 367.5,474.833 367.5,475.5C 366.833,475.5 366.5,475.833 366.5,476.5C 365.833,476.5 365.5,476.833 365.5,477.5C 364.833,477.5 364.5,477.833 364.5,478.5C 363.833,478.5 363.5,478.833 363.5,479.5C 362.833,479.5 362.5,479.833 362.5,480.5C 361.833,480.5 361.5,480.833 361.5,481.5C 358.32,483.255 355.32,485.255 352.5,487.5C 351.167,487.833 351.167,488.167 352.5,488.5C 352.158,489.338 351.492,489.672 350.5,489.5C 350.167,488.167 349.833,488.167 349.5,489.5C 348.508,489.328 347.842,489.662 347.5,490.5C 346.508,490.328 345.842,490.662 345.5,491.5C 344.508,491.328 343.842,491.662 343.5,492.5C 342.508,492.328 341.842,492.662 341.5,493.5C 339.447,493.402 337.78,494.069 336.5,495.5C 333.848,495.41 331.515,496.076 329.5,497.5C 318.833,498.833 308.167,498.833 297.5,497.5C 296.432,496.566 295.099,496.232 293.5,496.5C 287.568,493.872 281.568,491.205 275.5,488.5C 272.525,485.677 269.192,483.344 265.5,481.5C 261.5,476.833 257.167,472.5 252.5,468.5C 251.833,467.167 250.833,466.167 249.5,465.5C 249.103,464.475 248.437,464.308 247.5,465C 245.294,467.037 243.294,469.203 241.5,471.5C 240.833,471.5 240.5,471.833 240.5,472.5C 239.833,472.5 239.5,472.833 239.5,473.5C 238.833,473.5 238.5,473.833 238.5,474.5C 237.833,474.5 237.5,474.833 237.5,475.5C 236.833,475.5 236.5,475.833 236.5,476.5C 235.833,476.5 235.5,476.833 235.5,477.5C 234.5,477.833 233.833,478.5 233.5,479.5C 232.833,479.5 232.5,479.833 232.5,480.5C 231.833,480.5 231.5,480.833 231.5,481.5C 230.833,481.5 230.5,481.833 230.5,482.5C 227.32,484.255 224.32,486.255 221.5,488.5C 220.508,488.328 219.842,488.662 219.5,489.5C 218.508,489.328 217.842,489.662 217.5,490.5C 216.508,490.328 215.842,490.662 215.5,491.5C 214.508,491.328 213.842,491.662 213.5,492.5C 212.508,492.328 211.842,492.662 211.5,493.5C 209.447,493.402 207.78,494.069 206.5,495.5C 191.5,499.5 176.5,499.5 161.5,495.5C 160.791,494.596 159.791,494.263 158.5,494.5C 154.818,491.992 150.818,489.992 146.5,488.5C 146.167,487.167 145.833,487.167 145.5,488.5C 143.742,486.113 141.409,484.446 138.5,483.5C 136.833,481.167 134.833,479.167 132.5,477.5C 132.5,476.833 132.167,476.5 131.5,476.5C 131.5,475.833 131.167,475.5 130.5,475.5C 128.138,472.808 125.804,470.141 123.5,467.5C 123.672,466.508 123.338,465.842 122.5,465.5C 122.068,464.29 121.401,463.29 120.5,462.5C 120.068,461.29 119.401,460.29 118.5,459.5C 118.672,458.508 118.338,457.842 117.5,457.5C 117.672,456.508 117.338,455.842 116.5,455.5C 116.672,454.508 116.338,453.842 115.5,453.5C 115.598,451.447 114.931,449.78 113.5,448.5C 109.5,432.833 109.5,417.167 113.5,401.5C 114.404,400.791 114.737,399.791 114.5,398.5C 115.338,398.158 115.672,397.492 115.5,396.5C 118.74,390.741 122.24,385.074 126,379.5C 133.702,371.965 141.202,364.298 148.5,356.5C 180.27,326.231 211.604,295.397 242.5,264C 246.833,260.667 251.167,260.667 255.5,264C 286.751,295.752 318.417,326.919 350.5,357.5 Z M 169.5,377.5 C 169.5,378.167 169.833,378.5 170.5,378.5C 170.5,379.167 170.833,379.5 171.5,379.5C 171.5,380.167 171.833,380.5 172.5,380.5C 172.5,381.167 172.833,381.5 173.5,381.5C 173.5,382.167 173.833,382.5 174.5,382.5C 174.5,383.167 174.833,383.5 175.5,383.5C 175.5,384.167 175.833,384.5 176.5,384.5C 176.5,385.167 176.833,385.5 177.5,385.5C 177.5,386.167 177.833,386.5 178.5,386.5C 180.5,387.833 182.167,389.5 183.5,391.5C 183.5,392.167 183.833,392.5 184.5,392.5C 184.5,393.167 184.833,393.5 185.5,393.5C 185.5,394.167 185.833,394.5 186.5,394.5C 186.5,395.167 186.833,395.5 187.5,395.5C 187.5,396.167 187.833,396.5 188.5,396.5C 188.5,397.167 188.833,397.5 189.5,397.5C 189.5,398.167 189.833,398.5 190.5,398.5C 190.5,399.167 190.833,399.5 191.5,399.5C 191.5,400.167 191.833,400.5 192.5,400.5C 194.5,401.833 196.167,403.5 197.5,405.5C 197.5,406.167 197.833,406.5 198.5,406.5C 198.5,407.167 198.833,407.5 199.5,407.5C 199.5,408.167 199.833,408.5 200.5,408.5C 200.5,409.167 200.833,409.5 201.5,409.5C 201.5,410.167 201.833,410.5 202.5,410.5C 202.5,411.167 202.833,411.5 203.5,411.5C 203.5,412.167 203.833,412.5 204.5,412.5C 204.5,413.167 204.833,413.5 205.5,413.5C 207.833,415.167 209.833,417.167 211.5,419.5C 211.5,420.167 211.833,420.5 212.5,420.5C 212.5,421.167 212.833,421.5 213.5,421.5C 213.5,422.167 213.833,422.5 214.5,422.5C 214.5,423.167 214.833,423.5 215.5,423.5C 215.5,424.167 215.833,424.5 216.5,424.5C 216.5,425.167 216.833,425.5 217.5,425.5C 217.5,426.167 217.833,426.5 218.5,426.5C 218.5,427.167 218.833,427.5 219.5,427.5C 222.262,429.725 225.262,431.725 228.5,433.5C 229.386,434.325 229.719,435.325 229.5,436.5C 230.833,436.5 232.167,436.5 233.5,436.5C 233.842,437.338 234.508,437.672 235.5,437.5C 237.833,438.167 240.167,438.833 242.5,439.5C 239.147,439.345 238.814,440.012 241.5,441.5C 238.833,444.833 235.833,447.833 232.5,450.5C 232.631,449.761 232.464,449.094 232,448.5C 230.519,449.471 229.685,450.804 229.5,452.5C 229.5,452.833 229.5,453.167 229.5,453.5C 227.12,456.881 224.12,459.547 220.5,461.5C 219.833,461.5 219.5,461.833 219.5,462.5C 218.833,462.5 218.5,462.833 218.5,463.5C 217.833,463.5 217.5,463.833 217.5,464.5C 216.833,464.5 216.5,464.833 216.5,465.5C 199.243,478.425 180.576,480.592 160.5,472C 159.027,471.29 158.36,470.124 158.5,468.5C 155.325,469.091 152.991,468.091 151.5,465.5C 151.5,464.833 151.167,464.5 150.5,464.5C 148.833,462.167 146.833,460.167 144.5,458.5C 144.5,457.833 144.167,457.5 143.5,457.5C 143.5,456.833 143.167,456.5 142.5,456.5C 142.5,455.833 142.167,455.5 141.5,455.5C 137.821,451.132 135.488,446.132 134.5,440.5C 134.737,439.209 134.404,438.209 133.5,437.5C 133.784,435.585 133.451,433.919 132.5,432.5C 132.5,427.5 132.5,422.5 132.5,417.5C 133.615,408.6 136.948,400.6 142.5,393.5C 143.167,393.5 143.5,393.167 143.5,392.5C 146.767,387.564 150.767,383.23 155.5,379.5C 156.167,379.5 156.5,379.167 156.5,378.5C 157.167,378.5 157.5,378.167 157.5,377.5C 159.118,375.215 161.118,373.215 163.5,371.5C 165.882,373.215 167.882,375.215 169.5,377.5 Z M 338.5,376.5 C 338.5,377.167 338.833,377.5 339.5,377.5C 339.5,378.167 339.833,378.5 340.5,378.5C 340.5,379.167 340.833,379.5 341.5,379.5C 341.5,380.167 341.833,380.5 342.5,380.5C 342.5,381.167 342.833,381.5 343.5,381.5C 343.5,382.167 343.833,382.5 344.5,382.5C 344.5,383.167 344.833,383.5 345.5,383.5C 345.5,384.167 345.833,384.5 346.5,384.5C 349.977,387.493 352.977,390.827 355.5,394.5C 355.5,395.167 355.833,395.5 356.5,395.5C 356.328,396.492 356.662,397.158 357.5,397.5C 369.761,416.711 369.427,435.711 356.5,454.5C 355.662,454.842 355.328,455.508 355.5,456.5C 354.833,456.5 354.5,456.833 354.5,457.5C 353.833,457.5 353.5,457.833 353.5,458.5C 352.833,458.5 352.5,458.833 352.5,459.5C 351.833,459.5 351.5,459.833 351.5,460.5C 350.833,460.5 350.5,460.833 350.5,461.5C 349.833,461.5 349.5,461.833 349.5,462.5C 348.833,462.5 348.5,462.833 348.5,463.5C 347.374,465.536 345.707,466.87 343.5,467.5C 342.508,467.328 341.842,467.662 341.5,468.5C 340.5,468.5 339.5,468.5 338.5,468.5C 338.5,469.5 338.5,470.5 338.5,471.5C 330.153,474.753 321.487,476.753 312.5,477.5C 304.098,477.066 296.098,475.066 288.5,471.5C 287.614,470.675 287.281,469.675 287.5,468.5C 286.5,468.5 285.5,468.5 284.5,468.5C 284.306,466.088 282.973,465.088 280.5,465.5C 280.5,464.833 280.167,464.5 279.5,464.5C 277.833,463.5 276.5,462.167 275.5,460.5C 275.5,459.833 275.167,459.5 274.5,459.5C 274.5,458.833 274.167,458.5 273.5,458.5C 273.5,457.833 273.167,457.5 272.5,457.5C 272.5,456.833 272.167,456.5 271.5,456.5C 271.5,455.833 271.167,455.5 270.5,455.5C 270.5,454.833 270.167,454.5 269.5,454.5C 269.5,453.833 269.167,453.5 268.5,453.5C 268.5,452.833 268.167,452.5 267.5,452.5C 265.5,451.167 263.833,449.5 262.5,447.5C 262.5,446.833 262.167,446.5 261.5,446.5C 261.5,445.833 261.167,445.5 260.5,445.5C 259.064,444.571 257.731,443.405 256.5,442C 256.833,441.667 257.167,441.333 257.5,441C 255.721,441.979 254.055,441.646 252.5,440C 257.015,439.386 261.348,438.552 265.5,437.5C 266.492,437.672 267.158,437.338 267.5,436.5C 268.492,436.672 269.158,436.338 269.5,435.5C 273.556,432.813 277.556,430.147 281.5,427.5C 282.167,427.5 282.5,427.167 282.5,426.5C 283.167,426.5 283.5,426.167 283.5,425.5C 284.167,425.5 284.5,425.167 284.5,424.5C 285.167,424.5 285.5,424.167 285.5,423.5C 286.167,423.5 286.5,423.167 286.5,422.5C 287.167,422.5 287.5,422.167 287.5,421.5C 288.167,421.5 288.5,421.167 288.5,420.5C 290.5,417.833 292.833,415.5 295.5,413.5C 296.167,413.5 296.5,413.167 296.5,412.5C 297.167,412.5 297.5,412.167 297.5,411.5C 298.167,411.5 298.5,411.167 298.5,410.5C 299.167,410.5 299.5,410.167 299.5,409.5C 300.167,409.5 300.5,409.167 300.5,408.5C 301.167,408.5 301.5,408.167 301.5,407.5C 302.167,407.5 302.5,407.167 302.5,406.5C 304.5,403.833 306.833,401.5 309.5,399.5C 310.167,399.5 310.5,399.167 310.5,398.5C 311.167,398.5 311.5,398.167 311.5,397.5C 312.167,397.5 312.5,397.167 312.5,396.5C 313.167,396.5 313.5,396.167 313.5,395.5C 314.167,395.5 314.5,395.167 314.5,394.5C 315.167,394.5 315.5,394.167 315.5,393.5C 316.167,393.5 316.5,393.167 316.5,392.5C 318.5,389.833 320.833,387.5 323.5,385.5C 324.167,385.5 324.5,385.167 324.5,384.5C 325.167,384.5 325.5,384.167 325.5,383.5C 326.167,383.5 326.5,383.167 326.5,382.5C 327.167,382.5 327.5,382.167 327.5,381.5C 328.167,381.5 328.5,381.167 328.5,380.5C 329.167,380.5 329.5,380.167 329.5,379.5C 330.167,379.5 330.5,379.167 330.5,378.5C 331.785,376.548 333.451,374.882 335.5,373.5C 336.735,374.34 337.735,375.34 338.5,376.5 Z M 144.5,458.5 C 146.833,460.167 148.833,462.167 150.5,464.5C 147.5,463.5 145.5,461.5 144.5,458.5 Z M 249.5,465.5 C 247.431,468.573 244.764,470.906 241.5,472.5C 241.5,472.167 241.5,471.833 241.5,471.5C 243.294,469.203 245.294,467.037 247.5,465C 248.437,464.308 249.103,464.475 249.5,465.5 Z"/></g>
<g><path style="opacity:1" fill="#32968e" d="M 481.5,264.5 C 482.167,264.5 482.5,264.833 482.5,265.5C 482.167,265.167 481.833,264.833 481.5,264.5 Z"/></g>
<g><path style="opacity:1" fill="#64f3ec" d="M 482.5,265.5 C 483.167,265.5 483.5,265.833 483.5,266.5C 483.167,266.167 482.833,265.833 482.5,265.5 Z"/></g>
<g><path style="opacity:1" fill="#32968e" d="M 483.5,266.5 C 484.833,267.167 484.833,267.167 483.5,266.5 Z"/></g>
<g><path style="opacity:1" fill="#64f3ec" d="M 484.5,268.5 C 485.833,269.167 485.833,269.167 484.5,268.5 Z"/></g>
<g><path style="opacity:1" fill="#32968e" d="M 489.5,276.5 C 490.833,277.167 490.833,277.167 489.5,276.5 Z"/></g>
<g><path style="opacity:1" fill="#38bbb4" d="M 490.5,278.5 C 491.833,279.167 491.833,279.167 490.5,278.5 Z"/></g>
<g><path style="opacity:1" fill="#57faf2" d="M 5.5,281.5 C 4.83333,280.167 4.83333,280.167 5.5,281.5 Z"/></g>
<g><path style="opacity:1" fill="#38bbb4" d="M 4.5,283.5 C 3.83333,282.167 3.83333,282.167 4.5,283.5 Z"/></g>
<g><path style="opacity:1" fill="#4ad7d0" d="M 492.5,283.5 C 492.369,282.761 492.536,282.094 493,281.5C 493.692,282.437 493.525,283.103 492.5,283.5 Z"/></g>
<g><path style="opacity:1" fill="#38bbb4" d="M 2.5,284.5 C 3.83333,285.167 3.83333,285.167 2.5,284.5 Z"/></g>
<g><path style="opacity:1" fill="#64f3ec" d="M 2.5,288.5 C 1.47498,288.103 1.30831,287.437 2,286.5C 2.46434,287.094 2.63101,287.761 2.5,288.5 Z"/></g>
<g><path style="opacity:1" fill="#3ec0ba" d="M 495.5,288.5 C 495.167,288.5 494.833,288.5 494.5,288.5C 494.833,284.5 495.167,284.5 495.5,288.5 Z"/></g>
<g><path style="opacity:1" fill="#64f3ec" d="M 0.5,289.5 C 1.83333,290.167 1.83333,290.167 0.5,289.5 Z"/></g>
<g><path style="opacity:1" fill="#36aea8" d="M 495.5,288.5 C 496.525,288.897 496.692,289.563 496,290.5C 495.536,289.906 495.369,289.239 495.5,288.5 Z"/></g>
<g><path style="opacity:1" fill="#57dad4" d="M 496.5,294.5 C 496.351,293.448 496.517,292.448 497,291.5C 497.74,292.749 497.573,293.749 496.5,294.5 Z"/></g>
<g><path style="opacity:1" fill="#64f3ec" d="M 497.5,295.5 C 498.525,295.897 498.692,296.563 498,297.5C 497.536,296.906 497.369,296.239 497.5,295.5 Z"/></g>
<g><path style="opacity:1" fill="#57dad4" d="M 499.5,299.5 C 499.5,300.5 499.5,301.5 499.5,302.5C 498.167,301.5 498.167,300.5 499.5,299.5 Z"/></g>
<g><path style="opacity:1" fill="#57dad4" d="M 499.5,324.5 C 499.5,325.5 499.5,326.5 499.5,327.5C 498.167,326.5 498.167,325.5 499.5,324.5 Z"/></g>
<g><path style="opacity:1" fill="#59dfd9" d="M 497.5,328.5 C 498.833,329.833 498.833,331.167 497.5,332.5C 497.5,331.167 497.5,329.833 497.5,328.5 Z"/></g>
<g><path style="opacity:1" fill="#47cdc7" d="M 496.5,332.5 C 496.833,332.5 497.167,332.5 497.5,332.5C 497.167,335.167 496.833,335.167 496.5,332.5 Z"/></g>
<g><path style="opacity:1" fill="#64f3ec" d="M 0.5,336.5 C 1.83333,337.167 1.83333,337.167 0.5,336.5 Z"/></g>
<g><path style="opacity:1" fill="#47cdc7" d="M 495.5,335.5 C 496.525,335.897 496.692,336.563 496,337.5C 495.536,336.906 495.369,336.239 495.5,335.5 Z"/></g>
<g><path style="opacity:1" fill="#64f3ec" d="M 2.5,338.5 C 1.83333,339.167 1.83333,339.167 2.5,338.5 Z"/></g>
<g><path style="opacity:1" fill="#42cfc9" d="M 494.5,338.5 C 495.833,339.167 495.833,339.833 494.5,340.5C 494.5,339.833 494.5,339.167 494.5,338.5 Z"/></g>
<g><path style="opacity:1" fill="#32968e" d="M 2.5,341.5 C 3.83333,342.167 3.83333,342.167 2.5,341.5 Z"/></g>
<g><path style="opacity:1" fill="#41bfb8" d="M 493.5,340.5 C 493.833,340.5 494.167,340.5 494.5,340.5C 494.737,341.791 494.404,342.791 493.5,343.5C 493.5,342.5 493.5,341.5 493.5,340.5 Z"/></g>
<g><path style="opacity:1" fill="#44c8c7" d="M 492.5,343.5 C 492.833,343.5 493.167,343.5 493.5,343.5C 493.315,344.17 492.981,344.17 492.5,343.5 Z"/></g>
<g><path style="opacity:1" fill="#34a29b" d="M 4.5,345.5 C 3.47498,345.103 3.30831,344.437 4,343.5C 4.46434,344.094 4.63101,344.761 4.5,345.5 Z"/></g>
<g><path style="opacity:1" fill="#34a29b" d="M 4.5,345.5 C 4.83333,345.5 5.16667,345.5 5.5,345.5C 5.16667,348.167 4.83333,348.167 4.5,345.5 Z"/></g>
<g><path style="opacity:1" fill="#34a29b" d="M 491.5,345.5 C 492.833,346.167 492.833,346.833 491.5,347.5C 491.5,346.833 491.5,346.167 491.5,345.5 Z"/></g>
<g><path style="opacity:1" fill="#38bbb4" d="M 490.5,347.5 C 490.833,347.5 491.167,347.5 491.5,347.5C 491.315,348.17 490.981,348.17 490.5,347.5 Z"/></g>
<g><path style="opacity:1" fill="#3db6af" d="M 7.5,348.5 C 7.5,349.167 7.5,349.833 7.5,350.5C 6.16667,349.833 6.16667,349.167 7.5,348.5 Z"/></g>
<g><path style="opacity:1" fill="#32968e" d="M 489.5,349.5 C 490.833,350.167 490.833,350.167 489.5,349.5 Z"/></g>
<g><path style="opacity:1" fill="#64f3ec" d="M 488.5,350.5 C 488.833,350.5 489.167,350.5 489.5,350.5C 489.315,351.17 488.981,351.17 488.5,350.5 Z"/></g>
<g><path style="opacity:1" fill="#225f5f" d="M 7.5,350.5 C 7.83333,350.5 8.16667,350.5 8.5,350.5C 8.16667,353.167 7.83333,353.167 7.5,350.5 Z"/></g>
<g><path style="opacity:1" fill="#64f3ec" d="M 137.5,352.5 C 138.833,353.167 138.833,353.167 137.5,352.5 Z"/></g>
<g><path style="opacity:1" fill="#c7faf9" d="M 356.5,352.5 C 357.833,353.167 357.833,353.167 356.5,352.5 Z"/></g>
<g><path style="opacity:1" fill="#38bbb4" d="M 10.5,353.5 C 9.83333,354.167 9.83333,354.167 10.5,353.5 Z"/></g>
<g><path style="opacity:1" fill="#c7faf9" d="M 355.5,353.5 C 355.833,353.5 356.167,353.5 356.5,353.5C 356.315,354.17 355.981,354.17 355.5,353.5 Z"/></g>
<g><path style="opacity:1" fill="#c7faf9" d="M 354.5,354.5 C 354.833,354.5 355.167,354.5 355.5,354.5C 355.315,355.17 354.981,355.17 354.5,354.5 Z"/></g>
<g><path style="opacity:1" fill="#c7faf9" d="M 353.5,355.5 C 353.833,355.5 354.167,355.5 354.5,355.5C 354.315,356.17 353.981,356.17 353.5,355.5 Z"/></g>
<g><path style="opacity:1" fill="#32968e" d="M 12.5,356.5 C 11.8333,357.167 11.8333,357.167 12.5,356.5 Z"/></g>
<g><path style="opacity:1" fill="#3faea7" d="M 134.5,355.5 C 136.657,356.053 136.49,357.053 134,358.5C 133.536,357.906 133.369,357.239 133.5,356.5C 134.167,356.5 134.5,356.167 134.5,355.5 Z"/></g>
<g><path style="opacity:1" fill="#c7faf9" d="M 352.5,356.5 C 352.833,356.5 353.167,356.5 353.5,356.5C 353.315,357.17 352.981,357.17 352.5,356.5 Z"/></g>
<g><path style="opacity:1" fill="#64f3ec" d="M 484.5,357.5 C 485.833,358.167 485.833,358.167 484.5,357.5 Z"/></g>
<g><path style="opacity:1" fill="#64f3ec" d="M 483.5,358.5 C 483.833,358.5 484.167,358.5 484.5,358.5C 484.315,359.17 483.981,359.17 483.5,358.5 Z"/></g>
<g><path style="opacity:1" fill="#64f3ec" d="M 130.5,359.5 C 131.833,360.167 131.833,360.167 130.5,359.5 Z"/></g>
<g><path style="opacity:1" fill="#64f3ec" d="M 129.5,360.5 C 129.833,360.5 130.167,360.5 130.5,360.5C 130.315,361.17 129.981,361.17 129.5,360.5 Z"/></g>
<g><path style="opacity:1" fill="#32968e" d="M 141.5,360.5 C 142.833,361.167 142.833,361.167 141.5,360.5 Z"/></g>
<g><path style="opacity:1" fill="#32968e" d="M 482.5,360.5 C 483.833,361.167 483.833,361.167 482.5,360.5 Z"/></g>
<g><path style="opacity:1" fill="#32968e" d="M 482.5,361.5 C 481.833,362.167 481.833,362.167 482.5,361.5 Z"/></g>
<g><path style="opacity:1" fill="#32968e" d="M 127.5,362.5 C 128.833,363.167 128.833,363.167 127.5,362.5 Z"/></g>
<g><path style="opacity:1" fill="#32968e" d="M 479.5,363.5 C 480.833,364.167 480.833,364.167 479.5,363.5 Z"/></g>
<g><path style="opacity:1" fill="#32968e" d="M 137.5,364.5 C 138.833,365.167 138.833,365.167 137.5,364.5 Z"/></g>
<g><path style="opacity:1" fill="#123231" d="M 478.5,364.5 C 478.833,364.5 479.167,364.5 479.5,364.5C 479.315,365.17 478.981,365.17 478.5,364.5 Z"/></g>
<g><path style="opacity:1" fill="#32968e" d="M 477.5,365.5 C 477.833,365.5 478.167,365.5 478.5,365.5C 478.315,366.17 477.981,366.17 477.5,365.5 Z"/></g>
<g><path style="opacity:1" fill="#64f3ec" d="M 123.5,366.5 C 124.833,367.167 124.833,367.167 123.5,366.5 Z"/></g>
<g><path style="opacity:1" fill="#32968e" d="M 476.5,366.5 C 476.833,366.5 477.167,366.5 477.5,366.5C 477.315,367.17 476.981,367.17 476.5,366.5 Z"/></g>
<g><path style="opacity:1" fill="#123231" d="M 21.5,367.5 C 21.5,367.833 21.5,368.167 21.5,368.5C 20.8299,368.019 20.8299,367.685 21.5,367.5 Z"/></g>
<g><path style="opacity:1" fill="#64f3ec" d="M 122.5,367.5 C 122.833,367.5 123.167,367.5 123.5,367.5C 123.315,368.17 122.981,368.17 122.5,367.5 Z"/></g>
<g><path style="opacity:1" fill="#123231" d="M 475.5,367.5 C 475.833,367.5 476.167,367.5 476.5,367.5C 476.315,368.17 475.981,368.17 475.5,367.5 Z"/></g>
<g><path style="opacity:1" fill="#123231" d="M 21.5,368.5 C 22.8333,369.167 22.8333,369.167 21.5,368.5 Z"/></g>
<g><path style="opacity:1" fill="#57faf2" d="M 121.5,368.5 C 121.833,368.5 122.167,368.5 122.5,368.5C 122.315,369.17 121.981,369.17 121.5,368.5 Z"/></g>
<g><path style="opacity:1" fill="#32968e" d="M 474.5,368.5 C 474.833,368.5 475.167,368.5 475.5,368.5C 475.315,369.17 474.981,369.17 474.5,368.5 Z"/></g>
<g><path style="opacity:1" fill="#57faf2" d="M 120.5,369.5 C 120.833,369.5 121.167,369.5 121.5,369.5C 121.315,370.17 120.981,370.17 120.5,369.5 Z"/></g>
<g><path style="opacity:1" fill="#57faf2" d="M 119.5,370.5 C 119.833,370.5 120.167,370.5 120.5,370.5C 120.315,371.17 119.981,371.17 119.5,370.5 Z"/></g>
<g><path style="opacity:1" fill="#32968e" d="M 472.5,370.5 C 473.833,371.167 473.833,371.167 472.5,370.5 Z"/></g>
<g><path style="opacity:1" fill="#32968e" d="M 119.5,371.5 C 118.833,372.167 118.833,372.167 119.5,371.5 Z"/></g>
<g><path style="opacity:1" fill="#32968e" d="M 472.5,371.5 C 471.833,372.167 471.833,372.167 472.5,371.5 Z"/></g>
<g><path style="opacity:1" fill="#32968e" d="M 27.5,372.5 C 26.8333,373.167 26.8333,373.167 27.5,372.5 Z"/></g>
<g><path style="opacity:1" fill="#64f3ec" d="M 469.5,372.5 C 470.833,373.167 470.833,373.167 469.5,372.5 Z"/></g>
<g><path style="opacity:1" fill="#64f3ec" d="M 115.5,373.5 C 116.833,374.167 116.833,374.167 115.5,373.5 Z"/></g>
<g><path style="opacity:1" fill="#32968e" d="M 368.5,374.5 C 367.833,373.167 367.833,373.167 368.5,374.5 Z"/></g>
<g><path style="opacity:1" fill="#64f3ec" d="M 381.5,373.5 C 380.833,374.167 380.833,374.167 381.5,373.5 Z"/></g>
<g><path style="opacity:1" fill="#64f3ec" d="M 468.5,373.5 C 468.833,373.5 469.167,373.5 469.5,373.5C 469.315,374.17 468.981,374.17 468.5,373.5 Z"/></g>
<g><path style="opacity:1" fill="#64f3ec" d="M 368.5,374.5 C 369.167,374.5 369.5,374.833 369.5,375.5C 369.167,375.167 368.833,374.833 368.5,374.5 Z"/></g>
<g><path style="opacity:1" fill="#32968e" d="M 369.5,375.5 C 370.167,375.5 370.5,375.833 370.5,376.5C 370.167,376.167 369.833,375.833 369.5,375.5 Z"/></g>
<g><path style="opacity:1" fill="#64f3ec" d="M 370.5,376.5 C 371.167,376.5 371.5,376.833 371.5,377.5C 371.167,377.167 370.833,376.833 370.5,376.5 Z"/></g>
<g><path style="opacity:1" fill="#64f3ec" d="M 108.5,377.5 C 109.833,378.167 109.833,378.167 108.5,377.5 Z"/></g>
<g><path style="opacity:1" fill="#32968e" d="M 371.5,377.5 C 372.833,378.167 372.833,378.167 371.5,377.5 Z"/></g>
<g><path style="opacity:1" fill="#64f3ec" d="M 461.5,377.5 C 462.833,378.167 462.833,378.167 461.5,377.5 Z"/></g>
<g><path style="opacity:1" fill="#32968e" d="M 107.5,378.5 C 107.833,378.5 108.167,378.5 108.5,378.5C 108.315,379.17 107.981,379.17 107.5,378.5 Z"/></g>
<g><path style="opacity:1" fill="#64f3ec" d="M 459.5,379.5 C 459.5,379.167 459.5,378.833 459.5,378.5C 460.167,378.5 460.833,378.5 461.5,378.5C 461.158,379.338 460.492,379.672 459.5,379.5 Z"/></g>
<g><path style="opacity:1" fill="#38bbb4" d="M 105.5,379.5 C 106.833,380.167 106.833,380.167 105.5,379.5 Z"/></g>
<g><path style="opacity:1" fill="#64f3ec" d="M 373.5,380.5 C 372.833,379.167 372.833,379.167 373.5,380.5 Z"/></g>
<g><path style="opacity:1" fill="#37a6a1" d="M 103.5,380.5 C 104.167,380.5 104.833,380.5 105.5,380.5C 104.833,381.833 104.167,381.833 103.5,380.5 Z"/></g>
<g><path style="opacity:1" fill="#64f3ec" d="M 373.5,380.5 C 374.833,381.167 374.833,381.167 373.5,380.5 Z"/></g>
<g><path style="opacity:1" fill="#38bbb4" d="M 456.5,380.5 C 456.833,380.5 457.167,380.5 457.5,380.5C 457.315,381.17 456.981,381.17 456.5,380.5 Z"/></g>
<g><path style="opacity:1" fill="#3ec0ba" d="M 453.5,382.5 C 453.5,382.167 453.5,381.833 453.5,381.5C 454.5,381.5 455.5,381.5 456.5,381.5C 455.791,382.404 454.791,382.737 453.5,382.5 Z"/></g>
<g><path style="opacity:1" fill="#4ad7d0" d="M 45.5,382.5 C 45.5,382.833 45.5,383.167 45.5,383.5C 42.8333,383.167 42.8333,382.833 45.5,382.5 Z"/></g>
<g><path style="opacity:1" fill="#42cfc9" d="M 451.5,383.5 C 451.5,383.167 451.5,382.833 451.5,382.5C 452.167,382.5 452.833,382.5 453.5,382.5C 453.158,383.338 452.492,383.672 451.5,383.5 Z"/></g>
<g><path style="opacity:1" fill="#36aea8" d="M 45.5,383.5 C 46.2389,383.369 46.9056,383.536 47.5,384C 46.5632,384.692 45.8966,384.525 45.5,383.5 Z"/></g>
<g><path style="opacity:1" fill="#37a6a1" d="M 449.5,384.5 C 449.5,384.167 449.5,383.833 449.5,383.5C 450.167,383.5 450.833,383.5 451.5,383.5C 451.158,384.338 450.492,384.672 449.5,384.5 Z"/></g>
<g><path style="opacity:1" fill="#36aea8" d="M 48.5,385.5 C 48.8966,384.475 49.5632,384.308 50.5,385C 49.9056,385.464 49.2389,385.631 48.5,385.5 Z"/></g>
<g><path style="opacity:1" fill="#42cfc9" d="M 93.5,385.5 C 93.5,385.167 93.5,384.833 93.5,384.5C 96.1667,384.833 96.1667,385.167 93.5,385.5 Z"/></g>
<g><path style="opacity:1" fill="#3ec0ba" d="M 403.5,384.5 C 402.749,385.573 401.749,385.74 400.5,385C 401.448,384.517 402.448,384.351 403.5,384.5 Z"/></g>
<g><path style="opacity:1" fill="#3aaea7" d="M 446.5,385.5 C 446.5,385.167 446.5,384.833 446.5,384.5C 447.5,384.5 448.5,384.5 449.5,384.5C 448.791,385.404 447.791,385.737 446.5,385.5 Z"/></g>
<g><path style="opacity:1" fill="#36aea8" d="M 51.5,386.5 C 51.8966,385.475 52.5632,385.308 53.5,386C 52.9056,386.464 52.2389,386.631 51.5,386.5 Z"/></g>
<g><path style="opacity:1" fill="#57dad4" d="M 90.5,385.5 C 91.5,385.5 92.5,385.5 93.5,385.5C 92.5,386.833 91.5,386.833 90.5,385.5 Z"/></g>
<g><path style="opacity:1" fill="#52d3cc" d="M 404.5,386.5 C 404.897,385.475 405.563,385.308 406.5,386C 405.906,386.464 405.239,386.631 404.5,386.5 Z"/></g>
<g><path style="opacity:1" fill="#3eaca5" d="M 446.5,385.5 C 445.749,386.573 444.749,386.74 443.5,386C 444.448,385.517 445.448,385.351 446.5,385.5 Z"/></g>
<g><path style="opacity:1" fill="#52d3cc" d="M 58.5,386.5 C 57.3991,387.598 56.0657,387.765 54.5,387C 55.7932,386.51 57.1266,386.343 58.5,386.5 Z"/></g>
<g><path style="opacity:1" fill="#64f3ec" d="M 86.5,387.5 C 86.8966,386.475 87.5632,386.308 88.5,387C 87.9056,387.464 87.2389,387.631 86.5,387.5 Z"/></g>
<g><path style="opacity:1" fill="#52d3cc" d="M 408.5,387.5 C 408.897,386.475 409.563,386.308 410.5,387C 409.906,387.464 409.239,387.631 408.5,387.5 Z"/></g>
<g><path style="opacity:1" fill="#42b4ad" d="M 439.5,387.5 C 439.897,386.475 440.563,386.308 441.5,387C 440.906,387.464 440.239,387.631 439.5,387.5 Z"/></g>
<g><path style="opacity:1" fill="#64f3ec" d="M 61.5,388.5 C 61.8966,387.475 62.5632,387.308 63.5,388C 62.9056,388.464 62.2389,388.631 61.5,388.5 Z"/></g>
<g><path style="opacity:1" fill="#59dfd9" d="M 80.5,388.5 C 81.6009,387.402 82.9343,387.235 84.5,388C 83.2068,388.49 81.8734,388.657 80.5,388.5 Z"/></g>
<g><path style="opacity:1" fill="#32968e" d="M 377.5,387.5 C 378.833,388.167 378.833,388.167 377.5,387.5 Z"/></g>
<g><path style="opacity:1" fill="#64f3ec" d="M 413.5,388.5 C 414.251,387.427 415.251,387.26 416.5,388C 415.552,388.483 414.552,388.649 413.5,388.5 Z"/></g>
<g><path style="opacity:1" fill="#64f3ec" d="M 433.5,388.5 C 433.897,387.475 434.563,387.308 435.5,388C 434.906,388.464 434.239,388.631 433.5,388.5 Z"/></g>
<g><path style="opacity:1" fill="#32968e" d="M 436.5,387.5 C 437.833,388.167 437.833,388.167 436.5,387.5 Z"/></g>
<g><path style="opacity:1" fill="#4ad7d0" d="M 115.5,396.5 C 114.475,396.103 114.308,395.437 115,394.5C 115.464,395.094 115.631,395.761 115.5,396.5 Z"/></g>
<g><path style="opacity:1" fill="#38bbb4" d="M 114.5,398.5 C 113.833,397.167 113.833,397.167 114.5,398.5 Z"/></g>
<g><path style="opacity:1" fill="#52d3cc" d="M 113.5,401.5 C 112.475,401.103 112.308,400.437 113,399.5C 113.464,400.094 113.631,400.761 113.5,401.5 Z"/></g>
<g><path style="opacity:1" fill="#339f98" d="M 384.5,403.5 C 384.351,402.448 384.517,401.448 385,400.5C 385.74,401.749 385.573,402.749 384.5,403.5 Z"/></g>
<g><path style="opacity:1" fill="#64f3ec" d="M 111.5,402.5 C 112.833,403.167 112.833,403.167 111.5,402.5 Z"/></g>
<g><path style="opacity:1" fill="#36aea8" d="M 385.5,404.5 C 386.525,404.897 386.692,405.563 386,406.5C 385.536,405.906 385.369,405.239 385.5,404.5 Z"/></g>
<g><path style="opacity:1" fill="#57dad4" d="M 386.5,407.5 C 387.573,408.251 387.74,409.251 387,410.5C 386.517,409.552 386.351,408.552 386.5,407.5 Z"/></g>
<g><path style="opacity:1" fill="#64f3ec" d="M 387.5,414.5 C 388.525,414.897 388.692,415.563 388,416.5C 387.536,415.906 387.369,415.239 387.5,414.5 Z"/></g>
<g><path style="opacity:1" fill="#64f3ec" d="M 387.5,433.5 C 388.573,434.251 388.74,435.251 388,436.5C 387.517,435.552 387.351,434.552 387.5,433.5 Z"/></g>
<g><path style="opacity:1" fill="#49d5d0" d="M 242.5,439.5 C 242.5,439.833 242.5,440.167 242.5,440.5C 241.833,440.5 241.5,440.833 241.5,441.5C 238.814,440.012 239.147,439.345 242.5,439.5 Z"/></g>
<g><path style="opacity:1" fill="#42b4ad" d="M 386.5,439.5 C 387.525,439.897 387.692,440.563 387,441.5C 386.536,440.906 386.369,440.239 386.5,439.5 Z"/></g>
<g><path style="opacity:1" fill="#64f3ec" d="M 385.5,443.5 C 386.525,443.897 386.692,444.563 386,445.5C 385.536,444.906 385.369,444.239 385.5,443.5 Z"/></g>
<g><path style="opacity:1" fill="#64f3ec" d="M 111.5,446.5 C 112.833,447.167 112.833,447.167 111.5,446.5 Z"/></g>
<g><path style="opacity:1" fill="#3ec0ba" d="M 384.5,446.5 C 385.833,447.5 385.833,448.5 384.5,449.5C 384.5,448.5 384.5,447.5 384.5,446.5 Z"/></g>
<g><path style="opacity:1" fill="#64f3ec" d="M 113.5,448.5 C 113.631,449.239 113.464,449.906 113,450.5C 112.308,449.563 112.475,448.897 113.5,448.5 Z"/></g>
<g><path style="opacity:1" fill="#46ada9" d="M 232.5,450.5 C 231.833,450.5 231.5,450.833 231.5,451.5C 230.833,451.5 230.5,451.833 230.5,452.5C 230.167,452.5 229.833,452.5 229.5,452.5C 229.685,450.804 230.519,449.471 232,448.5C 232.464,449.094 232.631,449.761 232.5,450.5 Z"/></g>
<g><path style="opacity:1" fill="#3db6af" d="M 383.5,449.5 C 383.833,449.5 384.167,449.5 384.5,449.5C 384.672,450.492 384.338,451.158 383.5,451.5C 383.5,450.833 383.5,450.167 383.5,449.5 Z"/></g>
<g><path style="opacity:1" fill="#34a29b" d="M 114.5,453.5 C 113.475,453.103 113.308,452.437 114,451.5C 114.464,452.094 114.631,452.761 114.5,453.5 Z"/></g>
<g><path style="opacity:1" fill="#47cdc7" d="M 382.5,451.5 C 382.833,451.5 383.167,451.5 383.5,451.5C 383.167,454.167 382.833,454.167 382.5,451.5 Z"/></g>
<g><path style="opacity:1" fill="#3db6af" d="M 114.5,453.5 C 114.833,453.5 115.167,453.5 115.5,453.5C 115.5,454.167 115.5,454.833 115.5,455.5C 114.662,455.158 114.328,454.492 114.5,453.5 Z"/></g>
<g><path style="opacity:1" fill="#225f5f" d="M 381.5,454.5 C 382.833,455.167 382.833,455.833 381.5,456.5C 381.5,455.833 381.5,455.167 381.5,454.5 Z"/></g>
<g><path style="opacity:1" fill="#3db6af" d="M 115.5,455.5 C 115.833,455.5 116.167,455.5 116.5,455.5C 116.5,456.167 116.5,456.833 116.5,457.5C 115.662,457.158 115.328,456.492 115.5,455.5 Z"/></g>
<g><path style="opacity:1" fill="#37a6a1" d="M 380.5,456.5 C 380.833,456.5 381.167,456.5 381.5,456.5C 381.672,457.492 381.338,458.158 380.5,458.5C 380.5,457.833 380.5,457.167 380.5,456.5 Z"/></g>
<g><path style="opacity:1" fill="#3db6af" d="M 116.5,457.5 C 116.833,457.5 117.167,457.5 117.5,457.5C 117.5,458.167 117.5,458.833 117.5,459.5C 116.662,459.158 116.328,458.492 116.5,457.5 Z"/></g>
<g><path style="opacity:1" fill="#38bbb4" d="M 379.5,458.5 C 379.833,458.5 380.167,458.5 380.5,458.5C 380.315,459.17 379.981,459.17 379.5,458.5 Z"/></g>
<g><path style="opacity:1" fill="#37a6a1" d="M 117.5,459.5 C 117.833,459.5 118.167,459.5 118.5,459.5C 118.167,462.167 117.833,462.167 117.5,459.5 Z"/></g>
<g><path style="opacity:1" fill="#64f3ec" d="M 378.5,460.5 C 379.833,461.167 379.833,461.167 378.5,460.5 Z"/></g>
<g><path style="opacity:1" fill="#64f3ec" d="M 377.5,461.5 C 377.833,461.5 378.167,461.5 378.5,461.5C 378.315,462.17 377.981,462.17 377.5,461.5 Z"/></g>
<g><path style="opacity:1" fill="#37a6a1" d="M 120.5,462.5 C 120.631,463.239 120.464,463.906 120,464.5C 119.308,463.563 119.475,462.897 120.5,462.5 Z"/></g>
<g><path style="opacity:1" fill="#57faf2" d="M 122.5,465.5 C 121.833,466.167 121.833,466.167 122.5,465.5 Z"/></g>
<g><path style="opacity:1" fill="#32968e" d="M 123.5,467.5 C 122.833,468.167 122.833,468.167 123.5,467.5 Z"/></g>
<g><path style="opacity:1" fill="#64f3ec" d="M 252.5,468.5 C 251.833,469.167 251.833,469.167 252.5,468.5 Z"/></g>
<g><path style="opacity:1" fill="#64f3ec" d="M 371.5,471.5 C 372.833,472.167 372.833,472.167 371.5,471.5 Z"/></g>
<g><path style="opacity:1" fill="#64f3ec" d="M 240.5,472.5 C 240.833,472.5 241.167,472.5 241.5,472.5C 241.315,473.17 240.981,473.17 240.5,472.5 Z"/></g>
<g><path style="opacity:1" fill="#64f3ec" d="M 370.5,472.5 C 370.833,472.5 371.167,472.5 371.5,472.5C 371.315,473.17 370.981,473.17 370.5,472.5 Z"/></g>
<g><path style="opacity:1" fill="#64f3ec" d="M 239.5,473.5 C 239.833,473.5 240.167,473.5 240.5,473.5C 240.315,474.17 239.981,474.17 239.5,473.5 Z"/></g>
<g><path style="opacity:1" fill="#32968e" d="M 369.5,473.5 C 369.833,473.5 370.167,473.5 370.5,473.5C 370.315,474.17 369.981,474.17 369.5,473.5 Z"/></g>
<g><path style="opacity:1" fill="#64f3ec" d="M 238.5,474.5 C 238.833,474.5 239.167,474.5 239.5,474.5C 239.315,475.17 238.981,475.17 238.5,474.5 Z"/></g>
<g><path style="opacity:1" fill="#38bbb4" d="M 368.5,474.5 C 368.833,474.5 369.167,474.5 369.5,474.5C 369.315,475.17 368.981,475.17 368.5,474.5 Z"/></g>
<g><path style="opacity:1" fill="#64f3ec" d="M 237.5,475.5 C 237.833,475.5 238.167,475.5 238.5,475.5C 238.315,476.17 237.981,476.17 237.5,475.5 Z"/></g>
<g><path style="opacity:1" fill="#38bbb4" d="M 367.5,475.5 C 367.833,475.5 368.167,475.5 368.5,475.5C 368.315,476.17 367.981,476.17 367.5,475.5 Z"/></g>
<g><path style="opacity:1" fill="#4a8382" d="M 130.5,475.5 C 131.167,475.5 131.5,475.833 131.5,476.5C 132.167,476.5 132.5,476.833 132.5,477.5C 132.103,478.525 131.437,478.692 130.5,478C 129.226,477.023 129.226,476.189 130.5,475.5 Z"/></g>
<g><path style="opacity:1" fill="#64f3ec" d="M 236.5,476.5 C 236.833,476.5 237.167,476.5 237.5,476.5C 237.315,477.17 236.981,477.17 236.5,476.5 Z"/></g>
<g><path style="opacity:1" fill="#44c8c7" d="M 366.5,476.5 C 366.833,476.5 367.167,476.5 367.5,476.5C 367.315,477.17 366.981,477.17 366.5,476.5 Z"/></g>
<g><path style="opacity:1" fill="#64f3ec" d="M 235.5,477.5 C 235.833,477.5 236.167,477.5 236.5,477.5C 236.315,478.17 235.981,478.17 235.5,477.5 Z"/></g>
<g><path style="opacity:1" fill="#44c8c7" d="M 365.5,477.5 C 365.833,477.5 366.167,477.5 366.5,477.5C 366.315,478.17 365.981,478.17 365.5,477.5 Z"/></g>
<g><path style="opacity:1" fill="#327d7c" d="M 364.5,478.5 C 364.833,478.5 365.167,478.5 365.5,478.5C 365.315,479.17 364.981,479.17 364.5,478.5 Z"/></g>
<g><path style="opacity:1" fill="#38bbb4" d="M 363.5,479.5 C 363.833,479.5 364.167,479.5 364.5,479.5C 364.315,480.17 363.981,480.17 363.5,479.5 Z"/></g>
<g><path style="opacity:1" fill="#42b4ad" d="M 233.5,479.5 C 235.793,480.301 235.46,480.968 232.5,481.5C 232.5,481.167 232.5,480.833 232.5,480.5C 233.167,480.5 233.5,480.167 233.5,479.5 Z"/></g>
<g><path style="opacity:1" fill="#32968e" d="M 362.5,480.5 C 362.833,480.5 363.167,480.5 363.5,480.5C 363.315,481.17 362.981,481.17 362.5,480.5 Z"/></g>
<g><path style="opacity:1" fill="#57faf2" d="M 231.5,481.5 C 231.833,481.5 232.167,481.5 232.5,481.5C 232.315,482.17 231.981,482.17 231.5,481.5 Z"/></g>
<g><path style="opacity:1" fill="#64f3ec" d="M 265.5,481.5 C 265.5,481.833 265.5,482.167 265.5,482.5C 264.83,482.019 264.83,481.685 265.5,481.5 Z"/></g>
<g><path style="opacity:1" fill="#32968e" d="M 361.5,481.5 C 361.833,481.5 362.167,481.5 362.5,481.5C 362.315,482.17 361.981,482.17 361.5,481.5 Z"/></g>
<g><path style="opacity:1" fill="#57faf2" d="M 230.5,482.5 C 230.833,482.5 231.167,482.5 231.5,482.5C 231.315,483.17 230.981,483.17 230.5,482.5 Z"/></g>
<g><path style="opacity:1" fill="#64f3ec" d="M 265.5,482.5 C 266.167,482.5 266.5,482.833 266.5,483.5C 266.167,483.167 265.833,482.833 265.5,482.5 Z"/></g>
<g><path style="opacity:1" fill="#64f3ec" d="M 361.5,482.5 C 360.833,483.167 360.833,483.167 361.5,482.5 Z"/></g>
<g><path style="opacity:1" fill="#64f3ec" d="M 138.5,483.5 C 137.833,484.167 137.833,484.167 138.5,483.5 Z"/></g>
<g><path style="opacity:1" fill="#64f3ec" d="M 230.5,483.5 C 229.833,484.167 229.833,484.167 230.5,483.5 Z"/></g>
<g><path style="opacity:1" fill="#64f3ec" d="M 266.5,483.5 C 267.833,484.167 267.833,484.167 266.5,483.5 Z"/></g>
<g><path style="opacity:1" fill="#32968e" d="M 229.5,484.5 C 228.833,485.167 228.833,485.167 229.5,484.5 Z"/></g>
<g><path style="opacity:1" fill="#32968e" d="M 352.5,487.5 C 353.833,488.167 353.833,488.167 352.5,487.5 Z"/></g>
<g><path style="opacity:1" fill="#32968e" d="M 145.5,488.5 C 145.833,488.5 146.167,488.5 146.5,488.5C 146.315,489.17 145.981,489.17 145.5,488.5 Z"/></g>
<g><path style="opacity:1" fill="#64f3ec" d="M 221.5,488.5 C 222.833,489.167 222.833,489.167 221.5,488.5 Z"/></g>
<g><path style="opacity:1" fill="#32968e" d="M 275.5,488.5 C 274.833,489.167 274.833,489.167 275.5,488.5 Z"/></g>
<g><path style="opacity:1" fill="#38bbb4" d="M 219.5,489.5 C 220.833,490.167 220.833,490.167 219.5,489.5 Z"/></g>
<g><path style="opacity:1" fill="#38bbb4" d="M 349.5,489.5 C 349.833,489.5 350.167,489.5 350.5,489.5C 350.315,490.17 349.981,490.17 349.5,489.5 Z"/></g>
<g><path style="opacity:1" fill="#37a6a1" d="M 217.5,491.5 C 217.5,491.167 217.5,490.833 217.5,490.5C 218.167,490.5 218.833,490.5 219.5,490.5C 219.158,491.338 218.492,491.672 217.5,491.5 Z"/></g>
<g><path style="opacity:1" fill="#37a6a1" d="M 347.5,491.5 C 347.5,491.167 347.5,490.833 347.5,490.5C 348.167,490.5 348.833,490.5 349.5,490.5C 349.158,491.338 348.492,491.672 347.5,491.5 Z"/></g>
<g><path style="opacity:1" fill="#3db6af" d="M 215.5,492.5 C 215.5,492.167 215.5,491.833 215.5,491.5C 216.167,491.5 216.833,491.5 217.5,491.5C 217.158,492.338 216.492,492.672 215.5,492.5 Z"/></g>
<g><path style="opacity:1" fill="#276e6c" d="M 345.5,492.5 C 345.5,492.167 345.5,491.833 345.5,491.5C 346.167,491.5 346.833,491.5 347.5,491.5C 347.158,492.338 346.492,492.672 345.5,492.5 Z"/></g>
<g><path style="opacity:1" fill="#42cfc9" d="M 213.5,493.5 C 213.5,493.167 213.5,492.833 213.5,492.5C 214.167,492.5 214.833,492.5 215.5,492.5C 215.158,493.338 214.492,493.672 213.5,493.5 Z"/></g>
<g><path style="opacity:1" fill="#3db6af" d="M 343.5,493.5 C 343.5,493.167 343.5,492.833 343.5,492.5C 344.167,492.5 344.833,492.5 345.5,492.5C 345.158,493.338 344.492,493.672 343.5,493.5 Z"/></g>
<g><path style="opacity:1" fill="#3db6af" d="M 211.5,494.5 C 211.5,494.167 211.5,493.833 211.5,493.5C 212.167,493.5 212.833,493.5 213.5,493.5C 213.158,494.338 212.492,494.672 211.5,494.5 Z"/></g>
<g><path style="opacity:1" fill="#37a6a1" d="M 341.5,493.5 C 342.167,493.5 342.833,493.5 343.5,493.5C 342.833,494.833 342.167,494.833 341.5,493.5 Z"/></g>
<g><path style="opacity:1" fill="#36aea8" d="M 158.5,494.5 C 158.103,495.525 157.437,495.692 156.5,495C 157.094,494.536 157.761,494.369 158.5,494.5 Z"/></g>
<g><path style="opacity:1" fill="#34a29b" d="M 211.5,494.5 C 211.103,495.525 210.437,495.692 209.5,495C 210.094,494.536 210.761,494.369 211.5,494.5 Z"/></g>
<g><path style="opacity:1" fill="#38bbb4" d="M 339.5,494.5 C 340.833,495.167 340.833,495.167 339.5,494.5 Z"/></g>
<g><path style="opacity:1" fill="#36aea8" d="M 161.5,495.5 C 161.5,495.833 161.5,496.167 161.5,496.5C 158.833,496.167 158.833,495.833 161.5,495.5 Z"/></g>
<g><path style="opacity:1" fill="#3db6af" d="M 206.5,496.5 C 206.5,496.167 206.5,495.833 206.5,495.5C 209.167,495.833 209.167,496.167 206.5,496.5 Z"/></g>
<g><path style="opacity:1" fill="#5ff5ee" d="M 336.5,496.5 C 336.5,496.167 336.5,495.833 336.5,495.5C 339.167,495.833 339.167,496.167 336.5,496.5 Z"/></g>
<g><path style="opacity:1" fill="#57dad4" d="M 161.5,496.5 C 162.552,496.351 163.552,496.517 164.5,497C 163.251,497.74 162.251,497.573 161.5,496.5 Z"/></g>
<g><path style="opacity:1" fill="#57dad4" d="M 206.5,496.5 C 205.749,497.573 204.749,497.74 203.5,497C 204.448,496.517 205.448,496.351 206.5,496.5 Z"/></g>
<g><path style="opacity:1" fill="#54dcd6" d="M 293.5,496.5 C 292.749,497.573 291.749,497.74 290.5,497C 291.448,496.517 292.448,496.351 293.5,496.5 Z"/></g>
<g><path style="opacity:1" fill="#54dcd6" d="M 336.5,496.5 C 335.749,497.573 334.749,497.74 333.5,497C 334.448,496.517 335.448,496.351 336.5,496.5 Z"/></g>
<g><path style="opacity:1" fill="#64f3ec" d="M 166.5,498.5 C 166.897,497.475 167.563,497.308 168.5,498C 167.906,498.464 167.239,498.631 166.5,498.5 Z"/></g>
<g><path style="opacity:1" fill="#42b4ad" d="M 199.5,498.5 C 199.897,497.475 200.563,497.308 201.5,498C 200.906,498.464 200.239,498.631 199.5,498.5 Z"/></g>
<g><path style="opacity:1" fill="#64f3ec" d="M 297.5,497.5 C 297.103,498.525 296.437,498.692 295.5,498C 296.094,497.536 296.761,497.369 297.5,497.5 Z"/></g>
<g><path style="opacity:1" fill="#64f3ec" d="M 329.5,497.5 C 330.239,497.369 330.906,497.536 331.5,498C 330.563,498.692 329.897,498.525 329.5,497.5 Z"/></g>
<g><path style="opacity:1" fill="#64f3ec" d="M 171.5,499.5 C 172.167,498.167 172.833,498.167 173.5,499.5C 172.833,499.5 172.167,499.5 171.5,499.5 Z"/></g>
<g><path style="opacity:1" fill="#64f3ec" d="M 194.5,499.5 C 195.167,498.167 195.833,498.167 196.5,499.5C 195.833,499.5 195.167,499.5 194.5,499.5 Z"/></g>
<g><path style="opacity:1" fill="#64f3ec" d="M 299.5,499.5 C 300.167,498.167 300.833,498.167 301.5,499.5C 300.833,499.5 300.167,499.5 299.5,499.5 Z"/></g>
<g><path style="opacity:1" fill="#57dad4" d="M 325.5,499.5 C 326.5,498.167 327.5,498.167 328.5,499.5C 327.5,499.5 326.5,499.5 325.5,499.5 Z"/></g>
</svg>
