<svg xmlns="http://www.w3.org/2000/svg" viewBox="0 4.76837e-7 174 96">
	<path d="M91.9671 21.7131c-.1356.3497-.3203.6783-.5485.9758-1.1884.0491-2.3678-.2249-3.413-.7929.1404-.497.2222-1.0087.2438-1.5247 1.1948.5619 2.4394 1.0111 3.7177 1.3418Zm-6.8869-5.0013c-.466-.4148-.822-.9386-1.0361-1.5248-.5305-1.0778-.762-2.2785-.6704-3.4765.0107-.268.0516-.534.1219-.7928.061-.183.1219-.305.3657-.122.2899.2432.5952.4673.9142.6709v3.4155c.002.6224.1049 1.2403.3047 1.8297Zm2.3769 6.465c.1219-.3049.1219-.1829.1828-.4879.9842.448 2.0334.7363 3.1082.8539-.8527 1.0594-1.9657 1.879-3.2301 2.3786-.3241.1755-.6737.299-1.0361.366-.2428.0714-.5036.0496-.7313-.061-.1219-.061-.1219-.122-.2438-.183-.1362-.083-.2595-.1858-.3657-.3049.1586-.0711.3215-.1322.4876-.183.8665-.5569 1.5128-1.3977 1.8284-2.3787Zm6.8259-2.5006c-.5149.037-1.0321-.0251-1.5237-.183.4703-.4697.8378-1.0322 1.0791-1.6517.2413-.6195.3512-1.2824.3227-1.9467V12.4424c.8737-.317 1.7113-.7259 2.4988-1.2198.3047-.122.4266-.2439.5485.061.1508.5352.2126 1.0915.1828 1.6468.0089.4684-.0115.9369-.0609 1.4028-.0997 1.6058-.5579 3.1689-1.3408 4.5743-.4266.6709-.9752 1.5247-1.7065 1.7687Zm-2.3159-.4269c-1.8105-.543-3.5497-1.3006-5.1804-2.2567-.4316-.4032-.7699-.896-.991-1.4439-.221-.5479-.3196-1.1376-.2889-1.7276V11.8935c2.4988 1.5248 4.8147 2.0127 7.923.8539v4.1474c.0284.6338-.0887 1.2657-.3423 1.8471-.2535.5815-.6368 1.0972-1.1204 1.5074ZM122.988 77.5807h6.887l-3.413-9.0876-3.474 9.0876Zm1.89-12.5031h3.108l8.228 20.6149h-3.17l-2.255-5.4892h-8.654l-2.255 5.4892h-3.23l8.228-20.6149ZM109.276 75.2021c2.437 0 4.083-1.5248 4.083-3.9034 0-2.3787-1.28-3.4155-4.51-3.4155h-3.474v6.892c1.28.2881 2.589.4313 3.901.4269Zm-.122-10.0025c4.875 0 7.435 2.1957 7.496 6.2211 0 3.7814-2.864 6.404-7.009 6.404-1.432-.0026-2.861-.1456-4.266-.4269v8.0508h-3.23V65.1996h7.009ZM19.0151 75.3241c-.0251 1.04.1611 2.0744.5474 3.0403.3862.9659.9644 1.8432 1.6995 2.5789.7351.7356 1.6118 1.3143 2.577 1.7008.9652.3865 1.9988.5729 3.0381.5478 1.5463-.006 3.0562-.47 4.3394-1.3335 1.2832-.8635 2.2823-2.0878 2.8712-3.5187.589-1.4308.7415-3.0041.4384-4.5215-.3032-1.5175-1.0484-2.9112-2.1419-4.0054-1.0934-1.0942-2.486-1.84-4.0023-2.1434-1.5164-.3034-3.0885-.1508-4.5183.4386-1.4297.5895-2.6531 1.5892-3.516 2.8734-.8628 1.2842-1.3265 2.7952-1.3325 4.3427Zm19.076 0c0 6.1601-4.6929 10.4904-11.214 10.4904-6.5212 0-11.214-4.3913-11.214-10.4904 0-6.0991 4.7537-10.5515 11.214-10.5515 6.4602 0 11.214 4.4524 11.214 10.5515ZM62.1646 85.5096H58.9955V76.4219H46.1969v9.0877H42.9667V65.2606h3.2302v8.5387H58.9955V65.2606h3.1691v20.249ZM70.697 69.225V85.4486H67.7107V65.1996h3.2301L82.3986 79.5934c.422.5517.6949 1.2029.7923 1.8908V65.1996h2.9254V85.7535H83.1909L71.7331 71.1157c-.4806-.546-.8344-1.1917-1.0361-1.8907Zm83.557 8.5387h.061V65.1996h3.169V77.2148c0 4.0254-.854 6.0381-2.987 7.3189-1.773.9821-3.763 1.5061-5.789 1.5248-2.026-.0277-4.014-.5512-5.79-1.5248-2.133-1.2808-2.926-3.2935-2.926-7.3189V65.1996h3.169V77.7637c0 3.7205 1.89 5.6112 5.547 5.6112 3.656 0 5.546-1.8907 5.546-5.6112ZM7.2525 77.0928V57.5757h3.5958V77.1538c.0846 3.9269-.7722 7.8169-2.4987 11.3443C6.8293 91.2901 4.875 93.8224 2.5597 96L0 93.4384c2.0596-1.8964 3.7897-4.1225 5.1194-6.587 1.4908-3.0318 2.2229-6.3808 2.1331-9.7586ZM168.941 86.7904c1.314 2.4409 3.023 4.6463 5.059 6.526l-2.499 2.5616c-2.133-2.1347-4.266-4.4523-5.79-7.5019-1.726-3.5274-2.583-7.4174-2.498-11.3443V57.4537h3.595V77.0318c.061 4.2084.854 7.2579 2.133 9.7586ZM97.635 49.281h4.51c-.122-1.7688-.731-3.7205-1.219-4.2084-.487.122-.609.122-.609-.244.061-.5489.182-1.9517.182-3.3545-.06-3.4155-.548-7.6848-1.4622-10.4904-.1219-.305-.061-.7319-.1829-.9149-.0609 0-.0609.061-.1218.061-1.219 4.2694-2.6817 8.5387-3.6568 12.9301-.1828.9148-.6095 4.2084.1219 4.7573.4875.061.9142.1829 1.3408.2439.0609.183.0609.305.1219.549.0609.2439.6094.3049.7923.4879.0609 0 .1219.122.1828.183Zm-.9142-.244c.061-.061.061 0 0-.122v.122Zm-29.4977-.9759c.061.122.061.183.3047.122-.0609 0-1.2798-5.4282-2.2549-6.77-.2133 1.0259-.2133 2.0847 0 3.1106.1032.9244.2661 1.8412.4875 2.7445.061.244.1219.366.3657.427.2438.061.5485 0 .7923.061.0703.0248.1341.0651.1869.1179.0527.0528.093.1167.1178.187ZM133.044 49.281h-.182v2.6836h-90.2V49.5249H64.2368c-.1829-.5489-.4876-1.0368-.6095-1.4638-.0609-.6099-.0609-1.2198-.1219-1.8297-.2438-1.0368-.3656-1.8907-.6704-2.9276-.6094-1.8907-1.4627-2.3176-.9751-3.3545 1.6455-2.5616 3.352-4.4523 4.1443-7.9898.304-1.0081.3667-2.0737.1828-3.1105-.0609-.183-.1218-.4269-.1828-.6709-.7077 1.719-1.8402 3.2301-3.2911 4.3913-1.2798 1.0979-4.5709 2.0737-10.7264 2.0737-.2438 0-.5485-.7929-.1219-.7929h.9142c7.5572 0 11.8234-2.3786 12.0672-9.6975v-.366c.061-3.0495.6704-5.3672 1.7675-7.0139.8036-.9759 1.7733-1.8018 2.8644-2.4396 1.8826-.9503 3.8655-1.6868 5.9117-2.1957.7923-.183 1.5846-.305 2.3769-.427 1.0884-.1721 2.1892-.2537 3.2911-.2439h.9142v.1829c.0363 1.4025.3254 2.7868.8532 4.0864.6419 1.3004 1.6074 2.4136 2.8035 3.2326.5289.4075 1.1012.7553 1.7065 1.0368-.0371 1.1939-.35 2.3629-.9142 3.4155-.2641.6242-.6838 1.1701-1.2189 1.5858-.5485.3659-.6095.4269-1.158.061-.1219-.061-.3047-.122-.4266-.244-.1219-.122-.2438-.183-.3047-.244-.4876-.3659-1.0361-.7319-1.5846-1.0978-.7314-.4879-3.8396-2.3787-4.8147-1.7078 0 8.2338-1.5846 9.6976-2.8035 11.4053-1.9503 2.7446-7.6182 6.5261-5.7899 13.1741.2438.6709.4266 1.3418.6704 2.0127.0438.1607.1277.3076.2438.4269.9142 0 1.2799.122 1.6456.6099H93.6126c-.0609-.061-.061-.1219-.1219-.2439-.6095-2.1347-.1219-3.5375-.5485-5.0013-.1828-.061-.7923-.061-.6704-.3659.1219-.5489.5485-1.4638.7313-2.0127.7923-2.5617 1.3409-6.4041 1.7675-9.2707.2438-1.1588-.1829-2.0127-.1219-3.1105-1.3408.183-4.2053-.061-7.6792-2.2567l-.3657-.2439h.2438c.4872-.0984.9588-.2625 1.4018-.4879 1.0413-.5077 1.9892-1.1882 2.8035-2.0127.7026-.6876 1.2801-1.4926 1.7064-2.3787 1.0361.183 1.5846.122 1.9503-.122 1.4018-.9148 1.8893-1.8297 2.6207-3.1715.8204-1.7968 1.2166-3.7585 1.158-5.7331.0101-.3873-.0103-.7748-.061-1.1589.0471-.1093.1086-.2119.1829-.3049.4836-.6544.9117-1.348 1.2798-2.0737.853-1.3418 1.463-2.8666 2.255-4.2694.549-.7319 1.036-1.5248 1.585-2.2567.04-.1646.018-.3383-.061-.4879.243-.7319.426-1.2808.67-1.8907.731-.244 2.438-.7929 2.743-.4269.304.3659 2.437-.061 3.291.305.548.244 1.036.9759 1.828 1.2198 1.524.4269 3.474.183 4.693.9758.122.122-.061.7319-.122.8539-.086.1864-.211.3527-.366.4879-.122.122-.243.305-.365.3659-.137.05-.282.0708-.427.061-.609.061-1.219.061-1.402.061-.244.122-.244.244-.122.366l1.402.183c0 .244.122.4879-.122.7319-.16.1717-.376.2799-.609.3049-.563.1034-1.135.1444-1.707.122-1.95.061-3.9.4879-4.936 1.9517-1.646 2.1347-5.364 15.8576-5.364 31.1053 0 3.7205.061 7.5019.793 8.9047.122.122.122.305.365.5489.915 0 1.28.122 1.646.61h27.486Z" fill="#000000"/>
</svg>