<?xml version="1.0" encoding="UTF-8"?>
<svg xmlns="http://www.w3.org/2000/svg" width="59.97mm" height="56.09mm" version="1.1" viewBox="0 0 170 159">
  <!-- Generator: Adobe Illustrator 30.1.0, SVG Export Plug-In . SVG Version: 2.1.1 Build 136)  -->
  <g id="Calque_1">
    <rect x="-38.9" y="-20" width="247.9" height="208" fill="#272e80"/>
  </g>
  <g id="Calque_2">
    <path d="M133.4,94.5h27.52v-3.85h-29.36v-41.42h-11.63v33.27c0,9.41,4.44,12,13.47,12" fill="#ffd300"/>
    <path d="M51.35,94.5h-23.93c-9.03,0-13.47-2.59-13.47-12v-33.27h11.63v41.42h22.35c.81,1.11,2.56,3.13,3.42,3.85" fill="#ffd300"/>
    <path d="M86.72,48.28c-22.28,0-35.21,10.04-35.21,24.61s13.42,22.57,32.84,22.57c6.67,0,13.48-1.04,18.16-2.71v-4.83c-3.82,2.23-9.58,3.76-15.09,3.76-15.09,0-23.62-10.02-23.62-19.79,0-11.72,9.24-19.86,23.52-19.86,4.95,0,10.64,1.3,14.85,3.58v-5.08c-5.04-1.54-11.56-2.24-15.46-2.24" fill="#ffd300"/>
    <g>
      <path d="M14,110.22v-9.68h3.56c.71,0,1.31.13,1.81.38.5.25.89.61,1.16,1.06.27.46.4.99.4,1.61s-.14,1.14-.41,1.6c-.28.46-.67.81-1.18,1.07-.51.25-1.11.38-1.82.38h-2.7v-1.25h2.64c.43,0,.79-.07,1.09-.22.3-.15.53-.36.69-.63.16-.27.24-.59.24-.95s-.08-.69-.24-.95c-.16-.27-.39-.47-.69-.62-.3-.15-.66-.22-1.1-.22h-2.01v8.43h-1.46Z" fill="#fff"/>
      <path d="M24.85,110.38c-.66,0-1.24-.15-1.73-.46-.5-.31-.88-.73-1.16-1.27-.28-.54-.41-1.17-.41-1.88s.14-1.35.41-1.9c.27-.55.66-.97,1.16-1.28.5-.31,1.08-.46,1.73-.46s1.24.15,1.74.46c.5.31.88.73,1.16,1.28s.41,1.18.41,1.9-.14,1.34-.41,1.88-.66.97-1.16,1.27c-.5.31-1.08.46-1.74.46ZM24.85,109.19c.4,0,.75-.1,1.03-.31.28-.2.5-.49.65-.85.15-.37.22-.79.22-1.26s-.07-.91-.22-1.28c-.15-.37-.37-.65-.65-.86-.28-.21-.63-.31-1.03-.31s-.74.1-1.03.31c-.29.2-.5.49-.65.85-.15.37-.22.79-.22,1.28s.07.9.22,1.27c.15.36.37.65.65.85.28.2.63.31,1.03.31Z" fill="#fff"/>
      <path d="M31.93,110.34c-.47,0-.9-.1-1.27-.31-.37-.2-.67-.51-.89-.92-.22-.41-.32-.91-.32-1.5v-4.35h1.39v4.18c0,.55.13.96.4,1.24.27.28.64.43,1.11.43.31,0,.59-.06.84-.19.25-.13.45-.33.6-.6.15-.27.22-.61.22-1.03v-4.03h1.38v6.95h-1.35v-1.72h.28c-.22.62-.53,1.09-.94,1.39-.4.3-.89.45-1.46.45Z" fill="#fff"/>
      <path d="M37.02,110.22v-6.95h1.33v1.12h.04c.13-.38.33-.68.62-.89.29-.21.65-.32,1.08-.32.1,0,.2,0,.29,0,.1,0,.17.01.23.02v1.29c-.05,0-.15-.02-.29-.04-.14-.02-.29-.03-.45-.03-.27,0-.52.06-.74.19-.23.12-.4.31-.53.55-.13.24-.19.55-.19.91v4.13h-1.39Z" fill="#fff"/>
      <path d="M47,110.34c-.46,0-.87-.08-1.23-.24-.36-.16-.65-.39-.86-.71s-.32-.7-.32-1.16c0-.4.08-.72.23-.98.15-.25.36-.45.62-.6.26-.15.55-.26.88-.34.33-.08.66-.14,1.01-.18.43-.05.77-.09,1.02-.13.25-.03.44-.09.55-.16.11-.07.17-.19.17-.36v-.05c0-.23-.05-.44-.16-.61-.11-.18-.27-.31-.47-.41-.21-.1-.46-.15-.75-.15s-.55.05-.78.15c-.22.1-.4.23-.54.39-.13.16-.22.34-.25.54l-1.34-.07c.06-.44.21-.82.47-1.13.26-.32.59-.57,1.01-.74.42-.18.9-.26,1.44-.26.39,0,.75.05,1.09.15.34.1.63.25.88.44.25.2.44.44.58.73.14.29.2.63.2,1.02v4.73h-1.36v-.97h-.03c-.1.18-.23.36-.4.53-.17.17-.39.31-.66.41s-.6.16-.99.16ZM47.29,109.23c.4,0,.73-.07,1-.22.27-.15.47-.34.6-.58.13-.24.2-.5.2-.78v-.83s-.13.08-.25.11c-.12.03-.25.07-.41.1-.16.03-.32.06-.5.09-.18.03-.35.05-.52.07-.25.03-.49.09-.7.17-.22.08-.39.19-.53.34-.13.15-.2.34-.2.58,0,.2.05.38.16.52.11.14.26.25.46.33.2.08.43.11.69.11Z" fill="#fff"/>
      <path d="M53.47,100.54v9.68h-1.39v-9.68h1.39Z" fill="#fff"/>
      <path d="M56.48,100.54v9.68h-1.39v-9.68h1.39Z" fill="#fff"/>
      <path d="M61.08,110.38c-.68,0-1.27-.15-1.77-.46-.5-.31-.88-.73-1.14-1.28-.26-.54-.4-1.17-.4-1.87s.14-1.33.41-1.88c.27-.55.65-.98,1.14-1.29.49-.31,1.04-.47,1.68-.47.47,0,.9.08,1.3.25.39.16.73.4,1.02.72.29.31.51.69.67,1.14s.24.94.24,1.5v.41h-5.78v-1.05h5.06l-.62.32c0-.43-.07-.81-.22-1.13-.15-.32-.36-.57-.64-.74-.28-.18-.61-.26-.99-.26s-.71.09-.99.26c-.28.18-.5.42-.65.73-.15.31-.23.68-.23,1.09v.62c0,.45.08.84.23,1.17.16.33.38.59.67.78.29.18.64.28,1.06.28.29,0,.55-.04.78-.13.23-.09.41-.21.57-.38.15-.16.27-.35.33-.57l1.33.07c-.09.42-.28.8-.56,1.12-.28.32-.63.58-1.06.76-.42.18-.89.28-1.41.28Z" fill="#fff"/>
      <path d="M65.48,110.22v-6.95h1.33v1.12h.04c.13-.38.33-.68.62-.89.29-.21.65-.32,1.08-.32.1,0,.2,0,.29,0,.1,0,.17.01.23.02v1.29c-.05,0-.15-.02-.29-.04-.14-.02-.29-.03-.45-.03-.27,0-.52.06-.74.19-.23.12-.4.31-.53.55-.13.24-.19.55-.19.91v4.13h-1.39Z" fill="#fff"/>
      <path d="M76.04,110.36c-.59,0-1.12-.15-1.57-.45-.45-.3-.8-.72-1.05-1.26-.25-.54-.37-1.17-.37-1.9s.13-1.35.38-1.89c.25-.54.6-.96,1.05-1.26.45-.3.97-.45,1.56-.45.33,0,.63.05.9.15.27.1.5.23.7.41.2.17.37.37.5.6h.03v-3.76h1.38v9.68h-1.36v-1.07h-.04c-.13.24-.3.45-.51.63s-.44.32-.71.42c-.27.1-.56.15-.89.15ZM76.32,109.17c.39,0,.73-.1,1.02-.3.29-.2.51-.48.66-.85s.23-.79.23-1.27-.08-.91-.23-1.27c-.15-.36-.37-.64-.66-.84-.29-.2-.63-.3-1.02-.3s-.71.1-.99.29c-.28.19-.5.47-.65.82-.15.36-.23.79-.23,1.3s.08.94.23,1.3c.15.36.37.64.65.83s.61.29.99.29Z" fill="#fff"/>
      <path d="M84.14,110.38c-.68,0-1.27-.15-1.77-.46-.5-.31-.88-.73-1.14-1.28-.26-.54-.4-1.17-.4-1.87s.14-1.33.41-1.88c.27-.55.65-.98,1.14-1.29.49-.31,1.04-.47,1.68-.47.47,0,.9.08,1.3.25.39.16.73.4,1.02.72.29.31.51.69.67,1.14.16.44.24.94.24,1.5v.41h-5.78v-1.05h5.06l-.62.32c0-.43-.07-.81-.22-1.13-.15-.32-.36-.57-.64-.74-.28-.18-.61-.26-.99-.26s-.71.09-.99.26c-.28.18-.5.42-.65.73s-.23.68-.23,1.09v.62c0,.45.08.84.23,1.17.16.33.38.59.67.78s.64.28,1.06.28c.29,0,.55-.04.78-.13.23-.09.41-.21.57-.38.15-.16.27-.35.33-.57l1.33.07c-.09.42-.28.8-.56,1.12s-.63.58-1.06.76c-.42.18-.89.28-1.41.28Z" fill="#fff"/>
      <path d="M93.18,100.54v9.68h-1.39v-9.68h1.39Z" fill="#fff"/>
      <path d="M94.62,103.96l.55-3.42h1.44l-.99,3.42h-.99Z" fill="#fff"/>
      <path d="M99.05,110.34c-.46,0-.87-.08-1.23-.24-.36-.16-.65-.39-.86-.71-.21-.31-.32-.7-.32-1.16,0-.4.08-.72.23-.98.15-.25.36-.45.62-.6.26-.15.55-.26.88-.34.33-.08.66-.14,1.01-.18.43-.05.77-.09,1.02-.13.25-.03.44-.09.55-.16.11-.07.17-.19.17-.36v-.05c0-.23-.05-.44-.16-.61-.11-.18-.27-.31-.47-.41-.21-.1-.46-.15-.75-.15s-.55.05-.78.15c-.22.1-.4.23-.54.39-.13.16-.22.34-.25.54l-1.34-.07c.06-.44.21-.82.47-1.13.26-.32.59-.57,1.01-.74.42-.18.9-.26,1.44-.26.39,0,.75.05,1.09.15.34.1.63.25.88.44.25.2.44.44.58.73.14.29.2.63.2,1.02v4.73h-1.36v-.97h-.03c-.1.18-.23.36-.4.53-.17.17-.39.31-.66.41s-.6.16-.99.16ZM99.34,109.23c.4,0,.73-.07,1-.22.27-.15.47-.34.6-.58.13-.24.2-.5.2-.78v-.83s-.13.08-.25.11c-.12.03-.25.07-.41.1-.16.03-.32.06-.5.09-.18.03-.35.05-.52.07-.25.03-.49.09-.7.17-.22.08-.39.19-.53.34-.13.15-.2.34-.2.58,0,.2.05.38.16.52.11.14.26.25.46.33s.43.11.69.11Z" fill="#fff"/>
      <path d="M105.85,110.22l-2.64-6.95h1.48l1.38,3.85c.13.38.26.75.37,1.13.11.38.23.75.34,1.12h-.35c.11-.37.23-.75.34-1.12s.23-.75.36-1.13l1.36-3.85h1.47l-2.64,6.95h-1.47Z" fill="#fff"/>
      <path d="M112.88,110.34c-.46,0-.87-.08-1.23-.24-.36-.16-.65-.39-.86-.71s-.32-.7-.32-1.16c0-.4.08-.72.23-.98.15-.25.36-.45.62-.6.26-.15.55-.26.88-.34.33-.08.66-.14,1.01-.18.43-.05.77-.09,1.02-.13.25-.03.44-.09.55-.16.11-.07.17-.19.17-.36v-.05c0-.23-.05-.44-.16-.61-.11-.18-.27-.31-.47-.41-.21-.1-.46-.15-.75-.15s-.55.05-.78.15c-.22.1-.4.23-.54.39-.13.16-.22.34-.25.54l-1.34-.07c.06-.44.21-.82.47-1.13.26-.32.59-.57,1.01-.74.42-.18.9-.26,1.44-.26.39,0,.75.05,1.09.15.34.1.63.25.88.44.25.2.44.44.58.73.14.29.2.63.2,1.02v4.73h-1.36v-.97h-.03c-.1.18-.23.36-.4.53-.17.17-.39.31-.66.41s-.6.16-.99.16ZM113.16,109.23c.4,0,.73-.07,1-.22.27-.15.47-.34.6-.58.13-.24.2-.5.2-.78v-.83s-.13.08-.25.11c-.12.03-.25.07-.41.1-.16.03-.32.06-.5.09-.18.03-.35.05-.52.07-.25.03-.49.09-.7.17-.22.08-.39.19-.53.34-.13.15-.2.34-.2.58,0,.2.05.38.16.52.11.14.26.25.46.33.2.08.43.11.69.11Z" fill="#fff"/>
      <path d="M119.34,106.19v4.03h-1.39v-6.95h1.35v1.72s-.27,0-.27,0c.22-.62.53-1.09.93-1.39.4-.3.89-.45,1.46-.45.48,0,.9.1,1.28.31.37.21.67.51.88.91.21.4.32.91.32,1.51v4.35h-1.38v-4.18c0-.55-.13-.96-.4-1.24-.26-.28-.64-.43-1.12-.43-.31,0-.59.06-.84.19-.25.13-.45.33-.59.6-.15.27-.22.61-.22,1.03Z" fill="#fff"/>
      <path d="M128.79,103.27v1.14h-3.97v-1.14h3.97ZM125.99,101.43h1.38v6.94c0,.26.05.45.16.56.11.11.3.16.58.16.1,0,.21,0,.33,0,.13,0,.23,0,.32-.01l.06,1.14c-.13.01-.27.02-.43.03-.16,0-.32,0-.47,0-.65,0-1.14-.14-1.46-.43s-.48-.71-.48-1.27v-7.11Z" fill="#fff"/>
      <path d="M130.76,110.33c-.26,0-.47-.09-.65-.27s-.27-.4-.27-.65.09-.47.27-.65c.18-.18.4-.27.65-.27s.47.09.65.27.27.39.27.65-.09.47-.27.65c-.18.18-.39.27-.65.27Z" fill="#fff"/>
    </g>
  </g>
</svg>