<svg xmlns="http://www.w3.org/2000/svg" viewBox="0 0.0757 115.3 34.67">
	<path d="m6.9058 20.9354v3.809c0 2.6094 1.3012 4.4025 5.1477 4.4025.6221 0 1.2155-.0408 1.7881-.1359v5.5099c-.8238.1366-1.7841.224-2.806.224-7.0148 0-11.0309-3.9131-11.0309-9.837l.0043-3.9725H.0043v-6.0527-6.6051L-0 4.3899 6.9027.0757v8.3263h6.9017v5.3309l-6.9017.0003.0043 7.2022zm101.1862 13.7345-.127.075V8.743h7.382v21.6963zm-82.706-15.885c.7395-3.866 3.4077-5.8577 6.8769-5.8577 3.4642 0 5.7933 1.829 6.3635 5.8577zm6.8181-10.9086c-7.9558 0-13.7488 5.5368-13.7488 13.49 0 7.7906 5.169 13.3786 13.6924 13.3786 7.778 0 11.6505-3.888 12.8137-8.2714h-6.6071c-.6448 1.4763-2.2727 3.0574-5.9217 3.0574-3.9779 0-6.6485-2.4165-7.1595-6.7147h19.9426v-1.3431c0-8.2202-4.7712-13.5968-13.0116-13.5968zm29.9709 4.783c-3.3193 0-4.8333 1.0743-4.8333 2.7402 0 2.1336 2.7611 2.6646 6.0229 3.2919 4.7069.9053 10.4566 2.0112 10.4566 8.4225.0582 4.729-4.5424 7.631-12.112 7.631-7.9199 0-11.8211-3.0091-11.8796-8.3291l6.1727.0531c.1749 2.2569 1.8053 3.4933 5.7069 3.4933 3.6684 0 5.2403-1.0213 5.2403-2.6866 0-2.2102-2.8443-2.788-6.1695-3.4636-4.6787-.9506-10.3096-2.0947-10.3096-8.2514 0-4.7283 4.4838-7.6843 11.7625-7.6843 7.1627 0 11.0639 3.009 11.1806 8.222h-6.2309c-.1746-2.3107-1.9799-3.439-5.0076-3.439zm23.7727 2.7402c0-1.6659 1.514-2.7402 4.8334-2.7402 3.028 0 4.833 1.1283 5.0079 3.439h6.231c-.117-5.213-4.0183-8.222-11.1807-8.222-7.2789 0-11.7627 2.956-11.7627 7.6843 0 6.1567 5.6309 7.3008 10.3095 8.2514 3.3252.6756 6.1695 1.2534 6.1695 3.4636 0 1.6653-1.5716 2.6866-5.2408 2.6866-3.9012 0-5.5313-1.2364-5.7065-3.4933l-6.1725-.0531c.0585 5.32 3.9598 8.3291 11.879 8.3291 7.5709 0 12.1712-2.902 12.1122-7.631 0-6.4113-5.7494-7.5172-10.4564-8.4225-3.2618-.6273-6.0229-1.1583-6.0229-3.2919zM115.347 5.2761h-7.382V.0757h7.382z" fill="#fff"/>
</svg>