<?xml version="1.0" encoding="UTF-8"?>
<svg id="Layer_2" data-name="Layer 2" xmlns="http://www.w3.org/2000/svg" viewBox="0 0 495.87 272.73">
  <defs>
    <style>
      .cls-1 {
        fill: #222;
      }
    </style>
  </defs>
  <g id="Layer_1-2" data-name="Layer 1">
    <path class="cls-1" d="M283.43,233.48c-.67-.84-1-1.69-2-2.2-2.67.17-4.83-.68-5.83-3.05.67-1.52-1.5-2.03-.66-3.55-1.17-1.01-2-2.37-3.67-2.02-.17-.17-.83-.51-.67-1.02-.5-1.35-2-2.54-1.33-3.72,1.17-.85,0-2.03.83-2.88-.5-1.19-.33-2.88-.67-4.4-.67-2.03.66-4.23.17-6.43.17-.17.17-.34.33-.34.67-3.21-1.5-5.41-.66-8.8.66-.33-.17-1.52.66-1.69v-.68c1.33-1.01,2-2.37,3-3.72.67-1.52-1-1.86-1.17-3.05-1.83-1.86-3-3.89-4.17-5.92-1.67-.17-1-1.86-2-2.88.17-.84-1-1.86-.67-3.21.67-2.71.17-5.76.33-8.46-.66-1.35-.17-2.88,0-4.4,1.83-2.03,0-4.74.67-7.11.33-.85,1-1.69.67-2.71.33-2.2-.83-4.9-.17-7.44,1-.51,0-1.69,1-2.2,0-1.01-.17-2.02.33-2.37,0-.67-.66-1.52-.83-2.37-.33-.51-.67-1.02-1.33-.68-.67-1.18-1.83-2.71-.67-4.06-.17-.85.5-1.86.83-2.71-.17-1.86.5-4.23-.5-5.92-1.67-3.21.66-6.26-.33-9.64.83-.85.33-2.2.5-3.21-1.83-1.36,0-3.21-1.16-4.74,1-2.37.17-5.25.17-7.62-1-1.86.17-4.06-.33-5.75.5-2.2.17-3.72.17-5.92,1.5-1.52-.33-2.88-.17-4.57.66-1.69-.17-3.72.17-5.41l-.17-.34c0-3.72-.67-7.28-.5-11.34-1.67-1.18.83-2.71-.33-4.4.5-1.36-.33-2.37-.33-3.55,1.17-.17,1.5-1.36,2.5-2.03,1.33.34,2-1.02,3-1.69-.67-1.35,1.17-1.52.67-2.88-1.5-.85-.5-2.54-.67-4.23-.67-.17-.5-.68-.5-1.19-.17-.17-.5-.68-.83-.51-.67-1.01-2.33-.68-2.83-2.03-3-.51-3.17-4.23-5.33-6.09-1.17.68-1.67-.85-2.5-.85-1.17-1.52-3.67-2.88-3.5-4.74,0-.17-.33-.17-.33-.34-.33-.68-.5-1.52-1-2.03.17-.85.17-1.69.17-2.37.17-.17.83-.5,0-.84,0-1.36-.17-2.88,0-4.57-.17-.34-.66-.34-.83-.84-.33-.85.17-1.19,0-1.52s-1.67-2.88-3.5-3.05c-1.17.68-1.5,1.36-1.67,2.2-.5.34-.17.85-.33,1.36-.5,1.02-.33,2.88-.33,4.23,0,1.02-.5,1.36-.5,2.2,0,.34,0,3.21-.83,4.23-.17.85,0,1.36-.33,2.2-.33.67-1,1.35-1.5,1.86-.17.68-.83,1.35-1.5,2.03-.5.68-1,.51-1.17.68-.5.34-.33.68-.5.85-.17.17-.33.17-.5.34-.67.67-.83,1.35-1.33,1.86-.33.34-.67.34-1,.68-.67.67-.33,1.18-1.5,1.86-.17.17-.33.68-.5.85-.36.19-.65.49-.83.85-.33.33-.83.33-1,.67-.66.85-1.17,1.69-1.5,2.54-.17.51.33,1.02-.33,1.19,0,.17,0,.85-.33.85-.5,1.01-.17,2.88.17,3.38.5.67-.33,1.01-.17,1.18,0,.68.33.51.66,1.02.17.34,0,.68.17,1.01.33.51,1,.17,1.17,1.52,0,.51,1,.68,1.83,1.69.17.17.66.67.83,1.18.17.68.17,1.19.33,1.36.17.84-.17.84-.17,1.18s.17.34.33.68c.17.34.17.85.5.85.33.17.33.84,0,1.35-.67.51,0,.68,0,1.02,0,.51-.33.85-.33,1.19,0,.17.33.33.33.67.17.34.17,1.52-.33,1.36-.17,0,0,1.52-.33,1.35-.33-.17-.17,4.91-.17,5.58,0,.34-.33.51-.33,1.02v2.2c0,.17.33.51.33.85.17,1.02-.17.51-.33,1.19,0,.17.33.17.17.67,0,.17-.33.17-.33,1.02-.17.68,0,2.54,0,3.05-.17.85,1,1.52,0,1.69v7.11c1,2.19,1.33,4.57,1.83,7.1-.67,1.18-.67,3.21,0,4.57-1.5,1.36.17,3.89-1.5,5.25v7.61c.5.51.33,1.01,0,1.52,1.17.85-.67,1.36,0,2.37,1,.68-.17,1.86,1.17,2.37-.83,1.52.17,2.88.17,4.4,1,.51-.66,1.02.17,1.69,0,.51.17,1.01-.17,1.35.67,1.86-1.33,2.71-.67,4.74-.33,1.52-.33,3.38,0,4.9-.17.34.17,1.02-.33,1.19.67,4.23-.17,8.46.67,12.86-1.17,5.41.67,11.17.67,16.41l.33.67c-.17,2.03-.5,3.89-2.5,5.25-1.5-.34-1,1.52-2.17,1.86,0,.17-.17.51.17.68-1,2.37-3.83,3.21-5.5,5.07v3.21c1,.68.67,2.2,1.83,2.54.5.68,1.5,1.52,1.17,2.37,1.83,1.86,1,5.25,1,7.79h-.17c0,1.18.5,2.37.17,3.55h-.17c-.83,2.54,1.5,3.89.83,6.43,0,2.03,1.17,4.74.17,6.94-.83,3.21-4.17,2.02-5.83,4.73-.5.51-.67,1.19-1,1.69.17.68.17,1.01-.17,1.35.5,2.54-2,4.4-3.67,5.76.5.84-.5,1.18-.66,1.86.17,1.01,0,2.37.66,3.38,0,1.52,1.67,1.86,2,3.21,1.83-.85,5,.84,5.83-1.52.83.17,1.83-.34,2.5.34-.17-.17.17-.34.17-.51h3.33c1.17,1.69,2.83-.17,4.5.51,1.17.68,2.5-.17,3.83-.34.67.68,1.83.17,2.67.34.67.68,1.5.85,2,1.52,3.33.17,5.67-1.02,8.83,0,.5-.85,1.5-.34,2.17-.51,1.5-.85,2.83.34,4.5.17.5-.17.83-.67,1.5-.5,1.17-1.19,3.5-.85,4.83-.34.5.85,1.5.51,2.17,1.19,1.67-.17,3.33-.68,5.17-.51,1-1.02,2.17-1.36,3.67-1.02,1-.68,3.17-1.52,2.33-3.21,1.33-1.35,1.17-2.54.67-3.89h0ZM257.93,181.03c.17.17.5.68,1,.51-.17.34.17.34.33.34.34-.34,1.34-.17,2-.17.67.51.83,1.19,1.17,1.86-.67.51-1.17,1.86-2.5,1.52-1.17.67-1.67-1.19-2.83-.68-1-.51-1.5-1.19-2.17-2.03.33-1.69,2.17-1.69,3-1.36h0ZM254.1,177.64c-.67-1.01-.83-1.69,0-2.71.67-.68,1.17-1.18,1.33-2.03,2-.51,3-5.07,5.17-2.2.33,2.02.5,4.23-.17,5.92-1.33,1.18-3,2.37-4.67,1.69-.5,0-1.33,0-1.67-.68h0ZM260.6,160.9c-.83,2.37-2.5,4.23-4,6.26-2,.34-2.67,2.54-4,3.72-1.17,1.02-.67,2.2-1.83,3.22-.17,1.52-1.67,2.54-2.17,3.72-1.67,0-2.5,2.71-4.67,1.52-1.67-.68-2.83-2.03-2.83-3.72.5-.34.17-1.52.67-1.86-1-1.36,2-2.03,1.5-3.55,4.5-4.57,9.67-8.46,12.5-14.04.83-1.36,2-2.2,3.33-3.55.66.17,1.5.17,2,1.01-.83,2.54,1,5.25-.5,7.27h0ZM251.76,183.23c0,1.19-1.5,1.02-2.5,1.86-1.17,0-2-1.01-3.33-.84-.67-.34-1.17-.34-1.5-1.02-.67-.67,0-1.52.83-1.86,2.17.51,5-.34,6.5,1.86h0ZM260.1,142.12c0,.51,0,1.02-.33,1.19.17,1.52-.67,2.71-.67,4.06-2.17,1.69-3.83,4.23-6,5.59-3,4.23-6.5,7.44-9.67,11.67-.5.17-1,.67-1.5.51-.83-.17-1-1.19-1.5-1.86,0-1.19-.33-2.71.83-3.55-.17-2.37,1.17-4.06,2-6.26.5-1.01,1-2.37,2.5-2.37,2.33-2.37,6-5.07,6.83-8.29,1.5-2.37,4.67-3.21,5.83-5.75,1.17-.34,1.67,1.02,2.5,1.69-.17,1.35-1.33,2.37-.83,3.38h0ZM260.1,124.86c.17,2.37-2.83,3.72-2.33,6.09,0,.68-.17.68-.67,1.19h-.17c.17,2.02-2.83,2.88-3.33,4.9-2.94,2.14-5.43,4.84-7.33,7.95l-1.17,1.02c.33,1.02-.83,1.52-1.5,2.2-.67,0-1.17.68-1.83.34-1.17-1.19-1.67-3.21-1.17-5.07,1.5-1.02.83-3.21,2.33-4.57,1.33-3.72,4.67-6.6,7.67-8.97.17-1.01,1.67-1.52,1.67-2.88.67-1.01,2.17-1.01,2-2.37,2.67-1.19,1.17-5.25,4.17-6.26,1.33.68,2.33,1.36,2.67,2.88-.17,1.52-1.5,2.37-1,3.55h0ZM258.76,107.77c-.17,1.35,0,2.88-.67,3.72-1.17.85-1,2.54-2.17,3.72v.68c-1.17,2.2-4.17,3.05-4.33,5.75-2.17,1.69-3.33,4.57-4.67,6.77-1.5.85-2.5,3.72-4.33,2.37-.67-.51-1.5,0-2-1.02.33-1.35-.17-2.37.17-4.06-.33-2.03,1.5-2.88,2-4.74,2-2.54,3.17-5.58,5.33-7.95,1.67-2.2,4.33-3.21,5.17-6.26.83-.68,1.17-2.03,2.17-2.88,0-1.01,1-1.18,1.17-2.03.83-.17,1.5-.17,2.5-.51l1.5,2.03c-1.17,1.52-.83,3.05-1.83,4.4ZM259.26,85.27c-.5,1.86,1,3.55-.33,5.08.83,1.52-1,2.54-.83,4.06l-2.5,3.55c-3,4.06-6.67,7.62-9.5,11.84-.66,0-1.17.68-1.67,1.36-.67,1.52-1,3.38-2.67,4.06-.67.51-1.33-.34-1.67-.67-1.67-1.02.17-2.03,0-3.21.67-1.86-.33-4.23,1-5.75.17-.68-.17-1.02-.17-1.69,2.5-1.52,2.67-4.57,4.5-6.77l6.33-6.76c1,0,1-1.36,1.83-2.03.33-1.52,1.17-3.21,2.67-4.4,1.33,0,2.67,0,3,1.35h0ZM258.43,68.86c1,2.2,0,4.57,0,6.77-2.83,4.4-7.5,8.46-10.17,13.19-2.5,1.52-3.67,4.23-6,6.43-1.17-.17-2.5.17-3-1.18.5-1.19-1-3.39.17-4.57,0-1.52,1.83-2.88,2-4.57.5-1.52,2.83-1.36,2.17-3.21,1.83-1.19,2.83-3.21,4.83-4.4v-.34c2.83-1.86,2.5-5.92,5.66-7.11.67-1.18,1.34-1.18,2.17-2.37,1.17-.17,1.83.68,2.17,1.36h0ZM257.93,57.19c.67,1.35-1,2.03-.67,3.55-2.5,3.38-5.33,6.09-8.17,9.31-1.5.33-1.17,1.69-1.83,2.71-1.33,2.03-3.5,2.71-4.17,4.9l.17.17c-1,.51-1.33,1.86-2.83,1.36-1.67-1.19-.66-3.21-1-4.91.67-1.01-.66-1.86-.17-3.05,1.17-1.86,2.67-4.57,5-5.75,1.33-3.72,4.5-6.26,6.83-9.31l.17.17c.83-.17.67-1.18,1.33-1.52.17.17.5.34.67.68.67.17,1.17-.68,2-.51,1.17.51,2.67.84,2.67,2.2h0ZM241.94,39.08c2-.68,3.33-3.05,5.5-2.71.83.17,1.5.51,2.5.34,1.17,1.52,3.17.51,4.5,1.69.66.84,2.5.67,2.17,2.19,1.33.68.67,1.69.67,2.88-1,1.52-2.17,1.35-3.83,1.35-.83-.34-1.5-1.52-2.5-.85-1.17.51-3,.85-4.17.34-1.33.68-2.5-.68-3.67.17-.83-.51-2-.51-2.5-1.69-.5-1.52.83-2.53,1.33-3.72h0ZM243.1,53.8h-.5c-.17-.34.5-.85.67-.51.17.17,0,.34-.17.51ZM239.1,56.68l1.83-1.52c1.5.34,2.67-.51,3.67,1.35.33-.17.66.34.83.51-1.17,1.69-2.17,5.41-5.17,4.74-.67.17-1.17-.34-1.5-.67-.33-1.52-.67-3.21.33-4.4h0ZM237.27,185.77c0,.33-.67.33-.67,0h.67ZM235.6,215.71c.5-1.52,0-3.89.5-5.58-.83-.85.67-1.69-.17-2.54.33-3.72-.33-7.95-.17-11.67.5-1.01.83-1.86,1.5-2.71,2.33-.34,4.67.68,7.33.17,1.17-1.36,3.17-1.02,4.33-1.52l.67.51c2-.17,4.5-.67,6,1.52,2.5.34,5-.51,7.67-.51-.17.34.17.34.17.51,1.5,0,1.17,1.52,2,2.37-.67.68-.17,1.86-1.17,2.03,1.17,1.69-.17,4.57.66,7.11.5,3.21.17,6.43.17,9.48-1,1.01.33,2.03.17,3.21.17.5.17,1.01.17,1.52-.17.68-.83,1.69-1.16,2.37-1.33.85-3.83.34-5.67.51-1.33.17-3.33-.17-4.67.34-2-.68-4.33-.17-6.33-.68-1.17.68-2,.17-3.33.51-1.33-.51-2.83-.17-4.17.34-.83,0-1.67.51-2.33.51-3.83-1.02-1.83-5.25-2.17-7.79h0ZM229.77,230.26c-1.5-1.02-.5-2.03-.67-3.39,1.33-1.01,3.5-.17,5.17-.67.5-1.19,2-.34,2.67-.68,2.83-.34,5.33.17,8.17-.34,1.17.85,2.67-.51,3.83.17.67.17,2-.34,2.5.51l4-.34c2-.34,4.17,1.52,6.33.34,1,0,2.67-.85,3.17.68.61-.35,1.3-.52,2-.51.83.51,1.83.85,2.83,1.18,1.33,1.02-.5,1.52-.17,2.88-1.17,1.01-3.17-.34-4.17,1.01-1.33-.34-3.17-.17-4.33.17-1-.68-2.5.17-3.5-.17-.33.5-.83,0-1.33,0-1.17-.68-3.33-.68-4.5,0-1.67-1.19-2.83.5-4.5-.34-2.5-.33-4.5.85-7,0-2.83.17-6,1.19-8.67-.17-.5.33-1.33.17-1.83-.34h0ZM270.1,237.03c-.5,0-1-.17-1.5.17-1.17-2.54-4.33-1.01-6.5-1.35-2,1.52-4.67.67-7,1.35-1.5-1.35-3,.85-4.67-.17-2.83.33-5.17-.34-8,.17-1.83.17-4.17-.85-6.17.17-1.17-.68-3.17-.17-3.67-2.03,1.17-2.03,3.83-1.02,5.67-1.19,1.17-.17,2.83.85,4.17.34.5.34.67.34,1.17.17.83-.68,1.5-.34,2.33-.68.67.85,2,.34,2.83.51,0,.17.17.17.33.34,1.17-.17,1.5-1.02,3-1.02,2.33,1.02,4.17.68,6.83.17,1.17,2.03,3.5.17,5,.34,1.67.85,3.33.17,5.17.17.67.17,1.67.17,1.83,1.02,0,.34-.17.67-.83,1.52h0ZM361.9,169.86c-.5-.5-.83-1.18-.83-1.69-.33-.51-.5-1.02-1.17-1.52-.17-1.52-2-2.37-2.67-3.89-.67-.34.5-1.02-.5-1.02.17-1.69-1.5-2.88-1.5-4.4-.83-.17-.17-1.02-.67-1.52.67-3.21-2.67-4.57-2.83-7.61-2.33-1.52-2-4.4-3-6.26-1-.68-.67-2.37-2-2.88-1-2.03-1.17-3.89-1.5-5.92-1.17-2.37-2.5-4.23-3.83-6.6,0-.51,0-1.02-.5-1.19-.17-.84-.17-1.52-.67-2.2.17-1.52-.33-2.88-1.17-3.89.33-1.86-2.17-1.69-2-3.21-1.5-.34-1-2.37-2.17-2.88-1.5.17-2.83-.51-4.17-1.52l-4.33-.17c-2.17-.17-3.83,1.01-5.17,2.7.17.51-.33.68-.67,1.02-1.33.68-1.5,2.37-2.17,3.72-.5.51-.67,1.19-1,1.53v1.69c-1.5.33.17,1.52-.83,2.02.17,2.2-1.67,3.73-1.5,5.76.33-.17-1.5,3.05-1.5,3.05,0,1.69-1.67,2.54-1.67,4.23-.83,1.01-1.33,2.37-1,3.72-1,1.52-1.17,3.39-1.67,4.91,0,1.86-2.33,3.21-2,5.41-.17.51-.33,1.18-.67,1.52.5,1.19-.83,1.52-.67,2.37-.17,2.37-2,3.38-2.17,5.58-.33.85-1,1.69-1.17,2.88.67,1.69-2,1.86-1.17,3.55-1.5.33-.17,2.02-1.17,2.54.17,1.52-.5,3.55.67,4.57.5,1.86,2.5,1.52,4.17,1.86,1.17,0,2.33.68,3.33,0,1.67.51,2-1.52,3.5-1.01,1.67-.34,1.5-2.37,1.83-3.72h.17l.17-2.71h.17c.5-.34-.33-.68.33-1.02,0-2.03,1.17-3.05,1.33-4.9,1.5-1.19,1-3.05,2.33-4.4-.33-1.01.5-1.52,1-2.02,2.83-.68.67-2.54,6.33-2.03.33,0,1,.17,1.67,0,.5.84,2.83-.17,3.17.84.67-.17,1.5.34,2-.5.66.17,1.33-.17,1.83.34,1.5.5,3.5-.68,5,.33,1.17,2.2,3.83,3.05,4.17,5.75.17,1.52,1.17,2.88,1.33,4.57,1.17,1.52,1,3.55,2.33,4.9-.33.68.67,1.02,1,1.52,1.17,5.07,6.67,2.54,10.5,3.55,1.17.33,1.33.17,2.17-.51,1.83-1.19,1-3.55,1.17-5.25ZM351.74,168.51c-2.5-1.02-1.5-3.38-3.17-4.74.17-1.69-2.33-1.52-1.67-3.39-1.33-1.86-1.5-3.38-2.5-5.58.67-1.52-1.5-2.03-1.33-3.21-.67-.85-1-1.36-2-1.86-2.67.5-5.17.33-7.66,1.01-1.33.51-2.83-1.19-3.83.17-1.33-.67-2.83.51-4.67,0-.67-1.01-3.17-.67-4.83-1.18-1,1.02-1.67-.84-2.66.17,1,1.86-1.83,2.54-2,3.89-.17,1.02-1.17,1.36-.83,2.37-1.5,1.69-1.83,4.06-2.17,5.92-.67.68-.5,1.36-.67,1.86-.83,1.02-1.5,2.37-2.5,3.39.17.33-.17.67-.33.84-.67.17-1.5-.34-1.83.34-1-.51-.83-1.52-.83-2.37.5-1.52.67-2.88,2-3.89.33-1.19.17-2.2.83-3.38,2.67-3.05,1.83-7.61,4.66-10.66-.17-1.01.67-1.52.5-2.53,1.17-1.52,2-4.06,1.67-6.09.83-.68,1.67-1.52,1.67-2.88l.5-.51c0-.85,1-1.52.84-2.54-.33-4.4,3-6.6,3.67-10.66,2.17-1.52.33-4.06,2.83-5.41,2.5.68,5.67-3.21,6.83.68-.83,1.86,1.5,2.03,1.33,3.72,1,.68,2.33,2.03,2.17,3.22,1,.67.5,1.86,1.5,2.37.5,1.01,1.5,1.52,1.5,2.88,2.67,1.18.83,4.23,2.83,5.75-.5,1.01,1,1.52.5,2.71,1.33,2.03,1.83,4.4,3.5,6.26v.51c-.17-.17-.33.17-.5.17-.17,1.02,1.16,1.02,1.33,1.86-.33,1.19,1.67,1.86,1,3.38l-.17.34c1.67.84,1.17,2.54,2.33,3.72.17,2.37,2.83,3.89,3,6.26,1.33,1.86,1.67,3.55,2,5.75-.67,1.19-1.67,1.69-2.83,1.36h0ZM150.29,114.37c-2-1.52-4.33-1.01-6.67-.5-1.17,1.52-3,1.01-3.83,2.88-.67,2.02-2.83,3.38-2.83,5.92-1.5,1.86-2,4.4-2.33,6.76-.67,1.02-1.33,2.03-1.5,3.21-1.5,1.02-.67,2.54-2,3.72-.67,1.86-1.5,3.72-2.83,5.41.83,2.37-2.17,3.21-1,5.58-.66,1.02-.33,2.88-1.17,3.89-.83,1.52-1.83,3.38-3,4.9-1.17-.17-2.5.51-3-.67-.5-2.2-3-3.55-2.67-5.93-1.33-1.01-.33-3.04-1.5-4.06-.33-1.02-1-2.37-1.17-3.38.67-1.19-1.5-1.52-.67-2.71-1-.68-.67-1.86-1.17-2.88-.17-1.69-2.33-2.54-2-4.57-1-.68-.67-1.52-.67-2.71-2.17-2.02-1.5-5.58-3.83-7.61l.17-.17-.33-.51c.33-1.01-1-1.52-.67-2.88-1.83-1.52-1.83-3.38-4-4.57-.17-1.52-1.33-.51-2-1.69-.83.34-.83-.84-1.67-.51-1.83,1.02-4.5.85-5.33,3.21-.65,1.31-.52,2.87.33,4.06,0,1.02.33,2.54.83,3.38,2,0,.5,2.37,2,2.88.67,1.35.17,2.88,1.5,3.89-.66,2.37,1.83,3.72,1.5,5.92.33,1.02,1.33,1.86,1.17,2.88.67,1.52,2,3.21,2,4.9,1.5,1.52,1.67,3.38,2.83,5.07,1,1.86.33,4.57,2.5,5.92-.67,1.86,1.17,3.05,2.17,4.57-.33.51.5.84.33,1.18.5,1.36,1.17,2.88,1.5,4.06-.17,1.52,1.5,2.54,1.83,3.72.17,2.03,2.5,3.72,2,6.1,1.5,2.2,3.83,2.88,5.66,3.89,2.33,0,5.67,1.02,6.67-2.2,2.5-1.02,1.83-3.89,3.33-5.41.33-.51-.17-1.52.5-1.69.5-.5.17-1.86.83-2.37,1-1.52.5-4.06,2.17-5.41-1-1.52,1.17-2.03,1-3.21,2.17-1.01.5-3.89,2.67-5.07-.17-1.36,1.83-1.69,1.33-3.21h.17c-.33-1.02.83-1.69.67-2.88-.17-1.52,1.5-2.2,2-3.55.17-.68-.83-.85-.33-1.52,1.67-.68,1.5-2.37,2-3.89.17-.17.33-.68.67-.51v-.68c2.5-1.18,1.5-3.89,2.5-5.75,1-1.52,1.5-3.38,2.5-5.07.17-1.02.67-2.03,1.5-2.71,0-.85.33-1.69.83-2.37-.67-1.86.17-3.89-1.5-5.08h0ZM140.79,141.95c-.17-.17-.83-.68-.17-1.02h.17v1.02ZM141.79,127.9c0-.17-.17-.17-.17-.34h-.17c.17,2.37-.83,4.4-1.83,6.43-1.5,2.2-2,5.07-2,7.61-.66,2.37-2.83,4.4-4.17,6.26-.66,2.03-.33,4.23-1.83,5.92-.67,1.02-.83,2.37-1.33,3.72.67,1.53-1.5,1.53-1,2.88-.83.17-1.5,1.01-2,1.69.17,1.35-1.17,1.86-.66,2.87-.34,2.37-1.17,4.4-3.17,6.09-2.67-.17-5.5.51-6.5-2.54-.33-1.02-.5-2.37-1.67-3.21-.5-2.88-2.67-5.24-2.33-8.46-.33-1.52-2-2.71-1.83-4.57-1.33-1.86-1.83-3.89-3.33-5.58-.83-2.03-2-4.23-2.5-6.6,0-1.36-1-2.37-1.17-3.55-.67-1.36-.83-3.05-1.5-4.57-1.17-.68.33-2.71-1.5-3.39-.33-1.35-.5-3.21-1.5-4.57-.33-1.01-1-2.03-1.17-3.21,1.5-1.69,2.33.51,3.17,1.52.17,1.52,2.67,2.71,1.33,4.57,1.17.51-.17,1.02.17,2.03,2,.51.83,2.37,2.17,3.55,1.17,1.19,1.33,2.71,2.17,4.06.33,2.03,1.33,3.72,2.5,5.58-.17,1.86,2.5,2.54,1.67,4.57.5,1.19.5,2.71,1.5,3.72.17,1.36,1.33,2.2,1.5,3.39-.5,2.36,2.67,2.53,1.83,4.9,2,1.02.66,3.05,2.5,3.89-.33,1.36,1.33,1.69,2,2.37,1.17.17,2.33-1.01,3-2.2-.17-2.03,3.17-2.71,2.33-5.07,1.83-1.02,0-4.06,2-5.41,1-1.19.83-2.71,1.83-3.72-.33-.85,1-1.02,1.17-2.03.17-1.52,1.5-2.37,1.33-3.89.5-2.88,3.33-5.07,4.33-7.95,0-1.01.33-2.02.17-3.21,1-1.02,1-2.37,1.5-3.72,1.17-1.02.67-2.88,1.83-3.89,1.17-.34.83-2.71,2.33-1.52-.17,1.01.17,2.03.67,2.88-.67.68-.33,2.37-1.67,2.71h0ZM191.44,119.95c-.33-1.36-2.17-1.69-2.67-2.71-1.5.17-2.33-2.2-3.83-2.37-.65-.29-1.41-.23-2,.17-.67-.51-1.5-.68-2.17-1.52-1-.17-2.5-.51-3.33.34-1.9-.33-3.83.3-5.17,1.69-1.17-.34-1.83,1.01-2.67,1.52-1.67.5-2.83,1.52-4.5,1.86-1.5,2.37-4.17,4.23-4.33,7.11-1.83.84-.83,2.88-1.5,4.23-1.14,1.97-1.82,4.16-2,6.43-.17,1.02,0,2.37-.67,3.21,0,1.86.67,4.06-.17,5.75.67,4.4-1,9.64,1.5,13.53-.17.85.17,1.52.66,2.2.17,2.54,1,4.9,3.33,6.6-.17,1.52,2,1.52,1.67,3.21.17.17.5.85,1,.68.17.34.83.51.66,1.02.17.67.83.51,1.33.51.67.84,1.83,1.01,2.5,1.52,1.5.17,2.5,1.02,4.17,1.19.67.67,2,.17,2.83,1.18,1.33-.34,3,.85,4.67,0,1-2.2,3.83-.67,5.17-1.35.67-1.02,1.83-.17,2.5-1.19,1.17-1.01,2.5-2.03,4-2.71,2-.68,2.5-3.05,3.67-4.06,1.83-1.86-.17-4.23.33-6.76-.83-1.02-.17-2.88-1.17-3.72-.5-.34-.83-1.19-1.67-.85-1.67-.84-3.83-.17-5.67,0-1.33.85-1.33,2.2-1.67,3.39-.5.67-1.33.84-1.17,1.52-1.17,2.54-4,2.71-6.5,2.37-.67-.34-1.33.85-1.83,0h-1.16c-1.5-.34-3.33-1.19-3.83-2.88-1.17-.85-.5-2.37-2-3.21.33-.85-.5-1.02-.67-1.52,0-2.71-1.83-5.75-.67-8.46-.83-1.18.33-2.2-.5-3.21.33-2.03-.33-4.57.5-6.6.67-.68-.17-2.03.67-2.2.33-1.86,1.67-3.72,3.33-4.74,2-.17,3-3.21,5.33-2.54,1.83-1.02,4.5-.17,6,1.01,1.33-.33,1.5,1.19,2.67,1.52,1.17,2.03,3.17,4.57,6,4.23.67-1.01,1.5-.67,2.17-1.18,1.83.17,1.67-2.2,2.83-2.88.67-3.05-.83-5.07-1.67-7.45-1.67-1.69-2.83-2.54-4.33-3.89h0ZM190.95,127.74c-.83.17-1.5,1.86-2.5.68-1.5-1.19-3.33-3.89-5.83-3.21-1-1.19-2.67-.51-3.67-1.52-1.5.68-3.17,0-4.33,1.36-1.83.34-3,2.03-4.83,2.37-1.5.68-1,2.37-2.5,2.88-.67,1.69-2.5,2.88-2,5.07.17.51-.17.85-.67,1.02.17,4.23-1.17,8.29,0,12.35-.83.85.33,1.52.17,2.54-.33,1.19.17,2.88-.67,4.06,1.17,2.37,1,5.24,3.33,7.11,0,1.01.83.84,1.33,1.52l.83-.17c.17,1.35,1.17,2.37,2.5,3.05,1.17.17,2.17.34,3.33.85,1.67-1.02,2.83,1.52,5.17.67.17.68.83.17,1.17.34,1.17-.17,2.5-.68,3.33-1.52,1.5-.68,2.5-2.03,3.5-3.21.67,0,1.5-.34,2.17.34.5.17.33.84.33,1.35-1.5,3.21-4.66,3.21-6.5,5.92-2,1.19-4.67.68-6.83.68-.83-1.19-2.5-1.02-3.5-1.52-.5-1.02-1.83,0-2.33-1.02-2.67-.17-5.33-2.37-6.17-4.74-1.5-.67-.5-2.37-1.83-3.04,0-1.19-1-2.37-.67-3.89-1.17-1.02-.83-2.88-1.5-4.06.83-.85-1.17-1.35-.33-2.2-1.17-.51,0-1.86-.67-2.88.33-2.37.67-5.41,1-7.95-.83-2.88,1.33-4.74,1-7.62,1-2.88,2.5-5.58,4.17-8.29,1.33-1.02,1.17-3.21,3.33-3.05,1-.17,1.67-.85,2.5-1.52,1.17-.67,2.5-.67,3.83-.84,1.17-.51,3-.17,4.17-.85,1.5.34,2.83.85,4.33,1.52,2.33,2.03,6.17,3.72,5.83,7.45h0Z"/>
    <path class="cls-1" d="M336.24,138.22c.67-.84-.5-1.52-.67-2.02.33-1.19-1.17-1.53-1.17-2.88-.83-1.52-.66-3.55-2.17-4.74-.17-1.19-.83-2.03-1-3.21-.67-.17-1.33-1.02-2.5-1.02-1.67-.67-1.17,1.69-2.33,1.19l-.33.34c-1.17,1.35-1.5,3.05-1.67,4.74-1.83.17-.33,2.37-1.83,2.88.17,1.02-.66,1.52-.5,2.37-1.5.68.17,3.05-1.5,3.55-.17.68.5.68.66,1.02-.66.34-.66,1.02-1.33,1.52.33,1.35-.66,2.02-.66,3.21.33,1.02,2,.68,2.83.85,1.67.68,4,.34,5.5.17.67-.17,1.67.51,1.67-.51.17,0,.33-.17.5,0,0,.34.83,0,.5.17.17-.17,1.33.68,2.83.34,2.17-.51,4.67.34,6.83-.68.67-1.18-.67-2.37-.5-3.72-2-.85-1.34-2.54-3.17-3.55h0ZM332.58,142.96c-1-.34-1,.68-1.83,1.02-1.33-.17-2.5.84-3.67-.34-.67.17-1.17,0-1.5-.34.33-1.02-.67-1.52-1.33-2.03,1.5-1.36,1.33-3.39,2.83-4.57.17-1.52,0-3.21,1.33-4.06.67.17.83-.51,1.5-.17,1.17,1.01,1.33,2.71,2.33,3.72.5,1.36,1,2.03,1.17,3.55.67,1.02-.33,2.2-.83,3.21Z"/>
    <path class="cls-1" d="M491.37,128.92L253.27,1.36c-1.7-.88-3.58-1.35-5.5-1.36-2,0-3.67.51-5.5,1.36L4.5,128.92c-6,3.21-6,11.85,0,14.89l238.1,127.57c1.7.88,3.58,1.35,5.5,1.36,2,0,3.67-.51,5.5-1.36l237.77-127.56c6-3.21,6-11.84,0-14.89h0ZM488.2,137.88l-238.1,127.57c-.73.34-1.53.52-2.33.5-.83,0-1.67-.17-2.33-.5L7.5,137.89c-.67-.51-.83-1.02-.83-1.52s.17-1.19.83-1.52L245.6,7.27c.67-.34,1.5-.51,2.33-.51s1.67.17,2.33.51l237.93,127.56c.67.34.83,1.02.83,1.52.17.51,0,1.02-.83,1.52h0Z"/>
  </g>
</svg>