<svg viewBox="0 0 24 24" fill="currentColor" xmlns="http://www.w3.org/2000/svg"><path d="M1.125 0C.502 0 0 .502 0 1.125v21.75C0 23.498.502 24 1.125 24h21.75c.623 0 1.125-.502 1.125-1.125V1.125C24 .502 23.498 0 22.875 0H1.125zM11.96 14.4c.54 0 .96.42.96.93v2.34c0 .51-.42.93-.93.93H9.99c-.51 0-.93-.42-.93-.93v-6.96c0-.51.42-.93.93-.93h4.35c.51 0 .93.42.93.93v2.34c0 .51-.42.93-.96.93h-2.34v.96h2.01c.51 0 .93.42.93.93v2.34c0 .51-.42.93-.93.93H11.96v-3.79zM19.5 17.67c0 .51-.42.93-.93.93h-1.65c-.51 0-.93-.42-.93-.93v-2.34c0-.51.42-.93.93-.93h1.65c.51 0 .93.42.93.93v2.34z" /></svg>
