<svg xmlns="http://www.w3.org/2000/svg" width="800" height="800" style="shape-rendering:geometricPrecision;text-rendering:geometricPrecision;image-rendering:optimizeQuality;fill-rule:evenodd;clip-rule:evenodd"><path fill="#7dd4d4" d="M448.5-.5h31v160q-152.154 2.96-249.5 119a31.5 31.5 0 0 0-5.5 9q-59.454-23.7-99.5 26-33.001 55.25 9.5 103.5 12.325 11.413 28 17.5a292 292 0 0 0-3 45H-.5v-31Q18.786 227.633 193.5 93 307.461 9.924 448.5-.5" style="opacity:1"/><path fill="#3ec1bb" d="M479.5 159.5q182.283 4.976 277.5 159 36.257 64.01 42.5 137v24q-155-.25-310 .5Q592.534 490.554 631 586.5q8 25.96 8.5 53h-80q-36.003.25-72-.5 30.158-8.397 32-39.5-3.59-31.317-33.5-40-3.245 1.902-6.5 0v-80h-320a292 292 0 0 1 3-45q53.214 16.008 90.5-25 33.222-46.992 3-96-12.426-17.189-31.5-26a31.5 31.5 0 0 1 5.5-9q97.346-116.04 249.5-119" style="opacity:1"/><path fill="#f8f9f9" d="M224.5 287.5q19.074 8.811 31.5 26 30.222 49.008-3 96-37.286 41.008-90.5 25-15.675-6.087-28-17.5-42.501-48.25-9.5-103.5 40.046-49.7 99.5-26" style="opacity:1"/><path fill="#2c383e" d="M182.5 319.5q36.568-2.637 47.5 32 1.25 48.75-47.5 47.5-34.868-10.898-31.5-47.5 7.024-24.773 31.5-32" style="opacity:1"/><path fill="#7dd4d4" d="M461.5 479.5h18v80q-60.637 3.884-78.5 62a164 164 0 0 0-1.5 18h-80q3.71-102.894 96-147.5 22.432-9.104 46-12.5M799.5 479.5v24q-14.452 145.685-130 234.5-74.424 53.727-166 61.5h-12q100.049-11.79 138.5-105 9.29-26.704 9.5-55-.5-27.04-8.5-53-38.466-95.946-141.5-106.5 155-.75 310-.5" style="opacity:1"/><path fill="#3ec1bb" d="M479.5 559.5v40q-20.006-.25-40 .5 3.43 30.218 33 39.5h-73a164 164 0 0 1 1.5-18q17.863-58.116 78.5-62" style="opacity:1"/><path fill="#19bbaf" d="M479.5 559.5q3.255 1.902 6.5 0 29.91 8.683 33.5 40h-40zM479.5 599.5v39q-3.675-.303-7 1-29.57-9.282-33-39.5 19.994-.75 40-.5" style="opacity:1"/><path fill="#0cb5af" d="M479.5 599.5h40q-1.842 31.103-32 39.5 35.997.75 72 .5-3.203 61.137-62 78.5a82 82 0 0 1-18 1.5q-51.283-2.001-73.5-48-6.957-15.245-6.5-32h73q3.325-1.303 7-1z" style="opacity:1"/><path fill="#3ec1bb" d="M319.5 639.5h80q-.457 16.755 6.5 32 22.216 45.999 73.5 48v80h-18q-93.661-14.2-131.5-101-11.143-28.466-10.5-59" style="opacity:1"/><path fill="#19bbaf" d="M559.5 639.5h80q-.21 28.296-9.5 55-38.451 93.21-138.5 105h-12v-80a82 82 0 0 0 18-1.5q58.797-17.363 62-78.5" style="opacity:1"/></svg>